<svg xmlns="http://www.w3.org/2000/svg" xmlns:xlink="http://www.w3.org/1999/xlink" viewBox="0 0 200 200"><defs><style>.cls-1{fill:url(#linear-gradient);}.cls-2{fill:url(#linear-gradient-2);}.cls-3{fill:url(#linear-gradient-3);}.cls-4{fill:#3a3d4c;}.cls-5{fill:url(#linear-gradient-4);}</style><linearGradient id="linear-gradient" x1="160.58" y1="203.42" x2="42.33" y2="1.54" gradientUnits="userSpaceOnUse"><stop offset="0" stop-color="#121623"/><stop offset="0.99" stop-color="#272935"/></linearGradient><linearGradient id="linear-gradient-2" x1="100.15" y1="172.32" x2="100.15" y2="48.67" gradientUnits="userSpaceOnUse"><stop offset="0" stop-color="#c31fe6"/><stop offset="0.99" stop-color="#fbfefe"/></linearGradient><linearGradient id="linear-gradient-3" x1="100.15" y1="172.32" x2="100.15" y2="64.22" gradientUnits="userSpaceOnUse"><stop offset="0.01" stop-color="#5a6ff0"/><stop offset="0.13" stop-color="#5577ef"/><stop offset="0.33" stop-color="#488dec"/><stop offset="0.57" stop-color="#31b0e7"/><stop offset="0.84" stop-color="#13e1e1"/><stop offset="0.99" stop-color="#0fd"/></linearGradient><linearGradient id="linear-gradient-4" x1="16.15" y1="138.03" x2="184.15" y2="138.03" gradientUnits="userSpaceOnUse"><stop offset="0.01" stop-color="#5a6ff0"/><stop offset="0.99" stop-color="#c31fe6"/></linearGradient></defs><g id="Layer_2"><g id="OBJECTS"><rect class="cls-1" width="200" height="200"/><path class="cls-2" d="M16.15,84.13S34.49,111.7,56.87,111.7,83.29,80.05,94.62,80.05s24.54,22.3,51.23,22.3,38.3-53.68,38.3-53.68V172.32h-168Z"/><path class="cls-3" d="M16.15,132.71S30.71,91.77,48.31,91.77s28.11,31.37,44.89,31.37,27.14-58.92,48.17-58.92,42.78,61.33,42.78,61.33v46.77h-168Z"/><path class="cls-4" d="M11.89,95.44c0,1.29-.52,2.34-1.16,2.34s-1.16-1-1.16-2.34.52-2.33,1.16-2.33S11.89,94.15,11.89,95.44Z"/><path class="cls-4" d="M11.89,118.2c0,1.29-.52,2.34-1.16,2.34s-1.16-1.05-1.16-2.34.52-2.33,1.16-2.33S11.89,116.91,11.89,118.2Z"/><path class="cls-4" d="M11.89,141c0,1.29-.52,2.34-1.16,2.34S9.57,142.25,9.57,141s.52-2.33,1.16-2.33S11.89,139.67,11.89,141Z"/><path class="cls-4" d="M11.89,163.73c0,1.29-.52,2.33-1.16,2.33s-1.16-1-1.16-2.33.52-2.34,1.16-2.34S11.89,162.43,11.89,163.73Z"/><ellipse class="cls-4" cx="16.56" cy="178.87" rx="1.16" ry="2.34"/><path class="cls-4" d="M32.85,178.87c0,1.29-.52,2.33-1.16,2.33s-1.16-1-1.16-2.33.52-2.34,1.16-2.34S32.85,177.58,32.85,178.87Z"/><path class="cls-4" d="M48,178.87c0,1.29-.52,2.33-1.16,2.33s-1.16-1-1.16-2.33.52-2.34,1.16-2.34S48,177.58,48,178.87Z"/><path class="cls-4" d="M63.11,178.87c0,1.29-.52,2.33-1.16,2.33s-1.16-1-1.16-2.33.52-2.34,1.16-2.34S63.11,177.58,63.11,178.87Z"/><path class="cls-4" d="M78.24,178.87c0,1.29-.52,2.33-1.16,2.33s-1.16-1-1.16-2.33.52-2.34,1.16-2.34S78.24,177.58,78.24,178.87Z"/><path class="cls-4" d="M93.37,178.87c0,1.29-.52,2.33-1.16,2.33s-1.16-1-1.16-2.33.51-2.34,1.16-2.34S93.37,177.58,93.37,178.87Z"/><path class="cls-4" d="M108.5,178.87c0,1.29-.52,2.33-1.16,2.33s-1.16-1-1.16-2.33.51-2.34,1.16-2.34S108.5,177.58,108.5,178.87Z"/><path class="cls-4" d="M123.63,178.87c0,1.29-.52,2.33-1.16,2.33s-1.16-1-1.16-2.33.51-2.34,1.16-2.34S123.63,177.58,123.63,178.87Z"/><ellipse class="cls-4" cx="137.6" cy="178.87" rx="1.16" ry="2.34"/><ellipse class="cls-4" cx="152.73" cy="178.87" rx="1.16" ry="2.34"/><path class="cls-4" d="M169,178.87c0,1.29-.52,2.33-1.16,2.33s-1.17-1-1.17-2.33.52-2.34,1.17-2.34S169,177.58,169,178.87Z"/><ellipse class="cls-4" cx="182.99" cy="178.87" rx="1.16" ry="2.34"/><path class="cls-5" d="M16.15,140.29s11.59-15.78,26-15.78,30.88,25.84,42.61,25.84,17.22-23.61,31.55-23.61S138,145.4,152.73,145.4s19.15-41.66,31.42-41.66v68.58h-168Z"/></g></g></svg>
