<svg xmlns="http://www.w3.org/2000/svg" viewBox="0 0 701 701"><defs><style>.cls-1{fill:none;stroke:#fff;stroke-miterlimit:10;}</style></defs><g id="Layer_2" ><g id="Layer_1-2"><path class="cls-1" d="M556.07,633.8a350.13,350.13,0,0,1-411.14,0L350.5,350.86Z"/><path class="cls-1" d="M350.5,350.86,144.93,633.8A350.48,350.48,0,0,1,17.44,242.64Z"/><path class="cls-1" d="M350.5.5V350.86L17.44,242.64A350.14,350.14,0,0,1,350.5.5Z"/><path class="cls-1" d="M700.5,350.5A349.26,349.26,0,0,1,556.07,633.8L350.5,350.86,683.56,242.64A349.59,349.59,0,0,1,700.5,350.5Z"/><path class="cls-1" d="M683.56,242.64,350.5,350.86V.5A350.14,350.14,0,0,1,683.56,242.64Z"/></g></g></svg>
