<svg class="icon" xmlns="http://www.w3.org/2000/svg" viewBox="0 0 144.39 144.39"><defs><style>.cls-1{fill:#24292F;}</style></defs><g id="Layer_2" data-name="Layer 2"><g id="Layer_1-2" data-name="Layer 1"><path class="cls-1" d="M72.2,0a72.2,72.2,0,1,0,72.19,72.2A72.19,72.19,0,0,0,72.2,0ZM89.08,138.24q0-12.57,0-25.15A13.35,13.35,0,0,0,86.45,105c-.61-.83-1.19-1.68-1.83-2.48s-.35-.84.44-.95a37.2,37.2,0,0,0,4-.81c7.33-1.89,13.94-5.07,18.6-11.3,5.88-7.86,7.74-16.61,5.22-26.15a36.23,36.23,0,0,0-5.45-11,2.65,2.65,0,0,1-.44-2.46A26.15,26.15,0,0,0,106.28,34c-.16-.46-.35-.73-.84-.61-1.72.43-3.53.31-5.24.93a62.94,62.94,0,0,0-10.69,5.46,3.23,3.23,0,0,1-2.65.41,52.13,52.13,0,0,0-10-1.69A53.34,53.34,0,0,0,59.57,40.1a4.1,4.1,0,0,1-3.42-.48c-4.76-2.79-9.39-5.93-15.22-6.2-.82,0-1.06.11-1.3.81A25.38,25.38,0,0,0,38.94,50a1.84,1.84,0,0,1-.24,1.87,29.82,29.82,0,0,0-6.39,16.63c-.84,10.58,2.63,19.36,11,26,5.08,4,11.06,5.94,17.34,7,1.22.2,1,.53.45,1.24-1.53,1.94-3.17,3.93-3.44,6.43-.24,2.26-1.46,2.89-3.37,3-.26,0-.53.06-.8.07a8.23,8.23,0,0,1-7.66-3.79,29.65,29.65,0,0,0-4.61-5.91c-2.89-2.56-6.13-4.31-10.13-4.26-.65,0-.82.15-.74.84.23,2,.42,4,.53,6,0,.93.31,1.23,1.29,1.35a6.93,6.93,0,0,1,3.67,2.09,20.82,20.82,0,0,1,3,4,16.74,16.74,0,0,0,8.37,6.83,18,18,0,0,0,9.9.52v18.73a68.12,68.12,0,1,1,32-.42Z"/></g></g></svg>
