<svg xmlns="http://www.w3.org/2000/svg" xmlns:xlink="http://www.w3.org/1999/xlink" viewBox="0 0 165 165"><defs><style>.cls-1{fill:none;}.cls-2,.cls-21,.cls-4,.cls-40,.cls-7{opacity:0.95;}.cls-2{fill:url(#linear-gradient);}.cls-3{fill:#96bfe6;}.cls-4{fill:url(#linear-gradient-2);}.cls-5{fill:#4598e6;}.cls-6{fill:url(#linear-gradient-3);}.cls-7{fill:url(#linear-gradient-4);}.cls-8{fill:#385369;}.cls-9{fill:#eea886;}.cls-10{fill:#434343;}.cls-11{fill:#a77860;}.cls-12{fill:#0e2d3d;}.cls-13{fill:#163342;}.cls-14{fill:#1d3b54;}.cls-15{fill:#285173;}.cls-16{fill:#ffbf55;}.cls-17{fill:#183c59;}.cls-18{fill:#616161;}.cls-19{fill:#e0cec7;}.cls-20{fill:#eea987;}.cls-21{fill:url(#linear-gradient-5);}.cls-22{fill:#344052;}.cls-23{fill:#eb4747;}.cls-24{fill:#393d63;}.cls-25{fill:#decbc4;}.cls-26{fill:#e8734d;}.cls-27{fill:#3c4145;}.cls-28{fill:#51565c;}.cls-29{fill:#f5e2d9;}.cls-30{fill:#d44040;}.cls-31{fill:#2d3133;}.cls-32{fill:#292c47;}.cls-33{fill:#fff;}.cls-34{fill:#424773;}.cls-35{fill:#3a3f47;}.cls-36{fill:#e2d2ca;}.cls-37{fill:#323657;}.cls-38{fill:#ffdf69;}.cls-39{fill:#ab9546;}.cls-41{fill:url(#linear-gradient-6);}.cls-42{fill:url(#linear-gradient-7);}.cls-43{fill:url(#linear-gradient-8);}.cls-44{fill:url(#linear-gradient-9);}.cls-45{fill:url(#linear-gradient-10);}.cls-46{fill:url(#linear-gradient-11);}.cls-47{fill:url(#linear-gradient-12);}.cls-48{fill:url(#linear-gradient-13);}.cls-49{fill:url(#linear-gradient-14);}.cls-50{fill:url(#linear-gradient-15);}.cls-51{fill:url(#linear-gradient-16);}</style><linearGradient id="linear-gradient" x1="64.9" y1="108.04" x2="61.86" y2="52.93" gradientUnits="userSpaceOnUse"><stop offset="0" stop-color="#d1d7e0"/><stop offset="1" stop-color="#ebebff"/></linearGradient><linearGradient id="linear-gradient-2" x1="115.63" y1="124.65" x2="115.63" y2="66.84" xlink:href="#linear-gradient"/><linearGradient id="linear-gradient-3" x1="7.98" y1="141.21" x2="157.02" y2="141.21" gradientUnits="userSpaceOnUse"><stop offset="0.01" stop-color="#1a2257"/><stop offset="1" stop-color="#5e60f2"/></linearGradient><linearGradient id="linear-gradient-4" x1="62.12" y1="88.95" x2="62.12" y2="46.68" xlink:href="#linear-gradient"/><linearGradient id="linear-gradient-5" x1="100.43" y1="53.21" x2="100.43" y2="29.4" xlink:href="#linear-gradient"/><linearGradient id="linear-gradient-6" x1="133.41" y1="46.52" x2="136.37" y2="46.52" xlink:href="#linear-gradient"/><linearGradient id="linear-gradient-7" x1="132.35" y1="46.52" x2="133.58" y2="46.52" xlink:href="#linear-gradient"/><linearGradient id="linear-gradient-8" x1="124.9" y1="45.16" x2="134.39" y2="45.16" xlink:href="#linear-gradient"/><linearGradient id="linear-gradient-9" x1="72.23" y1="21.99" x2="76.12" y2="21.99" xlink:href="#linear-gradient"/><linearGradient id="linear-gradient-10" x1="72.23" y1="24.8" x2="76.12" y2="24.8" xlink:href="#linear-gradient"/><linearGradient id="linear-gradient-11" x1="72.23" y1="27.61" x2="76.12" y2="27.61" xlink:href="#linear-gradient"/><linearGradient id="linear-gradient-12" x1="77.73" y1="21.99" x2="78.83" y2="21.99" xlink:href="#linear-gradient"/><linearGradient id="linear-gradient-13" x1="77.73" y1="24.8" x2="78.83" y2="24.8" xlink:href="#linear-gradient"/><linearGradient id="linear-gradient-14" x1="77.73" y1="27.61" x2="78.83" y2="27.61" xlink:href="#linear-gradient"/><linearGradient id="linear-gradient-15" x1="62.31" y1="84.6" x2="67.63" y2="84.6" xlink:href="#linear-gradient"/><linearGradient id="linear-gradient-16" x1="60.41" y1="84.6" x2="62.63" y2="84.6" xlink:href="#linear-gradient"/></defs><g id="Layer_2" data-name="Layer 2"><g id="OBJECTS"><rect class="cls-1" width="165" height="165"/><rect class="cls-2" x="42.29" y="37.8" width="39.67" height="39.67" rx="11.54"/><rect class="cls-3" x="52.94" y="68.44" width="18.37" height="0.91"/><rect class="cls-3" x="55.54" y="71.3" width="13.16" height="0.91"/><rect class="cls-4" x="88.48" y="51.56" width="54.3" height="63.73" rx="15.79"/><rect class="cls-5" x="113.1" y="89.16" width="4.31" height="0.8"/><rect class="cls-3" x="96.75" y="96.46" width="25.06" height="1.54"/><rect class="cls-3" x="96.75" y="103.88" width="20.26" height="1.54"/><rect class="cls-3" x="96.75" y="100.17" width="11.88" height="1.54"/><path class="cls-5" d="M128.37,57.91v.78H133V63h.78V57.91ZM97.18,63H98V58.69h4.6v-.78H97.18ZM133,85.24v4.31h-4.59v.78h5.37V85.24Zm-35,0h-.78v5.09h5.38v-.78H98Z"/><path class="cls-5" d="M131.31,105.53a4.59,4.59,0,1,1,4.59-4.59A4.6,4.6,0,0,1,131.31,105.53Zm0-8.29a3.71,3.71,0,1,0,3.7,3.7A3.71,3.71,0,0,0,131.31,97.24Z"/><polygon class="cls-5" points="131.01 102.75 128.93 100.66 129.56 100.03 131.01 101.49 133.06 99.45 133.69 100.08 131.01 102.75"/><path class="cls-6" d="M157,141.21c0,1.92-33.37,3.49-74.52,3.49S8,143.13,8,141.21s33.37-3.49,74.52-3.49S157,139.28,157,141.21Z"/><rect class="cls-7" x="48.75" y="39.28" width="26.74" height="22.94"/><path class="cls-8" d="M72.34,53.25a6.56,6.56,0,0,0-4-3.73L66.68,49l-2.52-.81H60s-1.44.48-3,1h0c-1.41.5-2.9,1-3.4,1.29-1,.52-2.8,4.25-3.16,4.68a33.92,33.92,0,0,0-1.8,3.3h4.48L54,57s.28.62.63,1.44H69a21.47,21.47,0,0,0,.37-2.16s.77,1.05,1.61,2.16h4.14A40.73,40.73,0,0,1,72.34,53.25Z"/><path class="cls-9" d="M62.57,36.72s3.26.52,2.76,5.61S62,47,61.77,47s-2.88.09-3.09-6.13C58.68,40.87,58.59,36.28,62.57,36.72Z"/><path class="cls-9" d="M65.38,40.89s.36-.38.49,0a7.77,7.77,0,0,1-.51,2.19s-.07.15-.15.07A17.75,17.75,0,0,1,65.38,40.89Z"/><path class="cls-9" d="M58.77,40.83s-.35-.39-.49,0A7.63,7.63,0,0,0,58.74,43s.07.16.15.07A18,18,0,0,0,58.77,40.83Z"/><path class="cls-10" d="M65.38,41.67l-.47.62a11.52,11.52,0,0,0-.06-1.58c-.07-.21-.19-.86-.25-1a7,7,0,0,0-5.21.23s.11,1-.12,1.06-.12,1.6-.12,1.6l-.38-.43a34.68,34.68,0,0,1-.45-4.32c.15-.41.61-2.87,5.56-1.41,0,0,1.55-.33,1.85.74S65.38,41.67,65.38,41.67Z"/><path class="cls-9" d="M64.56,48.07l-.42-.21a9.59,9.59,0,0,1,0-2.36s-4.14-1.06-4-.25a10.4,10.4,0,0,1-.35,2.68L57.58,49s2.27,6.08,4.87,5.29S66,48.77,66,48.77Z"/><path class="cls-11" d="M60.12,46.15A2.47,2.47,0,0,0,62,47a2.69,2.69,0,0,0,2.07-1A2.18,2.18,0,0,1,62,47.59,1.83,1.83,0,0,1,60.12,46.15Z"/><path class="cls-12" d="M48.16,66.57A3.88,3.88,0,0,1,50,70.92c-.59,3.18-.85,3.61-.19,4.86s1.44,6.54.84,7.55-7.36-4.42-8.3-9,.59-6.57,1.13-7.33S46.05,65.5,48.16,66.57Z"/><path class="cls-13" d="M47.26,140.42h.54v-2.56a7.34,7.34,0,0,1,1.73,1.69c.67,1,1.58.9,3,.84s1.33-.63,1.21-1.42-1.54-1-2-1.17-1.5-1.92-1.84-2.35a6.62,6.62,0,0,1-.7-1.17s-.26-1.07-1.55,0a3.2,3.2,0,0,0-.77,3.29A22.56,22.56,0,0,1,47.26,140.42Z"/><path class="cls-9" d="M50,137.8c.48.31,1.73,0,1.73,0-.36-.46-2.54-3.52-2.54-3.52-1.32-.77-1.84.29-1.84.29C47.88,134.73,49.51,137.49,50,137.8Z"/><path class="cls-9" d="M63.92,90.65s.87.16,1.17-.24a2.82,2.82,0,0,1,1-.7c.24-.11.84-.72,1-.42s-.94,1-1.14,1.26,1.07.29,1.29.49,0,2.27-.91,2.11a7.87,7.87,0,0,1-1.83-.9,5.88,5.88,0,0,1-.62-.09Z"/><path class="cls-9" d="M67,91a19.09,19.09,0,0,1,2.72.86c.14.19.1.33-.15.28l-2.52-.58S70,92.82,70.16,93s0,.35-.12.34-3.12-1.15-3.12-1.15,2.74,1.23,2.83,1.37a.21.21,0,0,1-.26.29l-2.82-1.08a11.93,11.93,0,0,1,1.94,1.19c0,.1,0,.34-.54.06s-1.72-.81-1.72-.81Z"/><path class="cls-13" d="M40.23,140.59h.34v-1.87a4.1,4.1,0,0,1,.86,1.5c.27.9,1.24,1.17,2.72,1.12s1.5-.62,1.38-1.5-1.38-1.33-1.38-1.33a23.71,23.71,0,0,1-2-2.58,2,2,0,0,0-1.6.33c-.7.57-.48,1.85-.46,2.19S40.23,140.59,40.23,140.59Z"/><path class="cls-14" d="M41.26,95.9a13.13,13.13,0,0,0-2.25,5c-.47,2.72.29,11.85.27,13.19s-1.28,4.69-1,7.22,1.24,15.14,1.24,15.14l2.7-.54s-.15-12.85,0-13.91.47-4.94.54-5.37,4-11.94,4-13.9S45.51,92.7,41.26,95.9Z"/><path class="cls-14" d="M50.11,96.8s2.9,11.06,3.25,12.59a33.08,33.08,0,0,1,.84,3.45,22.74,22.74,0,0,1-.56,3.93L50,134.37H46.45s2-10.56,2-12.63,1.64-5,1.33-5.88-5-11-5-11S41.18,93.59,50.11,96.8Z"/><path class="cls-9" d="M44.15,138.51l-2-2.58-1.6.33a7.12,7.12,0,0,0,1.21,2A2,2,0,0,0,44.15,138.51Z"/><path class="cls-15" d="M48.92,78A3.58,3.58,0,0,1,51,79.09a14,14,0,0,1,2,3c.24.52,3.55,5.3,3.72,5.41s1.84.66,2.94,1c1.71.58,5.12,1.82,5.12,1.82l-.68,2.14s-6.42-2.1-8-2.49c-2-.49-6.5-6.29-6.5-6.29S46.21,79.77,48.92,78Z"/><path class="cls-16" d="M46.83,77.17a16.49,16.49,0,0,0,2.09.84c.53.11,2.62,2.81,3,3.8s0,2.47-.75,4.21,0,2.33-.38,4.07a69.66,69.66,0,0,0-.17,9.22c.06,1-10.06,2.43-12.06.67,0,0,1.35-5.87,3-7.55.35-.36.31-2.77.08-3.38S38.67,84,38.67,84s-.2-4.55,1-5.46c1-.78,3.77-1.06,4.26-1.23A8.48,8.48,0,0,1,46.83,77.17Z"/><path class="cls-9" d="M47.57,75.39s0,.42-.1,1c0,.22,0,.48-.06.73a17.77,17.77,0,0,0-.08,2s-1.61,1.61-3.44-1.88a4.79,4.79,0,0,0,.19-3.4C43.5,71.91,47.57,75.39,47.57,75.39Z"/><path class="cls-17" d="M52.07,86.67a13.15,13.15,0,0,0,0-4.14,9.94,9.94,0,0,1-.74,3.25Z"/><path class="cls-9" d="M42.66,77.52s1.1,3.26,4.14,3,1.44-2.76,1.44-2.76a6.84,6.84,0,0,0-1-.47c-.21,0-3.36-.08-3.36-.08Z"/><path class="cls-15" d="M48.24,77.78a30,30,0,0,1,1.59,8.89c0,4.48.13,11.78.68,14.09s2.14,9.44,2.14,9.44l1.24-.64s-3-11.38-3.21-12.2a78.63,78.63,0,0,1,.39-10.22c.21-.73,1.12-4,1-4.86A8.24,8.24,0,0,0,49.1,78Z"/><path class="cls-15" d="M43.26,77.38a46.79,46.79,0,0,1,1.49,7.22c.5,4.05-1.54,22.87-2.91,27.14l-5.3-.86s1.14-13.3,2.69-15.72,2-4.56.37-9.61.73-7.55.73-7.55S42.79,77.43,43.26,77.38Z"/><polygon class="cls-18" points="48.97 90.8 42.55 101.92 35.41 97.8 41.55 86.52 48.97 90.8"/><polygon class="cls-19" points="48.2 91.18 42.49 101.06 36.15 97.4 41.61 87.38 48.2 91.18"/><polygon class="cls-18" points="46.09 90.3 46.49 89.6 43.93 88.12 43.43 88.76 46.09 90.3"/><path class="cls-9" d="M45.79,98.19a1.35,1.35,0,0,1-.42-.06L45,97.91l-.13,0a2.53,2.53,0,0,1-.72-.31,15.91,15.91,0,0,1-1.29-1.36l.48-.72.34-.74a16.77,16.77,0,0,1,2.4.29l.08,0a3.12,3.12,0,0,1,.45.45s.42.41.41.57a.51.51,0,0,1-.26.44,1.23,1.23,0,0,1-.26.63.77.77,0,0,1-.38.57S46,98.13,45.79,98.19Z"/><path class="cls-15" d="M41.43,78a2.68,2.68,0,0,0-3.06,1.59,9.85,9.85,0,0,0-1.27,4.11c-.14,1-.77,3.7-.84,4s-1.5,3.61-.84,4.78,7.41,4.61,7.37,4.87S44,94.73,44,94.73a28.94,28.94,0,0,1-3.18-2c-.73-.76-2.26-1.58-1.94-2.52.36-1.11,1.48-4.86,1.73-5.4S43.08,78.71,41.43,78Z"/><path class="cls-20" d="M47.81,66.92S51.28,68,49.4,74s-6.63-.7-6.13-4.35S47.81,66.92,47.81,66.92Z"/><path class="cls-12" d="M49.75,70.42a7.81,7.81,0,0,1-4.61,1.9A7.09,7.09,0,0,0,44,74.14s-2.58-4.4.59-7S50.92,69.33,49.75,70.42Z"/><path class="cls-20" d="M45.18,72.44c0-.43-.29-1.43-.94-1.15s0,2.3.47,2.18C44.71,73.47,45.23,73.47,45.18,72.44Z"/><path class="cls-11" d="M47.47,76.39c0,.22,0,.48-.06.73,0,0-1.53-.09-2.56-2.37C44.92,74.85,46,76.5,47.47,76.39Z"/><rect class="cls-21" x="85.86" y="23.11" width="29.15" height="26.25" rx="7.64"/><rect class="cls-5" x="99.16" y="44.39" width="2.31" height="0.43"/><path class="cls-22" d="M102.41,20.81a3.1,3.1,0,0,1,1.27,3.54c-.59,2.51-.82,2.84-.34,3.86s.91,5.27.39,6-5.7-3.8-6.28-7.46.72-5.22,1.18-5.8A3.21,3.21,0,0,1,102.41,20.81Z"/><path class="cls-9" d="M105.91,41.59h-2c-.09-1-.18-1.66-.17-1.77s-2-5.44-2.17-5.88a8.44,8.44,0,0,1-1-2.71c-.1-1.11,1.34-1.55,1.34-1.55,1.94.35,2.6,3,2.6,3s.81,5.45,1.23,7A10.75,10.75,0,0,1,105.91,41.59Z"/><path class="cls-23" d="M104.9,34l-3,1.25s-2.73-6.78-.44-6S104.8,31.43,104.9,34Z"/><path class="cls-23" d="M104.24,37.21a27.89,27.89,0,0,0-.36,3.7c0,.11.06.35.12.68H96.84c.19-.68.37-1.28.47-1.63.35-1.15,0-1.46-.16-2.38-.07-.36-.31-1-.57-1.82l-.27-.8a17.19,17.19,0,0,1-.55-2.56c-.43-2.75,1.69-3,1.69-3,.79-.14,2.16-.57,2.16-.57l2.15.45a2.44,2.44,0,0,1,.51.3h0a3.33,3.33,0,0,1,.48.42,12.75,12.75,0,0,1,1.18,1.7l.42.7a4,4,0,0,1,.74,2.06C105.08,35.12,104.33,36.54,104.24,37.21Z"/><path class="cls-9" d="M101.76,29.26s1.35,2.31.85,2.48a4.75,4.75,0,0,1-4.18-2.59A4,4,0,0,1,101.76,29.26Z"/><path class="cls-9" d="M101.57,30.31s-1.2.51-2.28-1.16a5.68,5.68,0,0,0-.33-3c-.61-1.1,2.7,1.31,2.7,1.31s-.06.23-.11.56c0,.17-.06.37-.08.58s0,.36,0,.55A3.13,3.13,0,0,0,101.57,30.31Z"/><path class="cls-24" d="M98.6,32.9c-.25,1.27-2,2.86-2,2.86l-.27-.8A11.83,11.83,0,0,0,98.6,32.9Z"/><path class="cls-9" d="M98.15,33.91c-.11.46-.63,5.14-.57,5.3s.28,1.18.53,2.38H95.8a5.37,5.37,0,0,1-.34-1.78,58.56,58.56,0,0,0-.39-6.62s-.48-3,2.05-3.43c0,0,1.49.2,1.58,1.3A8.64,8.64,0,0,1,98.15,33.91Z"/><path class="cls-23" d="M94.88,34.55l3.14.74s2.49-4.84.25-5.72S94.32,31.92,94.88,34.55Z"/><path class="cls-20" d="M102.12,21.08s2.73,1,1,5.7-5.26-.8-4.73-3.69S102.12,21.08,102.12,21.08Z"/><path class="cls-22" d="M103.54,23.94a6.27,6.27,0,0,1-3.75,1.34s-.54,1.32-.63,1.72c0,0-2.28-3.92.34-5.9S104.5,23.12,103.54,23.94Z"/><path class="cls-20" d="M100.1,25.56c0-.34-.18-1.15-.71-.95s0,1.84.29,1.75C99.68,26.36,100.1,26.39,100.1,25.56Z"/><path class="cls-11" d="M101.43,29.08a2.93,2.93,0,0,1-1.79-1.62c1,1.35,1.83,1.15,1.83,1.15C101.45,28.79,101.45,28.9,101.43,29.08Z"/><path class="cls-5" d="M107.36,27.86v.42h2.46v2.31h.42V27.86ZM90.62,30.59H91V28.28H93.5v-.42H90.62Zm19.2,11.94v2.31h-2.46v.42h2.88V42.53ZM91,42.53h-.42v2.73H93.5v-.42H91Z"/><rect class="cls-5" x="60.58" y="64.01" width="3.09" height="0.57"/><path class="cls-5" d="M71.38,41.92v.56h3.29v3.09h.56V41.92ZM49,45.57h.56V42.48h3.29v-.56H49ZM74.67,61.51v3.1H71.38v.55h3.85V61.51Zm-25.09,0H49v3.65h3.85v-.55H49.58Z"/><path class="cls-25" d="M131.1,84.88h-2.62l-.11-.27c-.78-1.83-4.77-6-4.77-6h0v0a0,0,0,0,1,0,0v0c-.17.61-1,3.66-1.37,6.18H104.52c0-.23-.09-.45-.14-.66a14.56,14.56,0,0,1-.34-1.83s0-.06,0-.08l0-.32a15.89,15.89,0,0,1,0-2.93c0,.11-.41,1.42-.88,3-.26.89-.55,1.87-.83,2.79H98.08l5.24-15.11c.11-.09,1.47-.74,2.47-1.22s2.23-1.19,3.33-1.79c.56-.31,1.1-.59,1.56-.8l.07,0h0l1.27-.58h0l.33,0c1.06-.11,4.36-.42,5.47-.48h.34a15,15,0,0,1,1.71.59l.1,0,.13,0,.24.09.49.2.17.06a35.36,35.36,0,0,1,4.33,1.94,26.61,26.61,0,0,1,2.48,4.46C129.06,76.25,130.59,82,131.1,84.88Z"/><path class="cls-9" d="M118.13,64.32c0,2.37-4.65,3.67-4.65,3.67s-1.92-2.41-1.46-2.64c.18-.09.25-.45.27-.86a9,9,0,0,0,0-1.07c0-.17,0-.28,0-.28s.66-.69,1.49-1.52c1.46-1.44,3.47-3.29,3.47-2.56a.34.34,0,0,1,0,.14C116.83,60.86,118.13,64.32,118.13,64.32Z"/><path class="cls-11" d="M116.36,60.84h0s-.2.3-.53.72a9.62,9.62,0,0,1-3.53,2.93,9,9,0,0,0,0-1.07,3.4,3.4,0,0,1-.46-.06,14.61,14.61,0,0,1,1-1.46l.92-.28Z"/><path class="cls-9" d="M117.24,59.09c-.4.87-.78,1.5-.88,1.75h0a2.73,2.73,0,0,1-.53.72,5.34,5.34,0,0,1-3.55,1.86,3.4,3.4,0,0,1-.46-.06,2.15,2.15,0,0,1-1.58-1.09,12.48,12.48,0,0,1-.8-10.22s7.85-2.21,9.08.15C119.37,53.85,118.17,57.06,117.24,59.09Z"/><path class="cls-26" d="M109.43,52.05s-.73,0-.91-1.42.19-1.74.19-1.74a31.73,31.73,0,0,1,4.4-1.53c1.16-.18,4-.35,4.69.42,0,0,1.63-.38,2.08,2.32.7,4.29-2.4,8.46-2.4,8.46s0-2.8-.59-3.17-1.16.51-1.16.51l-1.26.22s1.92-4.14-.38-4.3S110.75,52.3,109.43,52.05Z"/><path class="cls-9" d="M115.77,54.78c.12-1.23,2.35-1.71,2.2-.41s-1.25,2.54-1.76,2.49S115.68,55.72,115.77,54.78Z"/><path class="cls-27" d="M128.84,72.36A19.86,19.86,0,0,0,127.2,68c-.49-.35-4.36-1.41-6.2-2.14l-.17-.06-.49-.2-.24-.09-.13,0-.1,0a0,0,0,0,0,0,0,31.65,31.65,0,0,0-2,2.59c-1.9,2.7-4.38,7.08-4,11.12.13,1.29.28,3.15.53,5.24l.06.5H123a47.16,47.16,0,0,1,.58-6.18v0a0,0,0,0,0,0,0s0,0,0,0v0h0a14.93,14.93,0,0,1,2.18,6.28h5.4A72.13,72.13,0,0,0,128.84,72.36Z"/><path class="cls-27" d="M110.71,66a66.07,66.07,0,0,0-1.48,7.53h0l-.09.56a.13.13,0,0,1,0,.06c0,.13,0,.25,0,.38v0c0,.08,0,.17,0,.25l-.09.65c-.32,2.2-.74,5.69-1.16,9.41h-3.39a15.4,15.4,0,0,1-.34-2.62s0,0,0,0c-.27.75-.57,1.56-.87,2.35l-.08.22H97.24l5.82-15.22c.11-.09,1.61-.9,2.6-1.37s2.34-1.1,3.5-1.63l1.52-.7Z"/><path class="cls-28" d="M118.59,71.31l-2.24,1.26,1,1-2.1,11.33h-.79c-.29-2.29-.46-4.35-.59-5.74-.58-6.25,5.65-13.29,6-13.72l1,.37Z"/><path class="cls-28" d="M110.75,65.93a71.46,71.46,0,0,0-1.81,9.54c-.32,2.2-.74,5.69-1.16,9.41h-.33L107,74.17,108.08,73l-1-1.18,2-5.18,1.52-.7Z"/><path class="cls-29" d="M120,65.44l-1.85-1.12s-.06,1-4.65,3.67l1.3,3.68Z"/><path class="cls-29" d="M112.26,64.83A8.57,8.57,0,0,0,113.48,68l-2.55,3.32-.18-5.38Z"/><path class="cls-30" d="M113.49,68a8.66,8.66,0,0,1,.31,2.53,2.42,2.42,0,0,1-1.86-.1A8.65,8.65,0,0,1,113.49,68Z"/><path class="cls-30" d="M112.89,74.7a50,50,0,0,0-.33,10.18h-2.17c0-.43-.06-.87-.09-1.34a35.2,35.2,0,0,1,2.08-13.3l1.11-.28S113.13,73.07,112.89,74.7Z"/><path class="cls-31" d="M104.12,79.08c-.09,1.68-.07,3.18-.07,3.18h0a1.09,1.09,0,0,0,0,.13v-.08c-.27.75-.57,1.56-.87,2.35a25.4,25.4,0,0,1-.07-2.57,15.73,15.73,0,0,1,1.61-7.2A15.8,15.8,0,0,0,104.12,79.08Z"/><polygon class="cls-32" points="83.78 84.9 76.83 88.72 69.85 77.74 78.3 74.81 83.78 84.9"/><polygon class="cls-33" points="83.34 84.57 76.84 88.15 70.32 77.87 78.21 75.13 83.34 84.57"/><path class="cls-9" d="M85.72,82.65s-1.21-.58-1.74-.88-1.89-.72-2-.82-4-.34-4.29-.54-.47.48.55.7,2.44.77,2.52,1.17-1.05.5-1.17.83,0,.25.2.32,1.34-.58,1.85-.4S83,83,83.35,83.1l2.33.78Z"/><path class="cls-9" d="M76.49,87.35s-1-.92-1.5-1.3-1.42-1.51-1.55-1.58-1.9-3.68-2.19-3.82.27-.64.88.24,1.68,2,2.08,1.92.06-1.18.32-1.42.26-.07.39.06,0,1.49.35,1.9.44,1.27.72,1.59l1.65,1.88Z"/><path class="cls-34" d="M98.38,136.24s.22,1.52.25,1.75,2.44-.13,2.44-.13l.2-1.82A14,14,0,0,0,98.38,136.24Z"/><path class="cls-32" d="M98.6,137.8a6.43,6.43,0,0,1-1.5,1.32c-.74.4-1.91.56-2.35,1s-1.15,1.59,1.93,1.56,4.56.19,4.89-.31-.48-3.65-.48-3.65A6.38,6.38,0,0,1,98.6,137.8Z"/><path class="cls-34" d="M81.06,136.24s.22,1.52.24,1.75,2.45-.13,2.45-.13l.19-1.82A13.93,13.93,0,0,0,81.06,136.24Z"/><path class="cls-32" d="M81.28,137.8a6.58,6.58,0,0,1-1.51,1.32c-.74.4-3.47.73-3.91,1.14s-.84,1.51,3.49,1.39c3.08-.08,4.56.19,4.89-.31s-.47-3.65-.47-3.65A6,6,0,0,1,81.28,137.8Z"/><path class="cls-32" d="M96.38,97s2.27,3.61,2.1,6.87.83,6.82,1.17,10.23c.38,3.8,1.93,12.8,2,14.83s-.24,8.53-.24,8.53l-3.12.07S95.66,121.83,95,120.22s-4-13-4.16-14.32S96.38,97,96.38,97Z"/><path class="cls-32" d="M84.42,97.51s-1.71,8.95-1.94,10.95-.38,9.66-.49,10.91-.75,16.33-1.36,18.19h4s3.06-11,3.06-16.16,2.36-11.28,3.89-14.7,5-3.51,6-9.86C97.52,96.84,85.69,95.5,84.42,97.51Z"/><path class="cls-9" d="M92.59,66.68s-3-1.14-4.46,1.18-1.27,7,.27,7.54,3.84.27,4.63-1.18a11.64,11.64,0,0,0,1.47-5A3.06,3.06,0,0,0,92.59,66.68Z"/><path class="cls-9" d="M88.73,75.51a2.58,2.58,0,0,1-.08,1.22c-.21.41,3.95.42,3.95.42a27.47,27.47,0,0,1,1-4.07C94.22,71.22,88.73,75.51,88.73,75.51Z"/><path class="cls-35" d="M93.58,73.08s-.29.47-1.46.29-2.61-1.74-3.1-1.91-.49-.46-.49-.46l-.31.44-.52,0s.48-1.4-.24-2,.75-4.51,4.5-3.2c0,0,2.89.8,2.79,2.44A9.27,9.27,0,0,1,93.58,73.08Z"/><path class="cls-36" d="M88.4,76.69s0-.78.36-.85a24.54,24.54,0,0,1,4.31-.25v.9S92.24,77,88.4,76.69Z"/><path class="cls-9" d="M88.61,70.4c.06-.28.76-1.06,1-.22s-.4,2-.78,1.88S88.44,71.1,88.61,70.4Z"/><path class="cls-37" d="M74.41,85.84Z"/><path class="cls-38" d="M98.94,105.63a32.22,32.22,0,0,1-5.06.9c-3.19.35-11.16-.13-11.21-.51s1.72-14,1.62-14.73-.16-3.21-.16-3.21a17.45,17.45,0,0,1-1.58,5c-.3.55-1.33,2.28-1.82,1.89-2.39-1.91-6.08-9.09-6.32-9.15.2-.08,1.75-.8,2-.87a20.64,20.64,0,0,1,3,2.89l.79.87c.31-.68,1.4-5,1.74-6.43.77-3.33.65-3.47.65-3.47,2.34-.71,5.88-2.14,5.88-2.14l4.67-.2a46.15,46.15,0,0,1,6,1.71c.16.07.16,3.83.6,4.81l-1.4,3s-.81,5.85-1,8.45C97.2,95.62,98.94,105.63,98.94,105.63Z"/><path class="cls-38" d="M99.85,87.89a1.91,1.91,0,0,1-1,.87,1.36,1.36,0,0,1-.75.07l-.18,0h0l-3.2-.59s-.7-8.07,4.37-10C99.18,78.25,101,84.27,99.85,87.89Z"/><path class="cls-39" d="M98.81,88.76h0a1.36,1.36,0,0,1-.75.07l-.18,0h0l.31-4.12Z"/><path class="cls-39" d="M80.13,88.73l-.39,1.65a13.2,13.2,0,0,1-.4-2.52Z"/><path class="cls-35" d="M93.46,67s4-.5.06,6.18Z"/><polygon class="cls-32" points="73.07 77.15 72.66 76.45 75.86 75.35 76.27 76.04 73.07 77.15"/><g class="cls-40"><polygon class="cls-41" points="134.1 47.24 136.37 47.24 135.68 45.8 133.41 45.8 134.1 47.24"/><polygon class="cls-42" points="133.04 47.24 133.58 47.24 132.89 45.8 132.35 45.8 133.04 47.24"/><polygon class="cls-43" points="125.21 45.52 134.39 45.52 134.08 44.8 124.9 44.8 125.21 45.52"/></g><rect class="cls-44" x="72.23" y="21.41" width="3.89" height="1.17" rx="0.21"/><rect class="cls-45" x="72.23" y="24.22" width="3.89" height="1.17" rx="0.21"/><rect class="cls-46" x="72.23" y="27.03" width="3.89" height="1.17" rx="0.21"/><rect class="cls-47" x="77.73" y="21.41" width="1.11" height="1.17" rx="0.21"/><rect class="cls-48" x="77.73" y="24.22" width="1.11" height="1.17" rx="0.21"/><rect class="cls-49" x="77.73" y="27.03" width="1.11" height="1.17" rx="0.21"/><polygon class="cls-50" points="63.56 85.89 67.63 85.89 66.38 83.31 62.31 83.31 63.56 85.89"/><polygon class="cls-51" points="61.66 85.89 62.63 85.89 61.38 83.31 60.41 83.31 61.66 85.89"/></g></g></svg>