<svg class="icon" xmlns="http://www.w3.org/2000/svg" viewBox="0 0 125.06 125"><defs><style>.cls-1{fill:#B9308B;}</style></defs><g id="Layer_2" data-name="Layer 2"><g id="Layer_1-2" data-name="Layer 1"><path class="cls-1" d="M113.06,0H12C5.4,0,0,5.66,0,12.57v99.86C0,119.34,5.4,125,12,125H113.06c6.6,0,12-5.66,12-12.57V12.57C125.06,5.66,119.66,0,113.06,0Zm.2,104.62a8.43,8.43,0,0,1-8.2,8.59H20a8.43,8.43,0,0,1-8.19-8.59V20.38A8.43,8.43,0,0,1,20,11.79h85.07a8.43,8.43,0,0,1,8.2,8.59Z"/><path class="cls-1" d="M62.53,28.28A34.22,34.22,0,1,0,96.75,62.5,34.26,34.26,0,0,0,62.53,28.28Zm0,57.2a23,23,0,1,1,23-23A23,23,0,0,1,62.53,85.48Z"/><circle class="cls-1" cx="98.54" cy="28.8" r="7.61"/></g></g></svg>
