<svg xmlns="http://www.w3.org/2000/svg" viewBox="0 0 165 165"><defs><style>.cls-1{fill:none;}.cls-2{fill:#613b78;}.cls-3{fill:#784ba0;}.cls-4{fill:#ffb5bf;}.cls-5{fill:#75c5c3;}.cls-6{fill:#793648;}.cls-7{fill:#8e4458;}.cls-8{fill:#3d2c3c;}.cls-9{fill:#a8546e;}.cls-10{fill:#da83a3;}.cls-11{fill:#2f256a;}.cls-12{fill:#fdb83f;}.cls-13{fill:#d03360;}.cls-14{fill:#88acfa;}.cls-15{fill:#becfff;}.cls-16{fill:#eb3f79;}.cls-17{fill:#4f2d45;}.cls-18{fill:#e2d6e0;}.cls-19{fill:#ff8cb1;}.cls-20{fill:#87a5fd;}.cls-21{fill:#fbfafc;}.cls-22{fill:#f0e9f1;}.cls-23{fill:#e1d7e2;}.cls-24{fill:#749ce2;}.cls-25{fill:#38327c;}.cls-26{fill:#ffebc7;}.cls-27{fill:#50a09a;}.cls-28{fill:#ee7388;}.cls-29{fill:#61afab;}.cls-30{fill:#f9d4af;}.cls-31{fill:#fdd458;}.cls-32{fill:#db5e79;}.cls-33{fill:#fbf6fa;}.cls-34{fill:#ffc0d5;}.cls-35{fill:#ff749e;}</style></defs><g id="Layer_2" ><g id="OBJECTS"><rect class="cls-1" width="165" height="165"/><path class="cls-2" d="M86,55.45c-.42,2.44-1.52,13.87-1.7,15s.25,13.19.25,13.19h2s1.26-8.39,1.35-10c.07-1.34,0-3.35,0-3.35l3.6-14.72Z"/><path class="cls-3" d="M91.37,55.72a20.74,20.74,0,0,1,2.11,4.19c.54,1.62-.39,10-.39,10a18.49,18.49,0,0,1,1.26,2.56c.32,1,2.46,9.73,2.46,9.73L94.94,83S91,73.54,90.55,72.58a19.9,19.9,0,0,1-1.39-4.81C88.86,65.87,86,55.45,86,55.45Z"/><path class="cls-4" d="M78.62,52.14a1.14,1.14,0,0,0,1.25.33c.48-.07,6.39-1.53,6.39-1.53l1-2.68c-.47,0-7.44,2.27-7.44,2.27"/><path class="cls-5" d="M87.76,47.86a5,5,0,0,0-1.43,1,3.89,3.89,0,0,0-1.08,2.69,3.42,3.42,0,0,0,.84,1.73A20,20,0,0,0,86,55.45c.06.28,1.32.72,2.87.75s2.58-.4,2.6-.63.68-2.09,1-3A3.82,3.82,0,0,0,93,49.84C92.6,49,90.75,47.47,87.76,47.86Z"/><path class="cls-6" d="M82.52,45.12a1.57,1.57,0,0,1,0,.78c-.08.09-.42,0-.42,0l0-.51Z"/><path class="cls-6" d="M86.87,46.39c-.77-.46-1.68.2-1.93.23s-.28-.16-.33-.29-.22-.2-.31,0,0,.33-.07.55-.7.29-1.16.15-.82-.46-.82-.64.13-.2.24-.4,0-.33-.18-.25a.55.55,0,0,1-.59,0,1.41,1.41,0,0,0-1.29-.34,2.07,2.07,0,0,0-1.55,1,2.54,2.54,0,0,0-.31,2c.21.84,1,.69,1.3.69a1,1,0,0,1,.81.49c.22.33.41.1.44-.12v0h0a3.74,3.74,0,0,0,0-.68l-.09,0a1.74,1.74,0,0,1,1.31-.2,1.45,1.45,0,0,1,1,.63l-.28,0v.69h0c0,.15.17.27.43.12a.89.89,0,0,1,1.08.27,1.49,1.49,0,0,0,1.72.45A2.88,2.88,0,0,0,87.65,49C87.94,47.61,87.64,46.84,86.87,46.39Z"/><path class="cls-7" d="M87.65,48.28a2.87,2.87,0,0,1-1.39,1.77,1.51,1.51,0,0,1-1.72-.45.87.87,0,0,0-1.08-.27c-.33.18-.49,0-.4-.24s.38-.28.29-.53a1.34,1.34,0,0,0-1-.71c-.58-.15-1.31.07-1.38.29s.2.36.16.58-.22.45-.44.13a.93.93,0,0,0-.81-.49c-.34,0-1.09.14-1.3-.7a2.54,2.54,0,0,1,.31-2,2.06,2.06,0,0,1,1.55-1,1.41,1.41,0,0,1,1.29.33.53.53,0,0,0,.59,0c.13-.08.29.05.18.25s-.24.22-.24.4.35.49.82.64,1,.07,1.16-.15,0-.36.07-.54.25-.11.31,0,.07.33.33.3,1.16-.7,1.93-.24S87.94,46.93,87.65,48.28Z"/><path class="cls-6" d="M83.68,48.1l0,0s0,0,.07,0a1.31,1.31,0,0,0,.27.05c.24,0,.56.06.89.12a1.61,1.61,0,0,1,.25.07.46.46,0,0,1,.13.08.47.47,0,0,1,.09.12.48.48,0,0,1,0,.48.27.27,0,0,1-.15.13.24.24,0,0,1-.14,0l-.08,0h0l.08,0a.22.22,0,0,0,.17-.16.35.35,0,0,0,0-.31s0-.05-.06-.06l0,0,0,0-.22,0a4.8,4.8,0,0,1-.87-.22.84.84,0,0,1-.27-.14C83.69,48.14,83.69,48.1,83.68,48.1Z"/><path class="cls-6" d="M84.13,46.73a.18.18,0,0,1,.1-.07.8.8,0,0,1,.3,0,5,5,0,0,1,.89.09l.22,0s0,0,0,0h0l.07,0a.43.43,0,0,0,.16-.28.23.23,0,0,0-.11-.21s-.06,0-.07,0l0,0h0s0,0,.09,0a.19.19,0,0,1,.12.06.27.27,0,0,1,.1.17.5.5,0,0,1-.16.46.36.36,0,0,1-.12.08.47.47,0,0,1-.16,0,2.06,2.06,0,0,1-.26,0c-.32,0-.63-.14-.86-.19a1.23,1.23,0,0,0-.29,0h-.1Z"/><polygon class="cls-8" points="81.67 46.25 75.37 44.64 75.19 45.31 81.46 47.13 81.67 46.25"/><path class="cls-9" d="M82.66,48.07h0a.11.11,0,0,1-.08-.14l.5-1.65a.12.12,0,0,1,.15-.08.13.13,0,0,1,.08.15L82.77,48A.11.11,0,0,1,82.66,48.07Z"/><polygon class="cls-8" points="86.02 47.34 85.79 48.25 87.22 48.38 87.31 47.86 86.02 47.34"/><polygon class="cls-7" points="75.37 44.64 75.19 45.31 73.34 44.82 73.5 44.13 75.37 44.64"/><circle class="cls-7" cx="73.47" cy="44.86" r="0.31"/><path class="cls-7" d="M74,44.13a.31.31,0,1,1-.31-.31A.31.31,0,0,1,74,44.13Z"/><path class="cls-7" d="M73.5,44.33a.39.39,0,1,1-.39-.39A.38.38,0,0,1,73.5,44.33Z"/><path class="cls-10" d="M87.78,46.88l.16,1.5s1.4.77,2.2-.28l-.23-2.64Z"/><path class="cls-11" d="M89.82,40.66A2.61,2.61,0,0,0,87,40.17a2.44,2.44,0,0,0-1.21,3.68,12.7,12.7,0,0,0,2.57-1.53C89,41.64,89.82,40.66,89.82,40.66Z"/><path class="cls-4" d="M89,40.77a2.6,2.6,0,0,0-2.49,1c-.61,1-.38,1.45-.54,1.71a4.32,4.32,0,0,0-.54,1.27c.07.1.61.2.61.2a4.35,4.35,0,0,0,.3,1.55c.25.48.81.63,2,.21a4.31,4.31,0,0,0,2.76-2.14A2.6,2.6,0,0,0,89,40.77Z"/><path class="cls-11" d="M89,40.77a3.64,3.64,0,0,1-2.77,1.55,1.71,1.71,0,0,1,.9-1.55A2.15,2.15,0,0,1,89,40.77Z"/><path class="cls-11" d="M88.47,40.91a3.22,3.22,0,0,0,.63,3.26L90,45.28s-.89.08-1.37,1.5,1.08,2.69,2,2.79c1.4.15,2.06-.29,2.71.17l-.42,1.86s2.16-.69,2-2.71S93.11,46,92.61,46.11a4.89,4.89,0,0,0,.31-2.94,3.08,3.08,0,0,0-3.62-2.62Z"/><path class="cls-4" d="M89.1,44.17a.82.82,0,0,1,1.08-.32c.63.38.35,1.2-.1,1.57a.71.71,0,0,1-1,0Z"/><polygon class="cls-8" points="84.13 38.74 84.33 39.1 79.33 57.3 78.95 57.3 84.13 38.74"/><path class="cls-4" d="M92.78,49.13c.42.22.88.82.4,1.86a63.56,63.56,0,0,1-4,5.68.91.91,0,0,1-1,.46c-.66,0-4.51-.74-5.07-.82a1.6,1.6,0,0,0-1.19.12,9.55,9.55,0,0,1-2.32.34c-.56,0-.84,0-.88-.16s.44-.27.84-.41.92-.27.92-.27a8.08,8.08,0,0,0-1.24-.22c-.46,0-.69,0-.53-.35a4.09,4.09,0,0,1,2.45-1,5,5,0,0,1,2,.4c.6.12,4.49.3,4.49.3l3.07-4.43C91.08,50,92.1,48.77,92.78,49.13Z"/><path class="cls-4" d="M79.87,50.53,77.52,47a.92.92,0,0,0,.17-.62,1.39,1.39,0,0,1,.06-.82c.1-.25.59-.83.33-.82s-.72.6-.72.6a3.07,3.07,0,0,1,.33-.75c.19-.24.33-.47.07-.44a.65.65,0,0,0-.4.22s.31-.39,0-.4-.79.79-1,1.23a2.1,2.1,0,0,1,0-.73c.07-.25.26-.5.24-.62s-.34,0-.61.51a4.52,4.52,0,0,0-.19,2.1c.08.31,2.42,5.27,2.78,5.71"/><path class="cls-11" d="M86.55,83.69v1.17h-6c-.73,0-.81-.37,0-.59s4-.58,4-.58Z"/><path class="cls-11" d="M96.81,82.25,94.94,83l-1.26.71s-1.67.52-2.06.58-.74.49.06.49h2.47l2.95-1.51Z"/><path class="cls-12" d="M29.09,92l2.25,3.15a.35.35,0,0,1-.57.4h0l-2.11-3.24a.26.26,0,0,1,.08-.37A.28.28,0,0,1,29.09,92Z"/><path class="cls-13" d="M26.26,91.11a37.28,37.28,0,0,1,2.61,3.54c.67.92,2.18,3.17,2.18,3.17l-.76,2.26-4.68-5Z"/><path class="cls-14" d="M25.37,99.7c.41,2.38,1.3,13.6,1.47,14.75s-.23,12.89-.23,12.89H24.68s-1.23-8.19-1.32-9.82c-.07-1.31,0-3.27,0-3.27l-4.3-14.38Z"/><path class="cls-15" d="M19.06,99.87a12.47,12.47,0,0,0-.58,3.94c0,2.15-.49,10.61-.49,10.61a13.35,13.35,0,0,0-1.33,3c-.23,1-1.94,8.91-1.94,8.91l1.85.51s3.88-9,4.32-9.93A21.49,21.49,0,0,0,22.3,112c.29-1.85,3.07-12.33,3.07-12.33Z"/><path class="cls-11" d="M24.68,127.34v1.14h5.84c.71,0,.79-.36,0-.57s-3.91-.57-3.91-.57Z"/><path class="cls-11" d="M14.72,126.35l1.85.51,1.22.48s1.62.51,2,.57.73.47-.05.47H17.32l-2.88-1Z"/><path class="cls-16" d="M21.88,90a8.91,8.91,0,0,0-1.66.34A6.6,6.6,0,0,0,18.5,91a67,67,0,0,0,.56,8.92,7.38,7.38,0,0,0,3.65.8,3.3,3.3,0,0,0,2.69-1s.66-5.47.79-6.53a12.36,12.36,0,0,0,.07-2,13,13,0,0,0-2.05-.92Z"/><path class="cls-11" d="M21.11,90.07c.34.58.46,3.42.5,4.5a6.38,6.38,0,0,0,3.24,0,32.3,32.3,0,0,0-.15-4.21l.67.3s.56,6.39,0,9c-1.19,1.14-2.82,1.35-4.85.74,0,0,.17-2.64.26-5.17a26.67,26.67,0,0,0-.38-5Z"/><path class="cls-11" d="M19,99.64s4.52,1.09,6.45-.26c0,0,1.43,16.27,1.07,16.69-.85,1-5.84,1.3-7.09.43-.38-.26,1-15.69,1-15.69a6,6,0,0,1-1.54-.37A3.88,3.88,0,0,1,19,99.64Z"/><path class="cls-17" d="M26.63,85.62c.53-.15,1-1.09.84-1.41s-.53-.21-.76-.19a1.69,1.69,0,0,0,.36-.59c.09-.31.09-.47-.08-.51a4.42,4.42,0,0,1-1.48.06,6.1,6.1,0,0,0-2.8-.19c-.83.27-1.33.72-1.35,1.44a1.93,1.93,0,0,0-1.11.93,2.1,2.1,0,0,0,.39,2.19.8.8,0,0,1,.25.8c0,.29.23.58.71.3,0,0-.08.39.09.47s.44-.11.44-.11l.32-1.46Z"/><path class="cls-10" d="M24.6,88.83l-.52,1.81S22.3,91,21.88,90l.57-2.6Z"/><path class="cls-4" d="M23.72,83.25a2.35,2.35,0,0,1,2.43,1,4.78,4.78,0,0,1,.53,1.66,6.8,6.8,0,0,1,0,.94,5.78,5.78,0,0,1-.17,1.37,2.83,2.83,0,0,1-.22.64,1.68,1.68,0,0,1-2.22.7,2.3,2.3,0,0,1-1.44-1.93c-.38-.31-.65-.29-.91-.65C20.46,85.17,22.23,83.32,23.72,83.25Z"/><path class="cls-10" d="M25.86,86.23c0-.06-.13,0-.13,0,0,.27,0,.53,0,.8a1,1,0,0,1,0,.43c-.06.11-.21.17-.31.24s.05.07.07.06c.28,0,.46-.16.46-.46A4,4,0,0,0,25.86,86.23Z"/><path class="cls-17" d="M22.71,86.37V87s.5,0,.53-.62a6.81,6.81,0,0,0,0-.91,3.53,3.53,0,0,0,2.82-1.32S25.8,82.82,23.71,83a2.71,2.71,0,0,0-2.65,2.41,1.58,1.58,0,0,0,1.39,1.94Z"/><path class="cls-4" d="M22.71,86.37a.8.8,0,0,0-1.05-.31c-.61.37-.34,1.18.1,1.53a.68.68,0,0,0,.95,0Z"/><path class="cls-13" d="M18.76,90.8c-1.12.38-2.05,2.12-2.94,3.93s-1.82,4.32-1.71,5c.09.51,5.58,4,5.58,4l.86-1.24c-3.88-3.7-3.8-3.6-4-3.74.07-.2,1.77-2.84,2.17-3.7S19.73,91.59,18.76,90.8Z"/><path class="cls-18" d="M20.86,101.34c-.95.64-1.45.34-2.57.7s-1.25,2.57,1.06,3.27,4.78-.15,5.49-2.12a2.46,2.46,0,0,0-1.6-3.45C22.13,99.44,21.68,100.8,20.86,101.34Z"/><path class="cls-4" d="M22.11,101.87a1.27,1.27,0,0,0-1.28.2c-.3.34-.18.93.64,1.06a3.34,3.34,0,0,0,2.2-.89c.32-.32.4-.86-.16-.7A5.2,5.2,0,0,1,22.11,101.87Z"/><path class="cls-19" d="M18.72,103.52a.52.52,0,1,1,.52.51A.51.51,0,0,1,18.72,103.52Z"/><path class="cls-20" d="M20.61,104.44a.5.5,0,0,1,.5-.5.5.5,0,0,1,.5.5.51.51,0,0,1-.5.5A.5.5,0,0,1,20.61,104.44Z"/><circle class="cls-12" cx="23.05" cy="103.81" r="0.42"/><polygon class="cls-21" points="40.37 107.17 29.61 107.85 28.87 107.17 31.89 86.19 43.39 86.19 44.13 86.87 40.37 107.17"/><polygon class="cls-22" points="41.1 107.85 29.61 107.85 32.63 86.87 44.13 86.87 41.1 107.85"/><polygon class="cls-23" points="31.89 86.19 32.63 86.87 29.61 107.85 28.87 107.17 31.89 86.19"/><path class="cls-12" d="M40.31,107.85h0a.87.87,0,0,1-.88.87H30.91a.87.87,0,0,1-.88-.87H40.31Z"/><path class="cls-17" d="M38.34,113.21H29.67a.53.53,0,0,1,0-1.06h8.67a.53.53,0,0,1,0,1.06Z"/><path class="cls-17" d="M46.12,128.65a.27.27,0,0,1-.26-.22L40.57,98.27H33.45l5.28,30.07a.26.26,0,0,1-.22.3.25.25,0,0,1-.3-.21L32.82,97.74H41l5.37,30.6a.25.25,0,0,1-.21.3Z"/><path class="cls-17" d="M35.17,128.65h0a.26.26,0,0,1-.22-.3l5.28-30.07H33.07l-5.3,30.16a.25.25,0,0,1-.3.21.26.26,0,0,1-.22-.3l5.37-30.6h8.2l-5.39,30.69A.26.26,0,0,1,35.17,128.65Z"/><path class="cls-17" d="M41.3,98.54H32.63a.53.53,0,0,1,0-1.06H41.3a.53.53,0,0,1,0,1.06Z"/><path class="cls-24" d="M99.88,107.18a1.88,1.88,0,0,0-1.6.9c-.29.72-1.93,4.58-1.93,4.58l1.36,1.4,2.79-6.14Z"/><path class="cls-11" d="M99.09,115.87c-.42,2.39-1.64,13.6-1.81,14.75s.24,12.88.24,12.88h1.92s1.23-8.19,1.32-9.81c.07-1.31,0-3.27,0-3.27L104.28,116Z"/><path class="cls-11" d="M99.44,143.5v1.15H93.6c-.7,0-.78-.36,0-.58s3.92-.57,3.92-.57Z"/><path class="cls-11" d="M106,143.5v1.15h-5.85c-.7,0-.78-.36,0-.58s3.92-.57,3.92-.57Z"/><path class="cls-25" d="M104.55,115c.7,1.4,1.64,2.48,1.64,4.77s-.86,10.65-.86,10.65A5.13,5.13,0,0,1,106,133V143.5h-1.72s-1.91-9.81-2.28-12.45c-.31-2.22-2.56-15.24-2.56-15.24Z"/><path class="cls-4" d="M91.1,113.2c-.22,0-.23,0-.37-.48s0-1.29-.52-1.37-1.31,3.41-1.31,3.41a1.45,1.45,0,0,0,.91.26c.53,0,1.08,0,1.08,0Z"/><path class="cls-24" d="M98.11,108.49l-1.76,4.08-5.25.63a4.69,4.69,0,0,0-.21,1.82s4.56,0,5.46-.09c.7-.06,1,0,1.37-.53s1.51-2.32,1.51-2.32Z"/><path class="cls-17" d="M96.39,114.1h0a.35.35,0,0,1-.47-.13l-4.37-7.89a.35.35,0,0,1,.13-.47h0a.35.35,0,0,1,.47.13l4.37,7.89A.33.33,0,0,1,96.39,114.1Z"/><path class="cls-4" d="M95.69,110.73a2.06,2.06,0,0,1-.43-.91c-.18-.53-.11-.91-.69-1.15a1,1,0,0,0-.82,0l.33.61a4.57,4.57,0,0,0-1.48.72c-.37.38-.13,1.18.29,1.58a9,9,0,0,0,2.13.8Z"/><path class="cls-15" d="M100.12,107.11c-.64.09-2.48,2.06-2.73,3.4-.21,1.17,1.7,5.36,1.7,5.36a5.63,5.63,0,0,0,3.13.12,5,5,0,0,0,2.33-1s-.44-3.6-.51-5.15a3.2,3.2,0,0,0-1.83-3.12Z"/><path class="cls-17" d="M97.62,109.86a2.63,2.63,0,0,0-.32,1.8,21.76,21.76,0,0,0,1.79,4.21,6.22,6.22,0,0,0,3.87-.07s-1.15-4.28-1.39-6A16.87,16.87,0,0,1,97.62,109.86Z"/><path class="cls-14" d="M103.17,107.52c-.63-.33-1.6.19-1.92,1.19s-1,3.75-1,3.75l-4.55-1.73a2.14,2.14,0,0,0-.67,1.6s4.46,2.37,5.94,2.87c.59.2,1.08,0,1.47-.92a35.76,35.76,0,0,0,1.33-4.69C103.86,108.82,104,107.92,103.17,107.52Z"/><path class="cls-26" d="M94.26,107.5A6.61,6.61,0,0,1,92,108.77a.46.46,0,0,1-.47-.14,3.61,3.61,0,0,1-.72-1.3.45.45,0,0,1,.12-.48,7.09,7.09,0,0,1,2.26-1.26.44.44,0,0,1,.48.14,4.1,4.1,0,0,1,.72,1.29A.43.43,0,0,1,94.26,107.5Z"/><path class="cls-17" d="M90.14,110.45l.1,0a1,1,0,0,1,.17.12c.12.08,0,.14,0,.23l-.23.71c-.1.3-.21.65-.34,1s-.26.76-.41,1.15c-.28.78-.59,1.56-.84,2.14s-.44,1-.44,1,.06-.42.18-1,.3-1.44.5-2.24c.1-.41.22-.81.32-1.19s.2-.72.29-1l.21-.73c0-.08,0-.17.15-.17a1.47,1.47,0,0,1,.21,0Z"/><path class="cls-17" d="M91.33,111.06l-2.43-.76h0a.61.61,0,0,1,.76-.4l1.27.4a.6.6,0,0,1,.4.76Z"/><path class="cls-4" d="M89.29,111.93a.78.78,0,0,0-.8.21,2.14,2.14,0,0,0-.5,2.19,1.32,1.32,0,0,0,1.49.74,1.56,1.56,0,0,0,.66-1.39,6.39,6.39,0,0,0-.25-1.17.77.77,0,0,1-.51-.2A.43.43,0,0,1,89.29,111.93Z"/><path class="cls-17" d="M103,115.8s.8,14.29.86,14.53-2.42.74-4.17.67a7,7,0,0,1-3.27-.81c-.24-.2,1.07-10.81,2.71-14.32Z"/><path class="cls-17" d="M99.67,107.18a5.53,5.53,0,0,0-1.9,2.71s.08.16.5,0a6.22,6.22,0,0,1,1.85-2.76A.7.7,0,0,0,99.67,107.18Z"/><path class="cls-10" d="M99.37,106.53l1,1.33s.19.4,1.87-1l-1.33-2Z"/><path class="cls-17" d="M102.21,106.74a4.61,4.61,0,0,0-2.18,3.18s.08.17.5,0a4.22,4.22,0,0,1,2.15-3A.45.45,0,0,0,102.21,106.74Z"/><path class="cls-17" d="M98.36,100.26a2.72,2.72,0,0,0-2,1c-.9,1-.41,2.87.76,2.94S98.36,100.26,98.36,100.26Z"/><path class="cls-4" d="M99.08,100.47A2.55,2.55,0,0,0,97,102.12a4.38,4.38,0,0,0,0,1.75,3.89,3.89,0,0,0-.16,1.34,1.86,1.86,0,0,0,.62,0,4.21,4.21,0,0,0,.71,1.38c.36.39.93.37,2-.35a1.66,1.66,0,0,0,.85-1.39c.27-.4,1.05-.82,1.16-1.37A2.54,2.54,0,0,0,99.08,100.47Z"/><path class="cls-17" d="M100.07,103.65l.1.34s-.37.13-.46-.32a3.94,3.94,0,0,1,0-1.06,1.87,1.87,0,0,1-2.4-1.1,1.93,1.93,0,0,1,1-1.19,2.8,2.8,0,0,1,3.45.38,3.63,3.63,0,0,1-.17,5,1.5,1.5,0,0,1-.59-.88Z"/><path class="cls-4" d="M100.07,103.65s.23-.77.92-.59.66,1,.34,1.49a.69.69,0,0,1-.92.27Z"/><path class="cls-17" d="M103,100.87a1.63,1.63,0,1,1-.7-2A1.52,1.52,0,0,1,103,100.87Z"/><path class="cls-17" d="M102.88,115.5a4.93,4.93,0,0,0,1.63-.8,1.07,1.07,0,0,1,.29.8,3.57,3.57,0,0,1-1.84.82Z"/><path class="cls-22" d="M90.1,138.71H71.93V100.92H90.1v2.24c0,.48,0,1,0,1.44,0,.67-.34.78-.79,1.17a9,9,0,0,1-1.9,1.27,3.79,3.79,0,0,0-.82.49,2.9,2.9,0,0,0-.69,1.25,1.07,1.07,0,0,0-.09.43.91.91,0,0,0,.19.44,4.87,4.87,0,0,1,.82,1.29,3,3,0,0,1-.43,2,2.31,2.31,0,0,0-.21,2c.13.26.36.46.51.71.28.51.24,1.2.68,1.58a2.15,2.15,0,0,0,.89.38A1.64,1.64,0,0,1,89,118a2.85,2.85,0,0,0,.77.43c.57.28.36,1.17.36,1.7Z"/><polygon class="cls-23" points="71.93 100.92 74.91 102.57 74.91 136.89 90.1 138.71 71.93 138.71 71.93 100.92"/><rect class="cls-25" x="73.98" y="138.71" width="14.1" height="5.93"/><rect class="cls-11" x="73.98" y="138.71" width="14.1" height="1.6"/><path class="cls-17" d="M137.2,45.09h9.92a.78.78,0,0,0,.77-.77h0a.78.78,0,0,0-.77-.77H137.2a.78.78,0,0,0-.77.77h0A.78.78,0,0,0,137.2,45.09Z"/><path class="cls-17" d="M144.85,56.78h0a.54.54,0,0,0,.54-.53V44.77h-1.07V56.25A.53.53,0,0,0,144.85,56.78Z"/><rect class="cls-17" x="136.93" y="50.77" width="7.92" height="0.68" transform="translate(281.78 102.23) rotate(180)"/><path class="cls-12" d="M127,55.89l-4.89-3.27a1,1,0,0,0-1.38.3h0l5.2,3.47a.62.62,0,0,0,.88-.19Z"/><path class="cls-12" d="M120.52,56.78h5.7a.39.39,0,0,0,.39-.39h-6.09a.19.19,0,0,0-.2.19h0A.2.2,0,0,0,120.52,56.78Z"/><path class="cls-27" d="M135.67,28.27c-.54.26-1.14,1.17-1.87,3.07s-1.89,4.53-1.89,4.53l-1.76.8.64,2.41A12.3,12.3,0,0,0,134,37.83a44.61,44.61,0,0,0,2.24-4.75Z"/><path class="cls-2" d="M142.12,39.93h-5.25s-5.22,1.31-5.64,1.45a2,2,0,0,0-1.27,1.3c-.38.89-4.48,10.83-4.48,10.83l1.61,1.07s4.37-5.75,4.9-7c.62-1.51,1.06-3,1.06-3h9.07Z"/><path class="cls-3" d="M146.46,39.93c.08,1,.8,2.87-.86,4-.93.67-6.73,1.11-6.73,1.11a14.27,14.27,0,0,1,0,3.44c-.18,1.79-1.22,7.1-1.22,7.1h-1.89s-.22-11-.26-12.17.55-1.64,1.95-2.12,4.67-1.41,4.67-1.41Z"/><path class="cls-28" d="M129,45.35h-2.28c-2.64-2.55-2.09-6.27-.34-8.76a6.75,6.75,0,0,0,1.29-3.74.64.64,0,0,0-.37-.58l-.35-.16a.63.63,0,0,1-.37-.57v-.33h4.85v.33a.63.63,0,0,1-.37.57l-.35.16a.64.64,0,0,0-.37.58,6.75,6.75,0,0,0,1.29,3.74c1.75,2.49,2.3,6.21-.34,8.76H129"/><rect class="cls-17" x="128.58" y="46.12" width="0.86" height="9.67" transform="translate(258.03 101.92) rotate(180)"/><rect class="cls-23" x="123.06" y="45.35" width="11.91" height="1.55" rx="0.45" transform="translate(258.03 92.25) rotate(180)"/><path class="cls-23" d="M132.14,55.79h-6.25a1,1,0,0,0-1,1h8.22A1,1,0,0,0,132.14,55.79Z"/><path class="cls-11" d="M137.65,55.63v1.15h-5.84c-.71,0-.79-.36,0-.57s3.91-.58,3.91-.58Z"/><path class="cls-11" d="M127.09,54.58l-.64,1-4.86-3.25c-.59-.39-.45-.73.32-.47s3.57,1.69,3.57,1.69Z"/><path class="cls-5" d="M138.61,27.24a7.3,7.3,0,0,1,3,.65c.68.46,2.52,4.61,3.65,7.84a20.6,20.6,0,0,1,1.21,4.2h-9.59s-.84-3-1.49-6c-.87-3.93-.12-5.07.11-5.47a2,2,0,0,1,.84-.67Z"/><path class="cls-11" d="M133.11,41.28a19.73,19.73,0,0,1,6.54,1.37s4.24-.06,4.86-1.65c.5-1.27-.59-5.38-.59-5.38l1.17-.36a2.39,2.39,0,0,0-.5-1.32s-1.41.34-1.9.38-2.14-.25-3.05-4.66l-4,.51a.33.33,0,0,0-.3.33,25.9,25.9,0,0,0,.13,3.86c.24,2.19.4,4.22,0,4.81a6.7,6.7,0,0,1-2.4,1.5A4.14,4.14,0,0,1,133.11,41.28Z"/><path class="cls-11" d="M139.38,27.3a5.51,5.51,0,0,0-.22,2.43,1,1,0,0,1-.63.07,5.11,5.11,0,0,1,.21-2.56A.56.56,0,0,1,139.38,27.3Z"/><path class="cls-11" d="M136.43,27.81a5.64,5.64,0,0,0-.21,2.48,1,1,0,0,1-.64.07,5.84,5.84,0,0,1,.08-2.26A.65.65,0,0,1,136.43,27.81Z"/><path class="cls-17" d="M133.12,23.89a2.23,2.23,0,0,1-1.38-2.28c0-.16.07-.35.23-.39a.43.43,0,0,1,.16,0,2.79,2.79,0,0,0,1.59-.14,6.07,6.07,0,0,1,2.71-.72c.87.11,1.45.46,1.6,1.16a1.25,1.25,0,0,1,1.17.58,3.15,3.15,0,0,1,.14,2.34,1.37,1.37,0,0,0-.1.84c.07.28-.11.61-.64.43,0,0,.15.36,0,.48s-.45,0-.45,0l-.59-1.38Z"/><path class="cls-10" d="M135.73,26.66l.85,1.67s1.81,0,2-1.09l-1.05-2.45Z"/><path class="cls-4" d="M135.53,21c-.72.11-1.89.34-2.19,1.45a5.14,5.14,0,0,0-.21,1.74,8.79,8.79,0,0,0,.15.93,6.09,6.09,0,0,0,.43,1.31,2.84,2.84,0,0,0,.34.59,1.59,1.59,0,0,0,2.26.18,2,2,0,0,0,1.1-2.09c.31-.37.58-.41.77-.81C139.1,22.28,137,20.8,135.53,21Z"/><path class="cls-10" d="M134,24.34c0-.05.13-.06.14,0,0,.26.09.52.13.79a1,1,0,0,0,.11.42c.08.09.24.12.35.18s0,.07-.06.07c-.28,0-.48-.08-.54-.37A4,4,0,0,1,134,24.34Z"/><path class="cls-17" d="M137.11,23.89l.12.6s-.48.11-.63-.5a5.55,5.55,0,0,1-.18-.9s-2.26.64-3.22-.75c0,0,.21-1.35,2.3-1.57a2.72,2.72,0,0,1,3.06,1.86,1.58,1.58,0,0,1-1,2.16Z"/><path class="cls-4" d="M137.11,23.89s.3-.75,1-.5.56,1.08.2,1.51a.68.68,0,0,1-.94.18Z"/><path class="cls-4" d="M131.47,35.91a1.24,1.24,0,0,1-1-.3c-.26-.3-.65-.67-.89-1s-.46-.39-.54,0,.2.89.13,1-1-.23-1.35-.67-.54-.63-.73-.15a2.45,2.45,0,0,0,.44,2.41c.71.72,2.73,1,4,.8Z"/><path class="cls-29" d="M141.24,27.71c.58.35,1.12,1,.76,2.83a59.77,59.77,0,0,1-2.36,6.76c-.15.4-.86.76-1.8.8s-6.28,0-6.28,0a2.27,2.27,0,0,1-.09-2.19l5.64-.51s1.32-4.17,1.76-5.52S139.94,26.92,141.24,27.71Z"/><path class="cls-4" d="M125.71,37.75a1.8,1.8,0,0,0,.66,1.26c.6.56,1,1.17.19,1.63a1.39,1.39,0,0,1-1.65-.19,2.23,2.23,0,0,1-.27-2.08,4.36,4.36,0,0,1,.86-1.56c.23-.42.51-.52.6-.33a.56.56,0,0,1,.05.47S125.78,37.6,125.71,37.75Z"/><path class="cls-28" d="M113.14,50.16c.48-.84.35-.84.06-1.26a.47.47,0,0,0-.38-.19h-.16a.46.46,0,0,1-.47-.46h0a.47.47,0,0,1,.47-.47h6.24a.47.47,0,0,1,.47.47h0a.46.46,0,0,1-.47.46h-.16a.47.47,0,0,0-.38.19c-.29.42-.42.42.06,1.26S120,52.07,120,53.9c0,2.88-2.78,2.88-3.73,2.88h-.88c-1,0-3.73,0-3.73-2.88C111.61,52.07,112.58,51.13,113.14,50.16Z"/><path class="cls-4" d="M128.52,85.07c-.18-.29-.3-.87-1-.89a9.05,9.05,0,0,1-2.65-.12c-.92-.28-1.24-.94-1.49-.63s.27,1.33.8,1.64a17.42,17.42,0,0,0,2.69.62,1.1,1.1,0,0,1,.34.26Z"/><path class="cls-30" d="M140.36,85.33c-.85,0-8,3.34-8,3.34l-3.87-3.6a1.49,1.49,0,0,0-1.31.88s3.89,4.81,4.29,5.27,1.17.28,1.95,0,5.7-2.39,5.7-2.39Z"/><path class="cls-3" d="M140.87,85.33a1.5,1.5,0,0,0-1.69-.57,3.36,3.36,0,0,0-1.58,3.95c.59,1.58,1.77,1.46,1.77,1.46Z"/><path class="cls-14" d="M139,95c-.41,2.39-1.3,13.61-1.47,14.76s.24,12.88.24,12.88h1.92s1.23-8.19,1.32-9.81c.07-1.31,0-3.27,0-3.27l4.31-14.39Z"/><path class="cls-15" d="M145.33,95.14a12.84,12.84,0,0,1,.58,4c0,2.14.48,10.6.48,10.6a13.42,13.42,0,0,1,1.34,3c.23,1,1.93,8.92,1.93,8.92l-1.85.51s-3.87-9-4.32-9.93a22.18,22.18,0,0,1-1.41-4.9C141.79,105.45,139,95,139,95Z"/><path class="cls-3" d="M145.29,95c1.17,0,2.12,1.51,2.36,2.55s-.47,4.27-5.49,4.18-5.51-3-5.31-4.33A2.67,2.67,0,0,1,139,95Z"/><path class="cls-31" d="M142.71,95h1.54a5.58,5.58,0,0,1,.66,6.35,7.58,7.58,0,0,1-1.53.33S144.41,99.11,142.71,95Z"/><path class="cls-31" d="M139.76,95h1.11a11.05,11.05,0,0,0,0,6.63h0a7.29,7.29,0,0,1-1.33-.3,5.82,5.82,0,0,1-.85-3.67C138.93,95.54,139.75,95,139.76,95Z"/><path class="cls-11" d="M139.7,122.61v1.15h-5.84c-.7,0-.78-.36,0-.58s3.92-.57,3.92-.57Z"/><path class="cls-11" d="M149.66,121.63l-1.85.51-1.21.47s-1.63.51-2,.57-.73.48.06.48h2.41l2.88-1Z"/><path class="cls-14" d="M140.36,85.33c-.61.27-1.54,1.82-1.84,3.22A17,17,0,0,0,139,95s1.2,1.75,6.32.17L145,93.83c-.17-.68.6-4.53.78-5.53s.23-1.4-.29-1.79a18.07,18.07,0,0,0-2.81-1.18Z"/><path class="cls-11" d="M145.16,79.49a1.83,1.83,0,1,0-1.83,1.83A1.83,1.83,0,0,0,145.16,79.49Z"/><path class="cls-10" d="M140.29,84.07l.1,1.87s1.66.72,2.3-.18l0-2.67Z"/><path class="cls-4" d="M142.38,78.82a2.36,2.36,0,0,0-2.6.45,5.29,5.29,0,0,0-.89,1.51c-.07.21-.16.59-.23.91a5.74,5.74,0,0,0-.14,1.37,3.72,3.72,0,0,0,.08.68,1.66,1.66,0,0,0,2,1.17,2.34,2.34,0,0,0,1.84-1.57c.43-.21.7-.13,1-.43C145.13,81.41,143.82,79.21,142.38,78.82Z"/><path class="cls-10" d="M139.63,81.25s.14,0,.13,0c-.08.25-.13.51-.2.77a1.08,1.08,0,0,0-.07.43c0,.12.17.21.25.3s-.06.06-.08,0c-.26-.11-.42-.27-.35-.55A4.13,4.13,0,0,1,139.63,81.25Z"/><path class="cls-17" d="M142.67,82.09l-.14.6s-.48-.1-.37-.72a5.32,5.32,0,0,1,.2-.89,3.54,3.54,0,0,1-2.46-1.92s.54-1.22,2.55-.58a2.7,2.7,0,0,1,2.05,2.93,1.58,1.58,0,0,1-1.79,1.58Z"/><path class="cls-3" d="M143.29,81.8A11.66,11.66,0,0,0,141.1,80a1.69,1.69,0,0,0-1.75-.14,1.69,1.69,0,0,1-1-1.64,1.77,1.77,0,0,1,2.48-1.39c1.28.45,2,1.43,3.1,2.15s2.77,1.26,3,2.72a1.87,1.87,0,0,1-3.15,1.49Z"/><path class="cls-16" d="M145.79,80.12a4.1,4.1,0,0,1,1.65-.45l.82.22-.75.3a11.37,11.37,0,0,1,1.33,0A3.43,3.43,0,0,1,150.63,82a4.27,4.27,0,0,1,.18,2.31c0,.2-.39,0-.79-.25a7.85,7.85,0,0,1-1.83-1.25,4.93,4.93,0,0,1-.73-1L147.4,81l-.24.71A3.08,3.08,0,0,1,145.79,80.12Z"/><path class="cls-31" d="M141.37,77.09a7.58,7.58,0,0,1,1.22.85,1.94,1.94,0,0,0-1.77,1.92h0a1.72,1.72,0,0,0-1.18-.12h0a2.58,2.58,0,0,1,.12-1.77A1.87,1.87,0,0,1,141.37,77.09Z"/><path class="cls-31" d="M144.25,79.2c.37.22.76.42,1.13.65,0,0,1.14,2.29-1.67,3.34l-.42-1.39a4.08,4.08,0,0,0,1-2.6Z"/><path class="cls-4" d="M142.67,82.09a.78.78,0,0,1,1.09-.07c.52.49.07,1.22-.43,1.47a.69.69,0,0,1-.93-.22Z"/><path class="cls-3" d="M145.16,91.77s-.53.32-1.17-.35a3.94,3.94,0,0,1-.56-3.56c.4-1.53,1.53-2.34,2.73-1.94a1.94,1.94,0,0,1,.72,2.91Z"/><path class="cls-4" d="M140.54,95.26a3.19,3.19,0,0,1-1.12-.49c-.36-.26-.82-.59-1-.46s0,.5.21.77,0,.26-.17.26a6.25,6.25,0,0,1-1.51-.46c-.41-.19-.86,1-.16,1.81s2.9.71,4,.34Z"/><path class="cls-26" d="M145.16,91.77a5.06,5.06,0,0,1-.64-1.7c0-.93.61-2.43,1.27-2.36s1.48,1.82,2.17,3.15a36.34,36.34,0,0,1,1.92,4.94c.12.59-.47,1-1.4,1.18s-7.62,0-7.62,0a2.37,2.37,0,0,1-.32-1.77l5.72-1Z"/><path class="cls-26" d="M125.92,79.45a2.27,2.27,0,0,1,2.22,1.78h0a9.25,9.25,0,0,1,.09,2.46c0,.23-.75.49-1.37.51A1.17,1.17,0,0,1,126,84h-.09a2.27,2.27,0,0,1,0-4.53Z"/><path class="cls-30" d="M126,83.53a1.09,1.09,0,0,0-.45-.24c-.05,0-.07,0-.08,0s0,0,0,0a.84.84,0,0,1-.65-.42.56.56,0,0,1,.1-.69.85.85,0,0,0,.47.15.74.74,0,0,1,.18,0,.92.92,0,0,1,.42.16.7.7,0,0,1,.25.36A.6.6,0,0,1,126,83.53Z"/><path class="cls-17" d="M126.57,81.52a.6.6,0,0,1,.37.71.63.63,0,0,1-.69.25.55.55,0,0,1-.49-.5C125.7,81.67,126.09,81.4,126.57,81.52Z"/><path class="cls-17" d="M127.71,82.28c-.12,0-.24-.38-.19-.65a.41.41,0,0,1,.45-.32c.13,0,.17.41.16.57A.38.38,0,0,1,127.71,82.28Z"/><path class="cls-17" d="M127.33,82.5c.1,0,.38.45.36.58s-.18.12-.18.12l-.12-.32,0,.32s-.21.11-.28,0S127.33,82.5,127.33,82.5Z"/><path class="cls-10" d="M29.26,34.11c.39,0,6.46,4.16,6.46,4.16l6-.85L42,39.06s-6.33,1.7-6.77,1.74-6.08-3.45-6.08-3.45Z"/><rect class="cls-32" x="47.04" y="46.47" width="1.2" height="3.67"/><path class="cls-28" d="M52.38,51.72H42.9a1.63,1.63,0,0,1,1.63-1.63h6.22a1.63,1.63,0,0,1,1.63,1.63Z"/><path class="cls-28" d="M54.33,46.47H41a1.59,1.59,0,0,1-1.59-1.58H55.92A1.59,1.59,0,0,1,54.33,46.47Z"/><path class="cls-33" d="M55.09,44.89H40.19A14.79,14.79,0,0,1,40,39.25a1.25,1.25,0,0,1,1.06-1,49,49,0,0,1,13.14,0,1.25,1.25,0,0,1,1.07,1.08A17.27,17.27,0,0,1,55.09,44.89Z"/><path class="cls-33" d="M53,39.06H42.3a15.19,15.19,0,0,1-.19-5.64,1.27,1.27,0,0,1,1.06-1,30.24,30.24,0,0,1,9,0,1.29,1.29,0,0,1,1.08,1.08A17.56,17.56,0,0,1,53,39.06Z"/><path class="cls-33" d="M50.86,33.92H44.45a19.41,19.41,0,0,1-.11-5,.74.74,0,0,1,.63-.6,18.1,18.1,0,0,1,5.35,0A.79.79,0,0,1,51,29,22.85,22.85,0,0,1,50.86,33.92Z"/><path class="cls-34" d="M55.27,39.32a1.25,1.25,0,0,0-1.07-1.08,49,49,0,0,0-13.14,0,1.25,1.25,0,0,0-1.06,1c0,.22-.07.45-.1.67a2.55,2.55,0,0,0,3.39-.06s.55,1.57,1.9,1.51a2.61,2.61,0,0,0,2.45-1.51s.25,1.61,2.48,1.48c1.32-.07,1.93-1.71,1.93-1.71s1.51,1.78,3.32.63C55.35,39.94,55.31,39.63,55.27,39.32Z"/><path class="cls-35" d="M41.2,37.8a.77.77,0,1,1,.76.77A.77.77,0,0,1,41.2,37.8Z"/><path class="cls-35" d="M46.85,37.34a.77.77,0,1,1,.76.76A.76.76,0,0,1,46.85,37.34Z"/><path class="cls-35" d="M43.92,37.34a.77.77,0,1,1,.76.76A.76.76,0,0,1,43.92,37.34Z"/><path class="cls-35" d="M54,37.8a.77.77,0,1,0-.76.77A.77.77,0,0,0,54,37.8Z"/><circle class="cls-35" cx="50.55" cy="37.34" r="0.77"/><path class="cls-34" d="M53.21,33.49a1.29,1.29,0,0,0-1.08-1.08,30.24,30.24,0,0,0-9,0,1.27,1.27,0,0,0-1.06,1c0,.28-.08.56-.11.83.73.5,2.17,1,3.84-.72,0,0,.19,1.18,1.8,1.18a1.65,1.65,0,0,0,1.8-1.29s1.9,2.11,3.85.75C53.27,33.94,53.24,33.72,53.21,33.49Z"/><path class="cls-35" d="M46.85,31.57a.77.77,0,1,1,.76.77A.77.77,0,0,1,46.85,31.57Z"/><path class="cls-35" d="M46.85,27.67a.77.77,0,1,1,.76.77A.77.77,0,0,1,46.85,27.67Z"/><path class="cls-35" d="M52.08,31.8a.77.77,0,1,0-.77.76A.76.76,0,0,0,52.08,31.8Z"/><path class="cls-35" d="M43.15,31.8a.77.77,0,1,1,.77.76A.76.76,0,0,1,43.15,31.8Z"/><path class="cls-34" d="M51,29a.79.79,0,0,0-.65-.65,18.1,18.1,0,0,0-5.35,0,.74.74,0,0,0-.63.6c0,.18-.06.42-.08.68.48.44,1.74,1.3,3.35-.21A2.2,2.2,0,0,0,51,29.7C51,29.42,51,29.17,51,29Z"/><path class="cls-17" d="M26.83,30.94a3.81,3.81,0,0,0-3.36,1,2.3,2.3,0,0,0,.14,3.26,1.3,1.3,0,0,0,.09,1.71,1.89,1.89,0,0,0,2,.17L27,33.53l.74-1.11Z"/><path class="cls-11" d="M30.2,42.55c.41,2.38,1.64,13.59,1.8,14.74s-.23,12.88-.23,12.88H29.84S28.61,62,28.53,60.36c-.07-1.31,0-3.27,0-3.27L25,42.72Z"/><path class="cls-25" d="M24.77,42.19a21.08,21.08,0,0,0-2.13,4.54c-.49,1.72.49,10.14.49,10.14a17.63,17.63,0,0,0-1.23,2.5c-.31.93-2.4,9.5-2.4,9.5l1.83.71s3.85-9.22,4.29-10.16A20.23,20.23,0,0,0,27,54.73c.29-1.85,3.05-12,3.05-12Z"/><path class="cls-11" d="M19.5,68.87l1.83.71,1.23.69s1.62.52,2,.58.73.47-.06.47H22.1l-2.88-1.47Z"/><path class="cls-11" d="M29.84,70.17v1.15h5.85c.7,0,.78-.36,0-.57s-3.92-.58-3.92-.58Z"/><path class="cls-35" d="M29.17,33.78c.64.1,2.48,2.07,2.72,3.41.22,1.17-1.69,5.36-1.69,5.36a5.69,5.69,0,0,1-3.13.11,5,5,0,0,1-2.33-1s.43-3.6.5-5.15a3.23,3.23,0,0,1,1.83-3.12Z"/><path class="cls-26" d="M31.67,36.53a2.7,2.7,0,0,1,.32,1.8,21.91,21.91,0,0,1-1.79,4.22,6.22,6.22,0,0,1-3.87-.08s1.15-4.28,1.39-6A17.47,17.47,0,0,0,31.67,36.53Z"/><path class="cls-26" d="M26.33,42.47l-.6,10.13a4.07,4.07,0,0,0,4.14,4.32h0a2.77,2.77,0,0,0,2.69-3.11c-.45-3.47-1.28-9-2.36-11.26Z"/><path class="cls-26" d="M29.62,33.85a5.53,5.53,0,0,1,1.9,2.71s-.08.16-.5,0a6.33,6.33,0,0,0-1.85-2.76A.7.7,0,0,1,29.62,33.85Z"/><path class="cls-10" d="M29.92,33.2l-1.05,1.33s-.19.4-1.87-1l1.33-2Z"/><path class="cls-26" d="M27.07,33.42a4.57,4.57,0,0,1,2.19,3.18s-.08.16-.51,0a4.19,4.19,0,0,0-2.14-3A.43.43,0,0,1,27.07,33.42Z"/><path class="cls-17" d="M30.92,26.94a2.45,2.45,0,0,1,2.23.77,1.66,1.66,0,0,1-1,2.73C31,30.52,30.92,26.94,30.92,26.94Z"/><path class="cls-4" d="M30.21,27.15a2.52,2.52,0,0,1,2.06,1.64,4.38,4.38,0,0,1,0,1.75,4.21,4.21,0,0,1,.16,1.34c-.09.08-.63,0-.63,0a4.09,4.09,0,0,1-.7,1.37c-.36.39-.93.38-2-.35a1.64,1.64,0,0,1-.85-1.39c-.28-.4-1.06-.81-1.16-1.37A2.53,2.53,0,0,1,30.21,27.15Z"/><path class="cls-17" d="M29.22,30.32l-.36.48s.5.25.71-.16.35-.72.35-.72a2.42,2.42,0,0,0,2.67-1.32,4,4,0,0,0-1.32-1.77,3.25,3.25,0,0,0-3.71.54,3.66,3.66,0,0,0,.18,5.05,1.57,1.57,0,0,0,.59-.89Z"/><path class="cls-4" d="M29.22,30.32s-.23-.77-.93-.59-.65,1-.33,1.5a.84.84,0,0,0,.52.34C28.63,31.6,29.22,30.32,29.22,30.32Z"/><path class="cls-26" d="M26.41,42.17a4.93,4.93,0,0,1-1.63-.8,1.1,1.1,0,0,0-.3.8,3.55,3.55,0,0,0,1.85.83Z"/><path class="cls-4" d="M26.08,34.11c-.69.38-.79,1.78-.36,2.76A45.84,45.84,0,0,0,31,43c.43.24,7.08-2,7.08-2a1.73,1.73,0,0,0-.56-1.66c-.24,0-6,1-6,1s-2.62-3.82-3.33-4.69S26.91,33.51,26.08,34.11Z"/><path class="cls-4" d="M37.55,39.32a3,3,0,0,1,2.11.16c.93.48,2.3,1.16,2.54,1.35s.53.33.44.54-1.17-.1-1.17-.1a3.36,3.36,0,0,1-.65.6,1.5,1.5,0,0,1-1.67,0c-.56-.46-1-.89-1-.89Z"/><rect class="cls-23" x="35" y="51.72" width="25.29" height="2.07" rx="0.87"/><path class="cls-17" d="M37,53.79h1.22a0,0,0,0,1,0,0V70.71a.61.61,0,0,1-.61.61h0a.61.61,0,0,1-.61-.61V53.79a0,0,0,0,1,0,0Z"/><path class="cls-17" d="M57.07,53.79h1.22a0,0,0,0,1,0,0V70.71a.61.61,0,0,1-.61.61h0a.61.61,0,0,1-.61-.61V53.79a0,0,0,0,1,0,0Z"/></g></g></svg>
