<svg xmlns="http://www.w3.org/2000/svg" xmlns:xlink="http://www.w3.org/1999/xlink" viewBox="0 0 165 165"><defs><style>.cls-1{fill:none;}.cls-2{fill:url(#GradientFill_1);}.cls-3{fill:url(#GradientFill_1-2);}.cls-4{fill:url(#GradientFill_1-3);}.cls-5{fill:url(#GradientFill_1-4);}.cls-6{fill:url(#GradientFill_1-5);}.cls-7{fill:url(#GradientFill_1-6);}.cls-8{fill:url(#GradientFill_1-7);}.cls-9{fill:url(#GradientFill_1-8);}.cls-10{fill:url(#GradientFill_1-9);}</style><linearGradient id="GradientFill_1" x1="77.84" y1="72.97" x2="87.16" y2="72.97" gradientUnits="userSpaceOnUse"><stop offset="0" stop-color="#e58377"/><stop offset="1" stop-color="#af2082"/></linearGradient><linearGradient id="GradientFill_1-2" x1="29.89" y1="36.57" x2="90.55" y2="36.57" xlink:href="#GradientFill_1"/><linearGradient id="GradientFill_1-3" x1="74.45" y1="36.57" x2="135.11" y2="36.57" xlink:href="#GradientFill_1"/><linearGradient id="GradientFill_1-4" x1="61.53" y1="37.06" x2="99.18" y2="37.06" xlink:href="#GradientFill_1"/><linearGradient id="GradientFill_1-5" x1="65.39" y1="70.81" x2="99.84" y2="70.81" xlink:href="#GradientFill_1"/><linearGradient id="GradientFill_1-6" x1="26.55" y1="116.44" x2="138.45" y2="116.44" xlink:href="#GradientFill_1"/><linearGradient id="GradientFill_1-7" x1="71.31" y1="99.64" x2="91.42" y2="99.64" xlink:href="#GradientFill_1"/><linearGradient id="GradientFill_1-8" x1="101.75" y1="130.11" x2="135.37" y2="130.11" xlink:href="#GradientFill_1"/><linearGradient id="GradientFill_1-9" x1="34.03" y1="130.11" x2="62.16" y2="130.11" xlink:href="#GradientFill_1"/></defs><g id="Layer_2" data-name="Layer 2"><g id="OBJECTS"><rect class="cls-1" width="165" height="165"/><rect class="cls-2" x="77.84" y="70.85" width="9.32" height="4.24"/><path class="cls-3" d="M63.2,25.48H56.44V38.93c1.74,1.73,7,6.71,11.79,9.24l-2,3.74C59.77,48.5,52.82,41.29,52.8,41.27l-.6-1.47V21.24h11Z"/><path class="cls-4" d="M101.8,21.24h11V39.8l-.6,1.47s-7,7.23-13.48,10.64l-2-3.74c4.81-2.53,10-7.51,11.79-9.24V25.48H101.8Z"/><path class="cls-5" d="M63.7,14.66h39.55l.28,1.8c0,.12,6.78,42.26-18.21,43-11.27.33-17.37-3.12-20.66-9.74-3.09-6.23-3.4-15.15-3.21-26.39,0-2.09.08-4.23.13-6.44v-.14l.05-2.08ZM99.58,18.9H65.76c0,1.55-.07,3.05-.09,4.49-.17,10.63.09,19,2.79,24.45,2.5,5,7.43,7.66,16.74,7.39C102.7,54.72,100.47,26.39,99.58,18.9Z"/><path class="cls-6" d="M80,57a2.12,2.12,0,1,0-4.24,0V72.17l-10,11.07h0a2.12,2.12,0,0,0,1.58,3.54H97.72a2.12,2.12,0,0,0,1.44-3.68L89.28,72.17v-15a2.12,2.12,0,1,0-4.24,0V73h0a2.1,2.1,0,0,0,.55,1.42L87.16,73l-1.57,1.42L93,82.54H72l7.23-8A2.09,2.09,0,0,0,80,73Z"/><path class="cls-7" d="M28.67,109.87H58.85V82.54h47.3v27.33h32.3v40.47H26.55V109.87ZM61,114.11H30.79v32H134.21v-32h-32.3V86.78H63.09v27.33Z"/><path class="cls-8" d="M86.3,90.88v17.51H81.46V96.92a14.39,14.39,0,0,1-2.27,1.44,16.69,16.69,0,0,1-2.76,1.06V95.5a11.78,11.78,0,0,0,3.8-1.89,7.78,7.78,0,0,0,2.11-2.73Z"/><path class="cls-9" d="M125.73,138.87H111.38a9.1,9.1,0,0,1,1.5-4,20.36,20.36,0,0,1,4.69-4.43,13.68,13.68,0,0,0,2.69-2.36,2.64,2.64,0,0,0,.59-1.54,1.79,1.79,0,0,0-.58-1.35,2,2,0,0,0-1.46-.56,2,2,0,0,0-1.5.58,3.47,3.47,0,0,0-.78,2l-4.79-.39a7.72,7.72,0,0,1,1-3.15,4.76,4.76,0,0,1,2.12-1.74,9.64,9.64,0,0,1,3.79-.6,10.81,10.81,0,0,1,3.93.57,4.77,4.77,0,0,1,2.2,1.77,4.67,4.67,0,0,1,.81,2.67,5.53,5.53,0,0,1-.92,3,12.9,12.9,0,0,1-3.35,3.14c-1,.67-1.61,1.14-1.94,1.4s-.71.62-1.14,1.05h7.46Z"/><path class="cls-10" d="M45.76,126.48l-4.52-.81a5.7,5.7,0,0,1,2.17-3.31,7.73,7.73,0,0,1,4.53-1.15q3.38,0,4.88,1.26a3.93,3.93,0,0,1,1.5,3.15,3.49,3.49,0,0,1-.61,2,5.12,5.12,0,0,1-1.84,1.59,5.77,5.77,0,0,1,1.53.58,3.7,3.7,0,0,1,1.33,1.39,4.26,4.26,0,0,1,.47,2.06,5.77,5.77,0,0,1-.78,2.88,5.32,5.32,0,0,1-2.27,2.13,8.78,8.78,0,0,1-3.89.74,10,10,0,0,1-3.7-.55,5.66,5.66,0,0,1-2.24-1.61A7.41,7.41,0,0,1,41,134.17l4.78-.63a3.7,3.7,0,0,0,.88,2,2.11,2.11,0,0,0,1.5.56,2.08,2.08,0,0,0,1.61-.7,2.73,2.73,0,0,0,.64-1.88,2.63,2.63,0,0,0-.62-1.86A2.18,2.18,0,0,0,48.1,131a6.38,6.38,0,0,0-1.55.28l.24-3.41a4.6,4.6,0,0,0,.63.06,2.2,2.2,0,0,0,1.57-.6,1.93,1.93,0,0,0,.62-1.42,1.67,1.67,0,0,0-.47-1.26,1.75,1.75,0,0,0-1.29-.47,1.89,1.89,0,0,0-1.37.51A3.08,3.08,0,0,0,45.76,126.48Z"/></g></g></svg>