<svg xmlns="http://www.w3.org/2000/svg" xmlns:xlink="http://www.w3.org/1999/xlink" viewBox="0 0 391.76 369.4"><defs><style>.cls-1{isolation:isolate;}.cls-2{fill:#f1f1f4;}.cls-3{fill:#e0f3ff;}.cls-4{fill:url(#Áåçûìÿííûé_ãðàäèåíò_29);}.cls-5{fill:url(#Áåçûìÿííûé_ãðàäèåíò_28);}.cls-6{fill:#e5e2ff;}.cls-7{fill:url(#Áåçûìÿííûé_ãðàäèåíò_28-2);}.cls-118,.cls-17,.cls-18,.cls-19,.cls-22,.cls-24,.cls-30,.cls-33,.cls-35,.cls-38,.cls-39,.cls-40,.cls-41,.cls-42,.cls-43,.cls-44,.cls-45,.cls-46,.cls-47,.cls-48,.cls-49,.cls-50,.cls-51,.cls-52,.cls-53,.cls-54,.cls-57,.cls-58,.cls-59,.cls-60,.cls-61,.cls-62,.cls-66,.cls-77,.cls-8,.cls-80,.cls-81,.cls-82,.cls-86,.cls-87,.cls-9,.cls-94,.cls-95,.cls-96,.cls-97,.cls-98,.cls-99{mix-blend-mode:multiply;}.cls-8,.cls-9{opacity:0.62;}.cls-8{fill:url(#Áåçûìÿííûé_ãðàäèåíò_27);}.cls-9{fill:url(#Áåçûìÿííûé_ãðàäèåíò_94);}.cls-10,.cls-13,.cls-14{mix-blend-mode:screen;}.cls-10,.cls-118,.cls-13,.cls-14,.cls-22,.cls-24,.cls-39,.cls-40,.cls-41,.cls-42,.cls-43,.cls-44,.cls-45,.cls-46,.cls-47,.cls-49,.cls-51,.cls-52,.cls-53,.cls-54,.cls-57,.cls-59,.cls-60,.cls-61,.cls-62,.cls-82{opacity:0.5;}.cls-10{fill:url(#Áåçûìÿííûé_ãðàäèåíò_95);}.cls-11{fill:#fff;}.cls-12{fill:url(#Áåçûìÿííûé_ãðàäèåíò_74);}.cls-13{fill:url(#Áåçûìÿííûé_ãðàäèåíò_83);}.cls-14{fill:url(#Áåçûìÿííûé_ãðàäèåíò_83-2);}.cls-15{fill:url(#Áåçûìÿííûé_ãðàäèåíò_26);}.cls-16{fill:url(#Áåçûìÿííûé_ãðàäèåíò_26-2);}.cls-17,.cls-18,.cls-19,.cls-48{opacity:0.76;}.cls-17{fill:url(#Áåçûìÿííûé_ãðàäèåíò_70);}.cls-18{fill:url(#Áåçûìÿííûé_ãðàäèåíò_70-2);}.cls-19{fill:url(#Áåçûìÿííûé_ãðàäèåíò_70-3);}.cls-20{fill:#fe9083;}.cls-21{fill:url(#Áåçûìÿííûé_ãðàäèåíò_354);}.cls-22{fill:url(#Áåçûìÿííûé_ãðàäèåíò_70-4);}.cls-23{fill:url(#Áåçûìÿííûé_ãðàäèåíò_26-3);}.cls-24{fill:url(#Áåçûìÿííûé_ãðàäèåíò_70-5);}.cls-25{fill:url(#Áåçûìÿííûé_ãðàäèåíò_178);}.cls-26{fill:url(#Áåçûìÿííûé_ãðàäèåíò_55);}.cls-27{fill:#cb4d7a;}.cls-28{fill:#ee8183;}.cls-29{fill:url(#Áåçûìÿííûé_ãðàäèåíò_71);}.cls-30,.cls-35,.cls-66,.cls-77,.cls-80,.cls-81,.cls-92,.cls-94{opacity:0.6;}.cls-30{fill:url(#Áåçûìÿííûé_ãðàäèåíò_48);}.cls-31{fill:url(#Áåçûìÿííûé_ãðàäèåíò_71-2);}.cls-32{fill:#e28183;}.cls-33,.cls-38{opacity:0.91;}.cls-33{fill:url(#Áåçûìÿííûé_ãðàäèåíò_73);}.cls-34{fill:url(#Áåçûìÿííûé_ãðàäèåíò_71-3);}.cls-35{fill:url(#Áåçûìÿííûé_ãðàäèåíò_48-2);}.cls-36{fill:url(#Áåçûìÿííûé_ãðàäèåíò_64);}.cls-37{fill:url(#Áåçûìÿííûé_ãðàäèåíò_64-2);}.cls-38{fill:url(#Áåçûìÿííûé_ãðàäèåíò_73-2);}.cls-39{fill:url(#Áåçûìÿííûé_ãðàäèåíò_70-6);}.cls-40{fill:url(#Áåçûìÿííûé_ãðàäèåíò_70-7);}.cls-41{fill:url(#Áåçûìÿííûé_ãðàäèåíò_4);}.cls-42{fill:url(#Áåçûìÿííûé_ãðàäèåíò_4-2);}.cls-43{fill:url(#Áåçûìÿííûé_ãðàäèåíò_4-3);}.cls-44{fill:url(#Áåçûìÿííûé_ãðàäèåíò_4-4);}.cls-45{fill:url(#Áåçûìÿííûé_ãðàäèåíò_4-5);}.cls-46{fill:url(#Áåçûìÿííûé_ãðàäèåíò_4-6);}.cls-47{fill:url(#Áåçûìÿííûé_ãðàäèåíò_4-7);}.cls-48{fill:url(#Áåçûìÿííûé_ãðàäèåíò_70-8);}.cls-49{fill:url(#Áåçûìÿííûé_ãðàäèåíò_70-9);}.cls-50,.cls-58,.cls-95,.cls-96,.cls-97,.cls-98{opacity:0.3;}.cls-50{fill:url(#Áåçûìÿííûé_ãðàäèåíò_70-10);}.cls-51{fill:url(#Áåçûìÿííûé_ãðàäèåíò_4-8);}.cls-52{fill:url(#Áåçûìÿííûé_ãðàäèåíò_70-11);}.cls-53{fill:url(#Áåçûìÿííûé_ãðàäèåíò_4-9);}.cls-54{fill:url(#Áåçûìÿííûé_ãðàäèåíò_4-10);}.cls-55{fill:url(#Áåçûìÿííûé_ãðàäèåíò_25);}.cls-56{fill:#ebefff;}.cls-57{fill:url(#Áåçûìÿííûé_ãðàäèåíò_70-12);}.cls-58{fill:url(#Áåçûìÿííûé_ãðàäèåíò_70-13);}.cls-59{fill:url(#Áåçûìÿííûé_ãðàäèåíò_70-14);}.cls-60{fill:url(#Áåçûìÿííûé_ãðàäèåíò_70-15);}.cls-61{fill:url(#Áåçûìÿííûé_ãðàäèåíò_70-16);}.cls-62{fill:#7a4ac0;}.cls-63{fill:url(#Áåçûìÿííûé_ãðàäèåíò_71-4);}.cls-64{fill:url(#Áåçûìÿííûé_ãðàäèåíò_71-5);}.cls-65{fill:url(#Áåçûìÿííûé_ãðàäèåíò_387);}.cls-66{fill:url(#Áåçûìÿííûé_ãðàäèåíò_48-3);}.cls-67{fill:#38368e;}.cls-68{fill:url(#Áåçûìÿííûé_ãðàäèåíò_59);}.cls-69{fill:url(#Áåçûìÿííûé_ãðàäèåíò_184);}.cls-70{fill:#ffebed;}.cls-71{fill:#7f9ec9;}.cls-72{fill:#131163;}.cls-73{fill:#c6659c;}.cls-74{fill:#cb5f7d;}.cls-75{fill:#9f4a8b;}.cls-76{fill:#ffbcaf;}.cls-77{fill:url(#Áåçûìÿííûé_ãðàäèåíò_48-4);}.cls-78{fill:url(#Áåçûìÿííûé_ãðàäèåíò_292);}.cls-79{fill:#d2726c;}.cls-80{fill:url(#Áåçûìÿííûé_ãðàäèåíò_35);}.cls-81{fill:url(#Áåçûìÿííûé_ãðàäèåíò_52);}.cls-82{fill:url(#Áåçûìÿííûé_ãðàäèåíò_397);}.cls-83{fill:url(#Áåçûìÿííûé_ãðàäèåíò_141);}.cls-84{fill:url(#Áåçûìÿííûé_ãðàäèåíò_141-2);}.cls-85{fill:url(#Áåçûìÿííûé_ãðàäèåíò_141-3);}.cls-86,.cls-87{opacity:0.8;}.cls-86{fill:url(#Áåçûìÿííûé_ãðàäèåíò_285);}.cls-87{fill:url(#Áåçûìÿííûé_ãðàäèåíò_285-2);}.cls-88{fill:#34c7ff;}.cls-89{fill:url(#Áåçûìÿííûé_ãðàäèåíò_141-4);}.cls-90{fill:url(#Áåçûìÿííûé_ãðàäèåíò_141-5);}.cls-91{fill:url(#Áåçûìÿííûé_ãðàäèåíò_141-6);}.cls-92{fill:#36d1f7;}.cls-93{fill:#744ca2;}.cls-94{fill:url(#Áåçûìÿííûé_ãðàäèåíò_89);}.cls-95{fill:url(#Áåçûìÿííûé_ãðàäèåíò_85);}.cls-96{fill:url(#Áåçûìÿííûé_ãðàäèåíò_85-2);}.cls-97{fill:url(#Áåçûìÿííûé_ãðàäèåíò_85-3);}.cls-98{fill:url(#Áåçûìÿííûé_ãðàäèåíò_85-4);}.cls-99{fill:#d1d4fb;}.cls-100,.cls-119{mix-blend-mode:soft-light;}.cls-101{fill:#e0ffff;}.cls-102{fill:url(#Áåçûìÿííûé_ãðàäèåíò_65);}.cls-103{fill:url(#Áåçûìÿííûé_ãðàäèåíò_14);}.cls-104{opacity:0.81;fill:url(#Áåçûìÿííûé_ãðàäèåíò_115);}.cls-105{fill:#473da2;}.cls-106{fill:url(#Áåçûìÿííûé_ãðàäèåíò_302);}.cls-107{fill:url(#Áåçûìÿííûé_ãðàäèåíò_302-2);}.cls-108{fill:url(#Áåçûìÿííûé_ãðàäèåíò_322);}.cls-109{fill:url(#Áåçûìÿííûé_ãðàäèåíò_322-2);}.cls-110{fill:url(#Áåçûìÿííûé_ãðàäèåíò_25-2);}.cls-111{fill:url(#Áåçûìÿííûé_ãðàäèåíò_25-3);}.cls-112,.cls-114{opacity:0.73;}.cls-112{fill:url(#Áåçûìÿííûé_ãðàäèåíò_97);}.cls-113{fill:#953da2;}.cls-114{fill:url(#Áåçûìÿííûé_ãðàäèåíò_97-2);}.cls-115,.cls-116,.cls-117,.cls-118,.cls-119,.cls-122,.cls-123,.cls-124,.cls-125{fill-rule:evenodd;}.cls-115{fill:url(#Áåçûìÿííûé_ãðàäèåíò_206);}.cls-116{fill:url(#Áåçûìÿííûé_ãðàäèåíò_206-2);}.cls-117{fill:url(#Áåçûìÿííûé_ãðàäèåíò_107);}.cls-118{fill:#601734;}.cls-119{fill:#b3d9ff;}.cls-120{fill:#ff1d9c;}.cls-121{fill:#4f31e0;}.cls-122{fill:url(#Áåçûìÿííûé_ãðàäèåíò_107-2);}.cls-123{fill:url(#Áåçûìÿííûé_ãðàäèåíò_206-3);}.cls-124{fill:url(#Áåçûìÿííûé_ãðàäèåíò_107-3);}.cls-125{fill:url(#Áåçûìÿííûé_ãðàäèåíò_206-4);}</style><linearGradient id="Áåçûìÿííûé_ãðàäèåíò_29" x1="45.18" y1="242.57" x2="45.18" y2="170.2" gradientTransform="matrix(0.91, -0.42, 0.42, 0.91, -71.47, 10.14)" gradientUnits="userSpaceOnUse"><stop offset="0" stop-color="#dbccff"/><stop offset="1" stop-color="#d1bbff"/></linearGradient><linearGradient id="Áåçûìÿííûé_ãðàäèåíò_28" x1="45.17" y1="245.4" x2="45.17" y2="173.03" gradientTransform="matrix(0.91, -0.42, 0.42, 0.91, -71.47, 10.14)" gradientUnits="userSpaceOnUse"><stop offset="0" stop-color="#b5a6e7"/><stop offset="1" stop-color="#7760bf"/></linearGradient><linearGradient id="Áåçûìÿííûé_ãðàäèåíò_28-2" x1="45.09" y1="227.41" x2="45.09" y2="196.92" xlink:href="#Áåçûìÿííûé_ãðàäèåíò_28"/><linearGradient id="Áåçûìÿííûé_ãðàäèåíò_27" x1="40.81" y1="197.55" x2="49.36" y2="197.55" gradientTransform="matrix(0.91, -0.42, 0.42, 0.91, -71.47, 10.14)" gradientUnits="userSpaceOnUse"><stop offset="0" stop-color="#8b8be0"/><stop offset="1" stop-color="#a177b7"/></linearGradient><linearGradient id="Áåçûìÿííûé_ãðàäèåíò_94" x1="45.11" y1="199.59" x2="45.11" y2="194.27" gradientTransform="matrix(0.91, -0.42, 0.42, 0.91, -71.47, 10.14)" gradientUnits="userSpaceOnUse"><stop offset="0" stop-color="#fff"/><stop offset="1" stop-color="#a177b7"/></linearGradient><linearGradient id="Áåçûìÿííûé_ãðàäèåíò_95" x1="49.48" y1="230.5" x2="49.48" y2="196.88" gradientTransform="matrix(0.91, -0.42, 0.42, 0.91, -71.47, 10.14)" gradientUnits="userSpaceOnUse"><stop offset="0"/><stop offset="1" stop-color="#fff"/></linearGradient><linearGradient id="Áåçûìÿííûé_ãðàäèåíò_74" x1="167.88" y1="369.36" x2="167.88" y2="278.4" gradientUnits="userSpaceOnUse"><stop offset="0" stop-color="#6456c0"/><stop offset="1" stop-color="#5f2c95"/></linearGradient><radialGradient id="Áåçûìÿííûé_ãðàäèåíò_83" cx="124.44" cy="330.66" r="30.91" gradientTransform="translate(0 -7.23) scale(1 1.02)" gradientUnits="userSpaceOnUse"><stop offset="0" stop-color="#4b474b"/><stop offset="1"/></radialGradient><radialGradient id="Áåçûìÿííûé_ãðàäèåíò_83-2" cx="207.64" cy="330.66" r="31.24" xlink:href="#Áåçûìÿííûé_ãðàäèåíò_83"/><linearGradient id="Áåçûìÿííûé_ãðàäèåíò_26" x1="139.01" y1="337.43" x2="162.41" y2="337.43" gradientUnits="userSpaceOnUse"><stop offset="0" stop-color="#9e8cef"/><stop offset="1" stop-color="#caafee"/></linearGradient><linearGradient id="Áåçûìÿííûé_ãðàäèåíò_26-2" x1="261.22" y1="337.43" x2="284.62" y2="337.43" gradientTransform="matrix(-1, 0, 0, 1, 454.9, 0)" xlink:href="#Áåçûìÿííûé_ãðàäèåíò_26"/><linearGradient id="Áåçûìÿííûé_ãðàäèåíò_70" x1="164.74" y1="369.36" x2="164.74" y2="278.4" gradientUnits="userSpaceOnUse"><stop offset="0" stop-color="#ccf"/><stop offset="1" stop-color="#755cbb"/></linearGradient><linearGradient id="Áåçûìÿííûé_ãðàäèåíò_70-2" x1="175.13" y1="323.88" x2="175.13" y2="299.07" xlink:href="#Áåçûìÿííûé_ãðàäèåíò_70"/><linearGradient id="Áåçûìÿííûé_ãðàäèåíò_70-3" x1="146.95" y1="314.76" x2="146.95" y2="290.45" xlink:href="#Áåçûìÿííûé_ãðàäèåíò_70"/><linearGradient id="Áåçûìÿííûé_ãðàäèåíò_354" x1="171.12" y1="141.43" x2="171.12" y2="105.13" gradientUnits="userSpaceOnUse"><stop offset="0" stop-color="#d5cdf8"/><stop offset="1" stop-color="#f3edfb"/></linearGradient><linearGradient id="Áåçûìÿííûé_ãðàäèåíò_70-4" x1="152.79" y1="123.24" x2="189.46" y2="123.24" xlink:href="#Áåçûìÿííûé_ãðàäèåíò_70"/><linearGradient id="Áåçûìÿííûé_ãðàäèåíò_26-3" x1="160.64" y1="286.5" x2="160.64" y2="103.55" xlink:href="#Áåçûìÿííûé_ãðàäèåíò_26"/><linearGradient id="Áåçûìÿííûé_ãðàäèåíò_70-5" x1="86.17" y1="172.49" x2="129.87" y2="172.49" xlink:href="#Áåçûìÿííûé_ãðàäèåíò_70"/><linearGradient id="Áåçûìÿííûé_ãðàäèåíò_178" x1="84.82" y1="223.73" x2="84.82" y2="138.18" gradientUnits="userSpaceOnUse"><stop offset="0" stop-color="#9e8cef"/><stop offset="1" stop-color="#dac7f3"/></linearGradient><linearGradient id="Áåçûìÿííûé_ãðàäèåíò_55" x1="229.11" y1="199.08" x2="285.42" y2="199.08" gradientUnits="userSpaceOnUse"><stop offset="0" stop-color="#a999f1"/><stop offset="1" stop-color="#dac7f3"/></linearGradient><linearGradient id="Áåçûìÿííûé_ãðàäèåíò_71" x1="66.51" y1="126.52" x2="66.51" y2="103.96" gradientUnits="userSpaceOnUse"><stop offset="0.02" stop-color="#ffc2a9"/><stop offset="1" stop-color="#ff9595"/></linearGradient><linearGradient id="Áåçûìÿííûé_ãðàäèåíò_48" x1="80.44" y1="125.98" x2="80.44" y2="88.64" gradientUnits="userSpaceOnUse"><stop offset="0" stop-color="#ffeadb"/><stop offset="0.99" stop-color="#c27cb6"/></linearGradient><linearGradient id="Áåçûìÿííûé_ãðàäèåíò_71-2" x1="79.25" y1="151.38" x2="79.25" y2="93.82" xlink:href="#Áåçûìÿííûé_ãðàäèåíò_71"/><linearGradient id="Áåçûìÿííûé_ãðàäèåíò_73" x1="69.15" y1="142.4" x2="86.9" y2="142.4" gradientUnits="userSpaceOnUse"><stop offset="0.02" stop-color="#d1a1d6"/><stop offset="0.99" stop-color="#bd89c4"/></linearGradient><linearGradient id="Áåçûìÿííûé_ãðàäèåíò_71-3" x1="286.58" y1="186.45" x2="286.58" y2="109.47" xlink:href="#Áåçûìÿííûé_ãðàäèåíò_71"/><linearGradient id="Áåçûìÿííûé_ãðàäèåíò_48-2" x1="295.5" y1="161.78" x2="295.5" y2="123.54" xlink:href="#Áåçûìÿííûé_ãðàäèåíò_48"/><linearGradient id="Áåçûìÿííûé_ãðàäèåíò_64" x1="302.9" y1="148.58" x2="302.9" y2="131.44" gradientUnits="userSpaceOnUse"><stop offset="0" stop-color="#ffb0b0"/><stop offset="0.98" stop-color="#ffc2a9"/></linearGradient><linearGradient id="Áåçûìÿííûé_ãðàäèåíò_64-2" x1="312.65" y1="151.22" x2="312.65" y2="141.82" xlink:href="#Áåçûìÿííûé_ãðàäèåíò_64"/><linearGradient id="Áåçûìÿííûé_ãðàäèåíò_73-2" x1="273.21" y1="169.96" x2="290.36" y2="169.96" xlink:href="#Áåçûìÿííûé_ãðàäèåíò_73"/><linearGradient id="Áåçûìÿííûé_ãðàäèåíò_70-6" x1="249.35" y1="230.31" x2="249.35" y2="144.15" xlink:href="#Áåçûìÿííûé_ãðàäèåíò_70"/><linearGradient id="Áåçûìÿííûé_ãðàäèåíò_70-7" x1="63.27" y1="212.95" x2="204.62" y2="212.95" xlink:href="#Áåçûìÿííûé_ãðàäèåíò_70"/><linearGradient id="Áåçûìÿííûé_ãðàäèåíò_4" x1="187.89" y1="188.83" x2="214.91" y2="188.83" gradientUnits="userSpaceOnUse"><stop offset="0" stop-color="#ccedff"/><stop offset="1" stop-color="#755cbb"/></linearGradient><linearGradient id="Áåçûìÿííûé_ãðàäèåíò_4-2" x1="163.38" y1="237.18" x2="203.09" y2="237.18" xlink:href="#Áåçûìÿííûé_ãðàäèåíò_4"/><linearGradient id="Áåçûìÿííûé_ãðàäèåíò_4-3" x1="165.22" y1="255.48" x2="207.64" y2="255.48" xlink:href="#Áåçûìÿííûé_ãðàäèåíò_4"/><linearGradient id="Áåçûìÿííûé_ãðàäèåíò_4-4" x1="128.71" y1="210.16" x2="128.71" y2="161.62" xlink:href="#Áåçûìÿííûé_ãðàäèåíò_4"/><linearGradient id="Áåçûìÿííûé_ãðàäèåíò_4-5" x1="132.55" y1="214.24" x2="132.55" y2="177.45" xlink:href="#Áåçûìÿííûé_ãðàäèåíò_4"/><linearGradient id="Áåçûìÿííûé_ãðàäèåíò_4-6" x1="75.51" y1="167.21" x2="75.51" y2="139.4" xlink:href="#Áåçûìÿííûé_ãðàäèåíò_4"/><linearGradient id="Áåçûìÿííûé_ãðàäèåíò_4-7" x1="97.57" y1="142.72" x2="108.56" y2="142.72" xlink:href="#Áåçûìÿííûé_ãðàäèåíò_4"/><linearGradient id="Áåçûìÿííûé_ãðàäèåíò_70-8" x1="217.03" y1="210.16" x2="217.03" y2="158.63" xlink:href="#Áåçûìÿííûé_ãðàäèåíò_70"/><linearGradient id="Áåçûìÿííûé_ãðàäèåíò_70-9" x1="273.85" y1="199.08" x2="273.85" y2="172.15" xlink:href="#Áåçûìÿííûé_ãðàäèåíò_70"/><linearGradient id="Áåçûìÿííûé_ãðàäèåíò_70-10" x1="243.9" y1="197.88" x2="243.9" y2="177.29" xlink:href="#Áåçûìÿííûé_ãðàäèåíò_70"/><linearGradient id="Áåçûìÿííûé_ãðàäèåíò_4-8" x1="69.8" y1="168.98" x2="69.8" y2="161.34" xlink:href="#Áåçûìÿííûé_ãðàäèåíò_4"/><linearGradient id="Áåçûìÿííûé_ãðàäèåíò_70-11" x1="89.83" y1="192.29" x2="89.83" y2="150.51" xlink:href="#Áåçûìÿííûé_ãðàäèåíò_70"/><linearGradient id="Áåçûìÿííûé_ãðàäèåíò_4-9" x1="195.25" y1="162.88" x2="195.25" y2="131.44" xlink:href="#Áåçûìÿííûé_ãðàäèåíò_4"/><linearGradient id="Áåçûìÿííûé_ãðàäèåíò_4-10" x1="154.85" y1="158.63" x2="154.85" y2="115.24" xlink:href="#Áåçûìÿííûé_ãðàäèåíò_4"/><linearGradient id="Áåçûìÿííûé_ãðàäèåíò_25" x1="140.48" y1="166.57" x2="211.57" y2="166.57" gradientUnits="userSpaceOnUse"><stop offset="0" stop-color="#8642a0"/><stop offset="1" stop-color="#6456c0"/></linearGradient><linearGradient id="Áåçûìÿííûé_ãðàäèåíò_70-12" x1="146.61" y1="124.74" x2="192.87" y2="124.74" xlink:href="#Áåçûìÿííûé_ãðàäèåíò_70"/><linearGradient id="Áåçûìÿííûé_ãðàäèåíò_70-13" x1="265.53" y1="196.01" x2="265.53" y2="168.71" xlink:href="#Áåçûìÿííûé_ãðàäèåíò_70"/><linearGradient id="Áåçûìÿííûé_ãðàäèåíò_70-14" x1="227.69" y1="226.8" x2="227.69" y2="144.15" xlink:href="#Áåçûìÿííûé_ãðàäèåíò_70"/><linearGradient id="Áåçûìÿííûé_ãðàäèåíò_70-15" x1="140.53" y1="265.63" x2="140.53" y2="241.93" xlink:href="#Áåçûìÿííûé_ãðàäèåíò_70"/><linearGradient id="Áåçûìÿííûé_ãðàäèåíò_70-16" x1="185.68" y1="259.12" x2="185.68" y2="247.61" xlink:href="#Áåçûìÿííûé_ãðàäèåíò_70"/><linearGradient id="Áåçûìÿííûé_ãðàäèåíò_71-4" x1="185.18" y1="111.22" x2="185.18" y2="32.5" xlink:href="#Áåçûìÿííûé_ãðàäèåíò_71"/><linearGradient id="Áåçûìÿííûé_ãðàäèåíò_71-5" x1="156.4" y1="79.45" x2="156.4" y2="56.24" xlink:href="#Áåçûìÿííûé_ãðàäèåíò_71"/><linearGradient id="Áåçûìÿííûé_ãðàäèåíò_387" x1="195.9" y1="88.23" x2="196.87" y2="83.19" gradientUnits="userSpaceOnUse"><stop offset="0" stop-color="#e1616a"/><stop offset="1" stop-color="#ff8883"/></linearGradient><linearGradient id="Áåçûìÿííûé_ãðàäèåíò_48-3" x1="187.3" y1="84.35" x2="187.3" y2="33.64" xlink:href="#Áåçûìÿííûé_ãðàäèåíò_48"/><linearGradient id="Áåçûìÿííûé_ãðàäèåíò_59" x1="184.87" y1="63.58" x2="184.87" y2="53.54" gradientUnits="userSpaceOnUse"><stop offset="0" stop-color="#cf6074"/><stop offset="1" stop-color="#f37270"/></linearGradient><linearGradient id="Áåçûìÿííûé_ãðàäèåíò_184" x1="204.52" y1="66.77" x2="204.52" y2="58.03" gradientUnits="userSpaceOnUse"><stop offset="0" stop-color="#cf6074"/><stop offset="1" stop-color="#ff817f"/></linearGradient><linearGradient id="Áåçûìÿííûé_ãðàäèåíò_48-4" x1="205.33" y1="71.86" x2="205.33" y2="52.19" xlink:href="#Áåçûìÿííûé_ãðàäèåíò_48"/><linearGradient id="Áåçûìÿííûé_ãðàäèåíò_292" x1="186.22" y1="112.21" x2="186.22" y2="16.74" gradientUnits="userSpaceOnUse"><stop offset="0" stop-color="#2e33a0"/><stop offset="1" stop-color="#0665a5"/></linearGradient><linearGradient id="Áåçûìÿííûé_ãðàäèåíò_35" x1="210.81" y1="52.09" x2="210.81" y2="30.07" gradientUnits="userSpaceOnUse"><stop offset="0" stop-color="#ffeadb"/><stop offset="0.99" stop-color="#8860c7"/></linearGradient><linearGradient id="Áåçûìÿííûé_ãðàäèåíò_52" x1="181.37" y1="112.21" x2="181.37" y2="16.74" gradientUnits="userSpaceOnUse"><stop offset="0" stop-color="#ccc2db"/><stop offset="0.99" stop-color="#8860c7"/></linearGradient><linearGradient id="Áåçûìÿííûé_ãðàäèåíò_397" x1="187.65" y1="112.18" x2="187.65" y2="108.08" gradientUnits="userSpaceOnUse"><stop offset="0" stop-color="#776d7e"/><stop offset="1" stop-color="#9d68c2"/></linearGradient><linearGradient id="Áåçûìÿííûé_ãðàäèåíò_141" x1="199.46" y1="23.59" x2="199.46" y2="20.54" gradientUnits="userSpaceOnUse"><stop offset="0" stop-color="#1f77d1"/><stop offset="1" stop-color="#0686c9"/></linearGradient><linearGradient id="Áåçûìÿííûé_ãðàäèåíò_141-2" x1="180.42" y1="33.62" x2="180.42" y2="24.61" xlink:href="#Áåçûìÿííûé_ãðàäèåíò_141"/><linearGradient id="Áåçûìÿííûé_ãðàäèåíò_141-3" x1="212.44" y1="38.19" x2="212.44" y2="30.07" xlink:href="#Áåçûìÿííûé_ãðàäèåíò_141"/><linearGradient id="Áåçûìÿííûé_ãðàäèåíò_285" x1="159.79" y1="73.96" x2="149.43" y2="61.26" gradientUnits="userSpaceOnUse"><stop offset="0" stop-color="#ffeadb"/><stop offset="0.99" stop-color="#b060f4"/></linearGradient><linearGradient id="Áåçûìÿííûé_ãðàäèåíò_285-2" x1="160.83" y1="72.3" x2="155.72" y2="66.04" xlink:href="#Áåçûìÿííûé_ãðàäèåíò_285"/><linearGradient id="Áåçûìÿííûé_ãðàäèåíò_141-4" x1="179.83" y1="34.43" x2="197.09" y2="34.43" xlink:href="#Áåçûìÿííûé_ãðàäèåíò_141"/><linearGradient id="Áåçûìÿííûé_ãðàäèåíò_141-5" x1="204.18" y1="87.08" x2="209.42" y2="87.08" xlink:href="#Áåçûìÿííûé_ãðàäèåíò_141"/><linearGradient id="Áåçûìÿííûé_ãðàäèåíò_141-6" x1="197.71" y1="83.11" x2="203.36" y2="83.11" xlink:href="#Áåçûìÿííûé_ãðàäèåíò_141"/><linearGradient id="Áåçûìÿííûé_ãðàäèåíò_89" x1="252.84" y1="98.23" x2="391.65" y2="98.23" gradientUnits="userSpaceOnUse"><stop offset="0" stop-color="#9d68c2"/><stop offset="1" stop-color="#aec2ff"/></linearGradient><linearGradient id="Áåçûìÿííûé_ãðàäèåíò_85" x1="281.07" y1="166.41" x2="281.07" y2="111.97" gradientUnits="userSpaceOnUse"><stop offset="0" stop-color="#ccedff"/><stop offset="1" stop-color="#9d68c2"/></linearGradient><linearGradient id="Áåçûìÿííûé_ãðàäèåíò_85-2" x1="352.46" y1="139.87" x2="352.46" y2="115.88" xlink:href="#Áåçûìÿííûé_ãðàäèåíò_85"/><linearGradient id="Áåçûìÿííûé_ãðàäèåíò_85-3" x1="374.22" y1="139.87" x2="374.22" y2="115.88" xlink:href="#Áåçûìÿííûé_ãðàäèåíò_85"/><linearGradient id="Áåçûìÿííûé_ãðàäèåíò_85-4" x1="330.34" y1="139.87" x2="330.34" y2="115.88" xlink:href="#Áåçûìÿííûé_ãðàäèåíò_85"/><linearGradient id="Áåçûìÿííûé_ãðàäèåíò_65" x1="86.69" y1="80.2" x2="86.69" y2="55.1" gradientUnits="userSpaceOnUse"><stop offset="0" stop-color="#d93de3"/><stop offset="1" stop-color="#ff6dba"/></linearGradient><linearGradient id="Áåçûìÿííûé_ãðàäèåíò_14" x1="101.74" y1="80.2" x2="101.74" y2="55.1" gradientUnits="userSpaceOnUse"><stop offset="0" stop-color="#a242ea"/><stop offset="1" stop-color="#fe117e"/></linearGradient><linearGradient id="Áåçûìÿííûé_ãðàäèåíò_115" x1="96.92" y1="344.91" x2="110.46" y2="237.07" gradientUnits="userSpaceOnUse"><stop offset="0" stop-color="#067eff"/><stop offset="1" stop-color="#3e37a0"/></linearGradient><linearGradient id="Áåçûìÿííûé_ãðàäèåíò_302" x1="322.14" y1="80.08" x2="322.14" y2="70.97" gradientUnits="userSpaceOnUse"><stop offset="0" stop-color="#459fff"/><stop offset="1" stop-color="#a96dff"/></linearGradient><linearGradient id="Áåçûìÿííûé_ãðàäèåíò_302-2" x1="5.56" y1="184.62" x2="5.56" y2="173.28" xlink:href="#Áåçûìÿííûé_ãðàäèåíò_302"/><linearGradient id="Áåçûìÿííûé_ãðàäèåíò_322" x1="335.27" y1="80.08" x2="335.27" y2="70.97" gradientUnits="userSpaceOnUse"><stop offset="0" stop-color="#b31a8f"/><stop offset="1" stop-color="#fe117e"/></linearGradient><linearGradient id="Áåçûìÿííûé_ãðàäèåíò_322-2" x1="132.84" y1="107.83" x2="132.84" y2="101.39" xlink:href="#Áåçûìÿííûé_ãðàäèåíò_322"/><linearGradient id="Áåçûìÿííûé_ãðàäèåíò_25-2" x1="323.96" y1="246.4" x2="323.96" y2="239.96" xlink:href="#Áåçûìÿííûé_ãðàäèåíò_25"/><linearGradient id="Áåçûìÿííûé_ãðàäèåíò_25-3" x1="15.98" y1="281.78" x2="15.98" y2="276.02" xlink:href="#Áåçûìÿííûé_ãðàäèåíò_25"/><linearGradient id="Áåçûìÿííûé_ãðàäèåíò_97" x1="39.68" y1="250.62" x2="39.68" y2="203.04" gradientUnits="userSpaceOnUse"><stop offset="0" stop-color="#d906e3"/><stop offset="1" stop-color="#ff6df9"/></linearGradient><linearGradient id="Áåçûìÿííûé_ãðàäèåíò_97-2" x1="308.14" y1="314.68" x2="308.14" y2="255.16" xlink:href="#Áåçûìÿííûé_ãðàäèåíò_97"/><linearGradient id="Áåçûìÿííûé_ãðàäèåíò_206" x1="270.75" y1="251.94" x2="265.68" y2="208.44" gradientTransform="matrix(0.97, 0.26, -0.26, 0.97, 52.55, -30.65)" gradientUnits="userSpaceOnUse"><stop offset="0" stop-color="#1852a0"/><stop offset="1" stop-color="#067ed3"/></linearGradient><linearGradient id="Áåçûìÿííûé_ãðàäèåíò_206-2" x1="265.84" y1="252.09" x2="265.84" y2="207.5" xlink:href="#Áåçûìÿííûé_ãðàäèåíò_206"/><linearGradient id="Áåçûìÿííûé_ãðàäèåíò_107" x1="228.89" y1="265.31" x2="225.62" y2="237.17" gradientTransform="matrix(0.94, 0.33, -0.52, 1.49, 160.38, -189.57)" gradientUnits="userSpaceOnUse"><stop offset="0" stop-color="#188dc1"/><stop offset="1" stop-color="#06bfe7"/></linearGradient><linearGradient id="Áåçûìÿííûé_ãðàäèåíò_107-2" x1="301.08" y1="54.56" x2="312.58" y2="11.86" gradientTransform="matrix(1, 0, 0, 1, 0, 0)" xlink:href="#Áåçûìÿííûé_ãðàäèåíò_107"/><linearGradient id="Áåçûìÿííûé_ãðàäèåíò_206-3" x1="281.61" y1="49.71" x2="290.23" y2="17.71" gradientTransform="matrix(1, 0, 0, 1, 0, 0)" xlink:href="#Áåçûìÿííûé_ãðàäèåíò_206"/><linearGradient id="Áåçûìÿííûé_ãðàäèåíò_107-3" x1="-25.18" y1="43.15" x2="-17.34" y2="14.05" gradientTransform="matrix(-1, 0, 0, 1, 13.93, 0)" xlink:href="#Áåçûìÿííûé_ãðàäèåíò_107"/><linearGradient id="Áåçûìÿííûé_ãðàäèåíò_206-4" x1="-38.46" y1="39.85" x2="-32.58" y2="18.03" gradientTransform="matrix(-1, 0, 0, 1, 13.93, 0)" xlink:href="#Áåçûìÿííûé_ãðàäèåíò_206"/></defs><g class="cls-1"><g id="Layer_2" ><g id="illustration"><path class="cls-2" d="M51.85,162.25c0-.25.12-.37.35-.37l6.71.21a4.81,4.81,0,0,1,1.69.31,2.92,2.92,0,0,1,1.11.76,2.84,2.84,0,0,1,.59,1.16,5.09,5.09,0,0,1,.15,1.5l-.05,1.88a5.21,5.21,0,0,1-.25,1.49,2.76,2.76,0,0,1-.65,1.12,2.87,2.87,0,0,1-1.16.7,5.12,5.12,0,0,1-1.7.2L55,171.1l-.75-2.16h-.1l-.06,2.13L51.59,171Zm2.34,6.45,4.29.14a1.39,1.39,0,0,0,1-.3,1.7,1.7,0,0,0,.34-1.14l0-1.53a1.63,1.63,0,0,0-.27-1.17,1.46,1.46,0,0,0-1-.34l-4.1-.12a.14.14,0,0,0-.14,0,.21.21,0,0,0,0,.13Z"/><path class="cls-2" d="M66.08,166.16H66l-.08,2.73a.15.15,0,0,0,.16.18l7.54.23-.07,2.37-9.89-.3a.33.33,0,0,1-.34-.39l.25-8.37c0-.25.13-.37.37-.36l9.6.29a.33.33,0,0,1,.36.39l-.07,2.37-2.37.81h-.1l0-1.21c0-.09,0-.14-.11-.14l-5.08-.16c-.06,0-.11,0-.13.05a.27.27,0,0,0,0,.12l0,1.14,4.18.13-.05,1.85-3.51-.11Z"/><path class="cls-2" d="M82.85,166h-.1l0-1c0-.1,0-.16-.14-.16l-4.72-.15a.46.46,0,0,0-.36.11.44.44,0,0,0-.11.32v.22a.5.5,0,0,0,.08.35.76.76,0,0,0,.33.12l5.53,1a3.77,3.77,0,0,1,.89.26,1.64,1.64,0,0,1,.59.43,1.53,1.53,0,0,1,.31.64,3.54,3.54,0,0,1,.07.9l0,.72a3.53,3.53,0,0,1-.16,1,1.71,1.71,0,0,1-.47.72,1.93,1.93,0,0,1-.82.42,4.64,4.64,0,0,1-1.25.11l-8-.25.07-2.37,7.14.23a.59.59,0,0,0,.43-.11.64.64,0,0,0,.11-.42v-.25a.48.48,0,0,0-.07-.33.43.43,0,0,0-.31-.13l-5.33-.85a4.44,4.44,0,0,1-.92-.26,1.83,1.83,0,0,1-.63-.42,1.48,1.48,0,0,1-.33-.62,2.91,2.91,0,0,1-.09-.87l0-.64a2.16,2.16,0,0,1,.56-1.52,2.3,2.3,0,0,1,1.74-.49l8,.25c.25,0,.37.14.37.41l-.06,1.88Z"/><path class="cls-2" d="M86.21,172.06l.27-9.12L89,163l-.27,9.12Z"/><path class="cls-2" d="M98.13,168.52c0-.13,0-.27,0-.42a2.09,2.09,0,0,0,0-.38v-.12l2.5.08-.13,4.47c0,.24-.12.35-.32.34l-6.73-.2a5.1,5.1,0,0,1-1.69-.31,2.83,2.83,0,0,1-1.11-.77,2.92,2.92,0,0,1-.59-1.15,5.16,5.16,0,0,1-.15-1.51l.05-1.88a5.28,5.28,0,0,1,.25-1.49,2.8,2.8,0,0,1,.66-1.12,2.85,2.85,0,0,1,1.15-.69,4.87,4.87,0,0,1,1.7-.2l6.7.2a.33.33,0,0,1,.34.39l-.06,2-2.37.8h-.1l0-.88a.12.12,0,0,0-.11-.13l-4.27-.13a2.36,2.36,0,0,0-.63.05.86.86,0,0,0-.42.23.93.93,0,0,0-.24.44,2.65,2.65,0,0,0-.1.69l0,1.61a1.66,1.66,0,0,0,.27,1.16,1.41,1.41,0,0,0,1,.36l4.24.13c.09,0,.14-.05.14-.15Z"/><path class="cls-2" d="M106,163.55a.67.67,0,0,1,.4.1,1,1,0,0,1,.21.28l3.19,6.65a.25.25,0,0,0,.23.16h.13c.14,0,.2-.06.21-.2l.2-6.86,2.3.07-.26,8.76a.32.32,0,0,1-.36.35l-3.63-.12a.78.78,0,0,1-.39-.08.76.76,0,0,1-.23-.3l-3.32-6.65a.23.23,0,0,0-.23-.15h-.12a.18.18,0,0,0-.2.2l-.21,6.85-2.29-.07.26-8.75c0-.24.12-.37.35-.36Z"/><ellipse class="cls-3" cx="172.69" cy="161.67" rx="155.02" ry="158.05"/><path class="cls-4" d="M58.73,151.56a23.91,23.91,0,0,0-10.55-9.45l-2.35,1.12L51.12,153a10.45,10.45,0,0,1-3.24,5.83h0a10.16,10.16,0,0,1-6.47-1.21l-4-10.42-2.35,1.12a24.75,24.75,0,0,0,.33,14.31s1,2.36,1.18,2.57c.93,1.1,3.36,2.38,8.06,2.09l16.2,31.51a8.77,8.77,0,0,0-.36,8A8.4,8.4,0,0,0,71.77,211a8.71,8.71,0,0,0,4.09-11.48,8.49,8.49,0,0,0-6.24-4.85L56.31,161.76c3.17-3.4,3.84-6.09,3.6-7.64C59.86,153.79,58.73,151.56,58.73,151.56Zm13.33,54.35-4.29,2-3.88-2.76.41-4.81,4.29-2,3.88,2.77Z"/><path class="cls-5" d="M59.91,154.12a23.85,23.85,0,0,0-10.55-9.44L47,145.8l5.29,9.79a10.56,10.56,0,0,1-3.24,5.83v0a10.05,10.05,0,0,1-6.46-1.21l-4-10.42-2.35,1.12a24.68,24.68,0,0,0,.33,14.32s3.67,5,9.23,4.65L62,201.38a8.74,8.74,0,0,0-.36,8,8.4,8.4,0,0,0,11.26,4.17A8.71,8.71,0,0,0,77,202.05a8.46,8.46,0,0,0-6.23-4.84L57.49,164.33C61.33,160.2,59.91,154.12,59.91,154.12Zm13.33,54.35-4.3,2.05-3.88-2.77.41-4.81,4.29-2,3.89,2.76Z"/><polygon class="cls-6" points="35.09 148.33 36.27 150.89 38.62 149.77 37.44 147.21 35.09 148.33"/><polygon class="cls-6" points="45.83 143.23 47.01 145.8 49.36 144.68 48.18 142.11 45.83 143.23"/><polygon class="cls-6" points="67.77 207.95 68.94 210.52 73.24 208.47 72.06 205.91 67.77 207.95"/><path class="cls-7" d="M49.3,172.2l13.09,25.65a6.36,6.36,0,0,0,5.28-2.52L57,168.53A10,10,0,0,0,49.3,172.2Zm17.36,23.34A7.34,7.34,0,0,1,65,196.67a6.2,6.2,0,0,1-1.81.55L50.05,172.1A14.24,14.24,0,0,1,53.2,170a11.15,11.15,0,0,1,3.24-1Z"/><path class="cls-6" d="M66.66,195.54l1-.21a5.64,5.64,0,0,1-5.28,2.52l.77-.63A7.06,7.06,0,0,0,66.66,195.54Z"/><path class="cls-8" d="M49.3,172.2l.75-.1A12.19,12.19,0,0,1,56.44,169l.58-.49a7.7,7.7,0,0,0-4.27.94A8,8,0,0,0,49.3,172.2Z"/><path class="cls-9" d="M45.83,169.86a28.59,28.59,0,0,0,11.66-5.53l1.7,4.2s-1.93-1.94-6.16-.18c-5,2.05-4.69,6.12-4.69,6.12Z"/><path class="cls-10" d="M59.19,168.53a5.07,5.07,0,0,0-2.59-.91l12.67,31.2,1.53-1.61Z"/><path class="cls-11" d="M59.19,168.53s-1.33,4.17,2.49,6.15Z"/><path class="cls-12" d="M233.81,369.36h-47c-.17-.95-.34-1.9-.52-2.86s-.31-1.63-.47-2.45l-.09-.44c-.15-.75-.3-1.5-.46-2.27-.05-.22-.09-.44-.14-.66-.14-.69-.29-1.38-.44-2.08-.49-2.28-1-4.59-1.53-6.88-.21-.92-.43-1.85-.65-2.75-.33-1.38-.66-2.75-1-4.11-.16-.66-.32-1.33-.49-2s-.35-1.39-.53-2.08c-.31-1.24-.63-2.47-.94-3.68q-.72-2.76-1.44-5.4c-.11-.42-.22-.83-.34-1.24l-.66-2.43-.33-1.19c-.28-1-.55-2-.83-3l-.13-.45c-.13-.49-.27-1-.41-1.45-.27-.95-.53-1.87-.79-2.75-.12-.45-.24-.88-.37-1.31s-.2-.7-.3-1c-.15-.51-.29-1-.44-1.5L173.1,314c-.18-.62-.35-1.2-.52-1.75-.42-1.41-.79-2.65-1.1-3.66l-.26-.84c-.18-.59-.33-1.07-.44-1.45,0,0,0,0,0,0l-.17-.51,0-.09a.14.14,0,0,0,0-.07l0-.08,0-.05,0-.13,0-.1c-2.78-1.68-8.21.39-8.21.39l-.12.43h0l-2.34,8.67-1.12,4.17-13.6,50.43H102.12a133.12,133.12,0,0,1,2.06-30.15c0-.09,0-.17,0-.25s0-.18,0-.26A214.76,214.76,0,0,1,110.9,312a229,229,0,0,1,10-26.53h0a4.92,4.92,0,0,1-.56-2.44,5.8,5.8,0,0,1,1.6-1.9c1.16-1.08,2.54-2.16,2.54-2.16l11-.07,10.38-.06h.5l7.84,0h0l30.14-.18h0l17.76-.13h2.38s.81.42,1.84,1.05h0c1.75,1.08,4.12,2.76,4.12,4a5.69,5.69,0,0,1-.81,3l0,.05a0,0,0,0,1,0,0l0,.09A164,164,0,0,1,218.18,306c9.91,27.1,14.63,56.65,15.48,62.38Z"/><path class="cls-13" d="M144.76,318.48c0,2.59-.22,5.29-.51,8.08h0c-.3,2.92-.73,5.95-1.29,9,0,.16-.06.34-.09.51s-.07.35-.1.53c-.26,1.36-.55,2.73-.86,4.11a113.28,113.28,0,0,1-6.49,20.13,78.58,78.58,0,0,1-4.28,8.47H105.26c-1.63-7.86-1.58-18.51.39-30.15a2.17,2.17,0,0,0,0-.25c0-.09,0-.18,0-.26q.53-3,1.23-6.16a112.59,112.59,0,0,1,6.37-19.85c4.69-10.88,10.53-18.7,16-21.3a9.67,9.67,0,0,1,2.46-.8h.06a6.93,6.93,0,0,1,2.94.06,8.64,8.64,0,0,1,4.91,3.54,5,5,0,0,1,.33.47,17.07,17.07,0,0,1,1.35,2.4,30.44,30.44,0,0,1,2.09,6.44A65.55,65.55,0,0,1,144.76,318.48Z"/><path class="cls-14" d="M228,369.36H202.56c-4.74-7.2-9.1-17-12.18-28.24a113.91,113.91,0,0,1-3.78-21c-.11-1.39-.19-2.76-.23-4.09-.23-7.35.56-13.65,2.31-18.14,1.48-3.84,3.65-6.38,6.46-7.18a7.47,7.47,0,0,1,3.9,0c5.23,1.24,11.08,7.36,16.25,16.55a108.2,108.2,0,0,1,9.61,24C229,346,229.89,359.88,228,369.36Z"/><path class="cls-15" d="M139.5,369.4l-.49-.08c5.47-32.83,19.34-60.37,19.48-60.64l0-.08,3.54-3.15.33.39-3.5,3.12C158.29,310.2,144.85,337.26,139.5,369.4Z"/><path class="cls-16" d="M193.19,369.4c-5.35-32.17-19.16-59.49-19.78-60.7l-3.12-2.86.33-.38,3.22,3c.14.28,14.38,28.07,19.85,60.9Z"/><path class="cls-17" d="M210.59,283.43a5.69,5.69,0,0,1-.81,3l0,.05a41.53,41.53,0,0,0-10.7,4.19,61.75,61.75,0,0,0-10.36,7.21,67.56,67.56,0,0,0-8.31,8.32c1.42,2.78,3,6.24,4.63,10.08.53,1.24,1.06,2.52,1.6,3.83,8.48,20.68,18,49.23,18,49.23H186.81c-.17-.95-.34-1.9-.52-2.86s-.31-1.63-.47-2.45l-.09-.44c-.15-.76-.3-1.51-.46-2.27-.05-.22-.09-.44-.14-.66-.14-.69-.29-1.38-.44-2.08-.49-2.28-1-4.59-1.53-6.88-.21-.92-.43-1.85-.65-2.75-.33-1.38-.66-2.75-1-4.11-.16-.66-.32-1.33-.49-2s-.35-1.39-.53-2.08c-.31-1.24-.63-2.47-.94-3.68q-.72-2.76-1.44-5.4c-.11-.42-.23-.83-.34-1.24l-.66-2.43-.33-1.19c-.28-1-.55-2-.83-3l-.13-.45c-.13-.49-.27-1-.41-1.45-.26-.95-.53-1.87-.79-2.75-.12-.45-.24-.88-.37-1.31s-.2-.7-.3-1l-.44-1.5L173.1,314c-.18-.62-.35-1.2-.52-1.75-.42-1.41-.79-2.65-1.1-3.66l-.26-.84c-.18-.59-.33-1.07-.44-1.45,0,0,0,0,0,0l-.17-.51,0-.09a.14.14,0,0,0,0-.07l0-.08,0-.05,0-.13,0-.1c-2.78-1.68-8.21.39-8.21.39l-.12.43h0l-2.34,8.67-1.12,4.17-13.6,50.43H133.94c.41-2.77.91-5.61,1.48-8.46,0,0,0,0,0,0,1.5-7.72,3.46-15.58,5.45-22.74,0-.13.07-.26.11-.38a3.58,3.58,0,0,1,.09-.35c1.08-3.89,2.16-7.54,3.18-10.85h0c.15-.47.29-.93.43-1.38s.18-.6.27-.89.19-.59.28-.87c.54-1.74,1.06-3.34,1.53-4.78,1.73-5.31,2.91-8.56,2.91-8.56-1.26-1.5-2.59-3-4-4.38a1.48,1.48,0,0,0-.24-.26l-.24-.25-1.69-1.69h0a149.17,149.17,0,0,0-14.14-12.1c-4.92-3.72-8.45-6-8.45-6h0l-2-1.31,1.48-1.13c2.44,2.4,6.67,5,11.28,7.48l0,0,.17.1h0c2.71,1.43,5.54,2.82,8.21,4.05h0c1.9.89,3.71,1.71,5.34,2.41l.25.11c.08,0,.17.07.25.12,3.53,1.52,6.07,2.54,6.52,2.72l.05,0L146,296l-.24-.15-.25-.16L122,281.07c1.16-1.08,2.54-2.16,2.54-2.16l11-.07,10.38-.06h.5l7.84,0h0l30.14-.18h0l17.76-.13h2.38s.81.42,1.84,1.05l-21.88,12.28Z"/><polygon class="cls-18" points="170.45 305.26 179.8 299.07 177.58 305.26 175.96 323.88 170.45 305.26"/><polygon class="cls-19" points="162.24 305.65 152.5 300.03 131.65 290.45 158.2 308.35 159.79 314.76 162.24 305.65"/><path class="cls-20" d="M189,114.11c.06.44.11.67.11.67a58.93,58.93,0,0,1-1.66,5.77,47.28,47.28,0,0,1-6.23,12.36,24.22,24.22,0,0,1-2.72,3.24C164,131.48,156.76,116.93,154,109.69a.36.36,0,0,1,0-.11c-.53-1.36-.88-2.47-1.1-3.18h0c-.17-.57-.25-.89-.25-.89l.18-.37,0,0c.24-.51.48-1,.7-1.53a73.82,73.82,0,0,0,4-11.39c.71-2.67,1.09-4.73,1.27-5.82.09-.57.13-.87.13-.87l6.8,3.66,23.43,12.64a40,40,0,0,0-.5,6.06c0,1.27,0,2.41.09,3.38.07,1.19.19,2.12.28,2.74h0A.68.68,0,0,0,189,114.11Z"/><path class="cls-21" d="M182.54,137.75a20,20,0,0,1-4.84,3.61l-.12.07-.14-.08h0c-.51-.31-2.25-1.41-4.59-3.2-6.12-4.7-16.34-14.2-19.26-27l0,0a32.37,32.37,0,0,1-.7-4.68h0c0-.42-.06-.84-.07-1.26a66.14,66.14,0,0,0,5.55,10.11c4.14,6.18,10.35,12.92,17.77,13,6.42,0,9.71-4.44,11.38-8.57a23.53,23.53,0,0,0,1.35-4.69,0,0,0,0,0,0,0c.07-.36.12-.69.17-1h0c0-.15,0-.27,0-.38.06-.46.08-.73.08-.73S191.61,128.51,182.54,137.75Z"/><path class="cls-22" d="M182.54,137.75a20,20,0,0,1-4.84,3.61h-.27c-.51-.31-2.25-1.41-4.59-3.2-6.12-4.7-16.34-14.2-19.26-27l0,0a32.37,32.37,0,0,1-.7-4.68h0c0-.42-.06-.84-.07-1.26a66.14,66.14,0,0,0,5.55,10.11s4,11.32,12.78,16.93c4.38,2.8,7.7,2.39,10.14.74s4-4.51,5-6.67a15.93,15.93,0,0,0,1.28-5.69c0-.33,0-.64,0-.92a23.53,23.53,0,0,0,1.35-4.69,0,0,0,0,0,0,0c.07-.36.12-.69.17-1h0c0-.15,0-.27,0-.38.06-.46.08-.73.08-.73S191.61,128.51,182.54,137.75Z"/><path class="cls-23" d="M238.7,230.22l-.16.08c-.82.1-3.37-.47-6.71-3.42h0s0,0,0,0,0,0,0,0c-2.8-2.5-6.16-6.67-9.51-13.5-6.7-13.65-8.62-22.76-8.93-24.35l0-.25L209.36,195c-2.65,8.13-7.67,41.75-7.58,43.2s4.45,8.5,4.36,9.37v0c-.12.88-2.08,2.81-2.64,4.91-.38,1.39,2.28,5.8,4.15,9.09h0a13.48,13.48,0,0,1,1.72,3.65c0,1.54-4.74,9.07-4.74,9.07v4.06l-.07.07-.22.21-.18.15c-1.8,1.45-9.43,6.19-33.27,7.49-28.25,1.54-47.07-7.72-47.07-7.72l1.42-4s-1.32-1.15-1.42-1.73,1-1.94,1-1.94-2.84-1.54-2.84-3.48,5.69-7.91,5.5-13-4.55-9.65-5.12-12.55,7.39-10,7.39-10c-6.82-22-8.15-51.58-8.15-51.58l-1.32-1.55s-8.15,18.93-15.54,28.2c-.88,1.1-1.81,2.19-2.77,3.24a79.58,79.58,0,0,1-6.36,6.27c-5.12,4.55-9.77,7.54-11,7.3-1.9-.38-9.48-15.65-9.13-31.3.16-7.44,4.56-15.77,9.13-22.45.49-.71,1-1.42,1.48-2.1A105.56,105.56,0,0,1,94,158.25c.58-.64.91-1,.91-1s-1-3.42-1.75-6.39a1.6,1.6,0,0,0,0-.21.36.36,0,0,0,0-.1.31.31,0,0,0,0-.07c-.42-1.83-.68-3.41-.44-3.8.63-1,4.3-2.19,4.93-3s3.28-13.79,5.3-15.2,5.35-2.35,16.72-6.91l1.73-.69c12.75-5.15,25.26-11.4,25.26-11.4l4.8-6h2.14l-.7,1.53,0,0c.34,1.55.73,3,1.17,4.45a.36.36,0,0,0,0,.11c6.6,21.23,23.58,28.07,23.58,28.07,11.8-8.88,11.57-23,11.57-23v-1.94l2.21.68,1.51,3.67s2.56,4.06,12.7,8.6a61.64,61.64,0,0,1,5.57,2.91c9.28,5.37,19.6,13.68,20.39,15.45a5.45,5.45,0,0,1,.27.87h0c1.09,4.37,3.33,20.71,5.41,26.54a13.33,13.33,0,0,0,4.86,6.69h0a7.36,7.36,0,0,0,1.94,1c.16.9.31,1.78.45,2.66C248.83,209.92,240.56,228.89,238.7,230.22Z"/><path class="cls-24" d="M129.87,177.44l-8.24,2.83-1.32-1.55s-8.15,18.93-15.54,28.2c-.88,1.1-1.81,2.19-2.77,3.24a79.58,79.58,0,0,1-6.36,6.27l-6.28-27.6-3.19-21A105.56,105.56,0,0,1,94,158.25c.58-.64.91-1,.91-1s-1-3.42-1.75-6.39a1.6,1.6,0,0,0,0-.21.36.36,0,0,0,0-.1.31.31,0,0,0,0-.07c-.42-1.83-.68-3.41-.44-3.8.63-1,4.3-2.19,4.93-3s3.28-13.79,5.3-15.2c0,0-1.32,12.49,5.69,28.33l3.41,4.89L122,170S125.74,175.09,129.87,177.44Z"/><path class="cls-25" d="M106,200c-1.77,13.39-21.34,23.69-21.34,23.69-4.36,0-9.23-7.73-13.65-17.26s-4.69-36.92-4.92-38.61-2.7-5.08-2.85-6.52,4-4.45,4-4.45l0-.07,0-.07c-.43-.94-2.85-6.23-2.68-7.2s4.82-3.38,4.82-3.38l.29,5.21s10.78-2.08,14.43-10.59l.64-2.61,1.8,1.22v11.21s.37,1.74.94,1.74,4.77-2.14,5.65-1.84,1.76,6.29,2.94,7.05,4.3,3,4.77,4.06a19.78,19.78,0,0,1,.25,4.23,44.09,44.09,0,0,0,.41,7.08C102.12,175.92,107.8,186.64,106,200Z"/><path class="cls-26" d="M285,188.57c-.88,1.42-5.3,4.38-6.44,5.54s0,5,0,5a153.51,153.51,0,0,1-39.88,31.14l-.16.08c-11.66-8-10.66-21.16-6.79-32.25a84.38,84.38,0,0,1,10.32-19.76h0A24,24,0,0,1,248,176.6a3.54,3.54,0,0,1,2.19.69c1.42.9,2.62,2.32,3.78,1.72,1.71-.87,5.53-10.08,8.12-10.33,1.81-.18,4.32,1.7,6,2.77.73.47,1.3.78,1.58.7.95-.25,4.17-4.19,4.43-4.29s1.72,1,1.72,1l-1,1.3a36,36,0,0,0,6.76,15.52l3.47-5.18S285.91,187.15,285,188.57Z"/><path class="cls-27" d="M189.09,113.71c0,.13,0,.27-.05.4a7.91,7.91,0,0,1-.19.81,0,0,0,0,1,0,0c-1.19,4.5-6,9.1-12.07,6.89-6.63-2.42-19.25-29.67-19.25-29.67l1.27-5.82,30,24.87.33,2.36Z"/><path class="cls-28" d="M89.36,108.72s-1.83-10.3-1-17.9a84.1,84.1,0,0,0-.21-16.23,4,4,0,0,0-3.14,0c-1.32.78-4.42,8.63-3,14.94s.32,21.45.32,21.45H80.2l-4.54-6.38L73.45,104s-12.73,12.23-12.54,19.51l1.66,6.47,15.68-.55,10.23-11.91Z"/><path class="cls-29" d="M73.45,104A85,85,0,0,0,75.56,119a3.57,3.57,0,0,1-3.57,3l-.8-.92s-.57,3.24-3.46,3.48L65,121.83l.71,2.32a3.88,3.88,0,0,1-3.6,2.36s-4.35-3.47-4.64-8l4.31-3.72v-2.85l5.12-3.67.09-2.08A11.88,11.88,0,0,1,73.45,104Z"/><path class="cls-30" d="M88.53,88.64a7.21,7.21,0,0,1-1.85,2.76,16,16,0,0,1-4.25,1.37L82.29,111H80.2l-4.54-6.38S78,108.24,78.1,111l-1.8.9-1.56-5.46L74,110.35l.74,4.89a12.41,12.41,0,0,1,7.57-2.47l.74,1.36S74.22,121.59,72.18,126c0,0,4.36-5.65,14.31-11.88l1-3L88.69,104S87.5,93.66,88.53,88.64Z"/><path class="cls-31" d="M95.93,120.38c-.82,2.51-9.41,12.94-10.36,15.2a31,31,0,0,0-1.52,5.21c-4.22,9.31-14.43,10.59-14.43,10.59l-.47-8.4s-5.49-3.22-6.42-5v0l-.11-.3a71.55,71.55,0,0,1,0-7.73l9.61-4c4.17-5.51,14.31-11.88,14.31-11.88l.47-2.89c-7.28-3.65-6.06-14.69-4.83-16a5.32,5.32,0,0,1,3.5-1.35s2.66,8.88,4.36,13S96.75,117.87,95.93,120.38Z"/><path class="cls-32" d="M67,106.18s1.08,10.14,4.22,15a23.81,23.81,0,0,1-4.31-12.89Z"/><path class="cls-32" d="M61.76,111.93s1,8.16,6,12.7c0,0-4.36-2.22-6-9.85Z"/><path class="cls-33" d="M86.9,133.42S76.07,144.14,69.15,143l.47,8.4a18.33,18.33,0,0,0,15.07-13.2A32.27,32.27,0,0,1,86.9,133.42Z"/><path class="cls-34" d="M315.94,148s-9.95,18.55-21.6,24.24h-4l-9.19,14.21s-5.94-3.81-6.38-16.3a11.42,11.42,0,0,0,2.59-4.71s-3.28-2.63-4.17-4.55-1.2-7.73-1.83-10.12-6-7.34-7.2-8-6.63-1-6.63-1-.76-2,0-3,9.22-4.32,13.83-1.1a21.43,21.43,0,0,0,.82,3.74c.51,1.29,4.55,5.86,5.18,5.86s3.35-2.32,4.55-4.12a184.2,184.2,0,0,0,8.74-19.7.5.5,0,0,1,0-.13c0-.07.05-.15.06-.21a.93.93,0,0,0,0-.13s0,0,0,0c1.14-3.93,7.77-11.46,11.31-13.52,0,0,1.51-.39,2.33,1.54,0,0-2.84,8.25-5.81,13.14-.5.83-1,1.8-1.6,2.84h0c-2.53,4.74-5.38,11-5.79,11.85l-.05.12,1.58.82,4.27-4.13,4.38-4.23,10.05,10.82-1,1.28-3.14,4.11,1.59.3,3.7-4.17Z"/><path class="cls-35" d="M313.61,151.94l-3.17,4.77S293,143,289.19,141.82s-5.18-.39-5.18-.39l-3.91,5.09s7.2,6.51,7.83,15.26c0,0-2.4-11.07-10.55-14.42.63,0,3.35-2.32,4.55-4.12a184.2,184.2,0,0,0,8.74-19.7,5.16,5.16,0,0,0,.16,3.48c.86,1.62,5.92.09,6.22,0h0l-5.8,11.85-.05.12,1.58.82,4.27-4.13-2.14,5.07,15.58,2.8-3.14,4.11,1.59.3Z"/><path class="cls-36" d="M301.45,131.45s3-.45,5,3.55l-.45,1.28s3,.59,5.81,5.48a16.22,16.22,0,0,1-8.78,6.82s-2.9-.83-3.41-3.34l.57-1.61-2.27,1.73s-2.72.84-3.92-3.28Z"/><path class="cls-37" d="M316.86,146.72a4.82,4.82,0,0,0-2.47-4.9l-6,6.76a3.13,3.13,0,0,0,2.78,2.64S315.28,149.81,316.86,146.72Z"/><path class="cls-38" d="M273.21,160.89a44.41,44.41,0,0,0,17.15,11.35L286,179l-9.17-11.88.58-1.72S273.72,162.63,273.21,160.89Z"/><path class="cls-32" d="M306,136.28s-2.9,4.9-5.81,7.35l-.57,1.61s5.64-3.89,7.72-8.37A3.6,3.6,0,0,0,306,136.28Z"/><path class="cls-39" d="M285,188.57c-.88,1.42-5.3,4.38-6.44,5.54s0,5,0,5a153.51,153.51,0,0,1-39.88,31.14l-.16.08c-1.52.19-8.91-1.93-16.3-17-6.7-13.65-8.62-22.76-8.93-24.35l0-.25,1.63-2.25,2.42-27.82,1.7,5.6c6.44-7.92,12.51-20.08,12.51-20.08l.27.87h0c1.09,4.37,3.33,20.71,5.41,26.54a13.33,13.33,0,0,0,4.86,6.69v0h0c-5.93,5.52-8.87,13.45-10.32,19.76a55.75,55.75,0,0,0-1.42,10.23,69.71,69.71,0,0,1,6.82-17.3,37.19,37.19,0,0,1,7.33-9,58.14,58.14,0,0,1,5.72-4.67c1.42.9,2.62,2.32,3.78,1.72-7.8,11.94-7.61,35.58-.28,31.07s9-14.07,9-14.07c-1.73-11.65-1.21-24.8.18-27.3,1.68.06,6.51,3.52,6.79,3.44A40.92,40.92,0,0,0,275.55,195l4.17-6.57a41.45,41.45,0,0,1-5.62-20.59c.25-.11,1.72,1,1.72,1l-1,1.3a36,36,0,0,0,6.76,15.52l3.47-5.18S285.91,187.15,285,188.57Z"/><path class="cls-40" d="M204.62,274.34v4.06l-.07.07-.22.21-.18.15c-1.8,1.45-9.43,6.19-33.27,7.49-28.25,1.54-47.07-7.72-47.07-7.72l1.42-4s-1.32-1.15-1.42-1.73,1-1.94,1-1.94-2.84-1.54-2.84-3.48c0-1.74,4.64-6.79,5.39-11.53a7,7,0,0,0,.11-1.51c-.19-5.1-4.51-9.61-5.11-12.51a.16.16,0,0,1,0,0c-.57-2.89,7.39-10,7.39-10-6.82-22-8.15-51.58-8.15-51.58l-1.32-1.55s-8.15,18.93-15.54,28.2-18.19,17.2-20.08,16.81c-4.36,0-9.23-7.73-13.65-17.26s-4.69-36.92-4.92-38.61-2.7-5.08-2.85-6.52c4.74,8.3,12.29,5.86,12.29,5.86-5.47.12-8.31-10.31-8.31-10.31l0-.07,0-.07-2.67-7.19c.3.35,6.55,7.47,12.59,3.08s9.38-13.24,9.38-13.24v11.21s.37,1.74.94,1.74A139.28,139.28,0,0,1,84.69,170C81.88,183.37,78,196.3,78,196.3s10.44-5.79,14.11-20.48A63,63,0,0,0,94,158.25a45,45,0,0,0-.84-7.36,1.6,1.6,0,0,0,0-.21.36.36,0,0,0,0-.1.43.43,0,0,0,0-.05l1,2.18L96,157.56c2.23,18.84-2.37,47.24-2.37,47.24,6.7-8.5,8.09-27.3,7.8-31.87-.13-2.18-.3-4.88-.41-7.08-.15-2.4-.25-4.23-.25-4.23L114.5,170,112,161.78,122,170s9,11,18.19,12.3,43.07.52,43.07.52-29.43,1.92-38,4.5S135,192.82,135,192.82c6.21,32.21,40.58,43.07,41.65,43.39-31.18-4.77-45.69-31.8-45.69-31.8s-.51,15.2,1.89,21,16.55,20,34.74,22.92a41.89,41.89,0,0,0,4.53.46c15.34.74,28-7.26,29.34-8.11l.11-.07,0,0c-.49.76-6.78,9.78-32.18,10.76-1.54.07-3,.06-4.5,0h0c-23.54-1-35.53-17-35.53-17s-8.71,4.77-3.15,11.85l.18.22c1.64,1.93,5.25,4.28,9.52,6.71l.35.2c5.16,2.91,11.21,5.91,15.89,8.38l.07,0a58.72,58.72,0,0,1,6.52,3.81h0c1.32,1,1.59,1.61.3,1.76-6.57.78-31.45-4.76-32.46-3.22s1.23,5.54,1.23,5.54c22.84,11.54,71.71,5.85,73.25,5.67-40.9,10.68-74.36-2.84-74.36-2.84l1.11,4a143.92,143.92,0,0,0,39.69,6.95c21.48.51,34.87-5.09,34.87-5.09Z"/><path class="cls-41" d="M187.89,182.65s16.27.9,27,3.8L209.36,195A73.47,73.47,0,0,0,187.89,182.65Z"/><path class="cls-42" d="M203.09,228.36S192.94,237,183,241a66.37,66.37,0,0,1-19.58,4.38s5.74,1.74,19.86-.58,18.94-10.11,18.94-10.11Z"/><path class="cls-43" d="M207.64,261.61h0c-18.78,4.95-42.62-2.15-42.42-3s6.53.39,21.21-2.61c14.23-2.9,19.39-8.06,19.7-8.38-.12.88-2.08,2.81-2.64,4.91C203.11,253.91,205.77,258.32,207.64,261.61Z"/><path class="cls-44" d="M156.63,185.24c-16,1.67-20.36,6.22-20.36,6.22-4.51.58-14.64-11.19-14.64-11.19l-1.32-1.55s-8.15,18.93-15.54,28.2c-.88,1.1-1.81,2.19-2.77,3.24l1-2.4s1.72-.84,2.22-10-3.79-22.92-3.82-24.78-.66-11.31-.66-11.31L114.5,170,112,161.78,122,170s3.91,6,13.78,11C145,185.67,155.48,185.3,156.63,185.24Z"/><path class="cls-45" d="M120.31,178.72l9.56-1.27a71.17,71.17,0,0,0,11.49,5.76l-6.4,9.61s2.54,13.7,9.82,21.42c0,0-19.32-10.94-22-20.14Z"/><path class="cls-46" d="M64.52,149.56l2.73,7.33s2.79,9.89,8.31,10.31,10.93-16.59,10.93-16.59V139.4s-5.88,12.85-12.22,14.3S64.52,149.56,64.52,149.56Z"/><path class="cls-47" d="M97.57,143.76s4.93,10,11,13.13c0,0-7.21-17.84-5.69-28.33C102.87,128.56,100.22,130.24,97.57,143.76Z"/><path class="cls-48" d="M217.32,158.63l1.7,5.6,1.73,45.93A112.28,112.28,0,0,1,213.31,189l1.6-2.5S217.58,169.13,217.32,158.63Z"/><path class="cls-49" d="M269.67,172.15s-1,22.57,8.45,24.52l.46,2.41S266.42,198.62,269.67,172.15Z"/><path class="cls-50" d="M254,179s-.36.81-3.78-1.72c0,0-11.83,8.54-16.39,20.59,0,0,7.3-11.07,11.18-12.26s4.81,3.21,4.81,3.21S251.34,182.61,254,179Z"/><path class="cls-51" d="M63.27,161.34s4.55,8.55,13.08,5.87c0,0-5.11,3.51-10.23.65C66.12,167.86,63,162.3,63.27,161.34Z"/><path class="cls-52" d="M93.08,150.51S99.34,174.36,83,192.29a27.55,27.55,0,0,0,13-18.4A40.18,40.18,0,0,0,93.08,150.51Z"/><path class="cls-53" d="M205.22,131.44s-.7,10.77-5.76,18.5-15.11,12.94-15.11,12.94,12.6-4.73,18.38-11.4S205.22,131.44,205.22,131.44Z"/><path class="cls-54" d="M140.77,115.24a69.4,69.4,0,0,0,2.84,18.18c2.85,9.18,27.52,25.21,27.52,25.21s-25.43-10.77-30.36-20.45S140.77,115.24,140.77,115.24Z"/><path class="cls-55" d="M140.48,158.12v14.66s33.11-.27,70.24,2.24l.85-13.2A635.54,635.54,0,0,0,140.48,158.12Z"/><path class="cls-56" d="M146.62,161.46q0-.37.36-.36l6.71.21a4.79,4.79,0,0,1,1.68.31,2.67,2.67,0,0,1,1.7,1.92,5.44,5.44,0,0,1,.16,1.5l-.06,1.88a5.6,5.6,0,0,1-.24,1.49,2.73,2.73,0,0,1-.66,1.12,2.92,2.92,0,0,1-1.15.69,4.88,4.88,0,0,1-1.71.21l-3.61-.12-.74-2.15H149l-.07,2.13-2.53-.08Zm2.34,6.46,4.29.13a1.35,1.35,0,0,0,1-.29,1.67,1.67,0,0,0,.34-1.15l.05-1.52a1.63,1.63,0,0,0-.27-1.17,1.42,1.42,0,0,0-1-.34l-4.1-.13a.22.22,0,0,0-.14.05.21.21,0,0,0,0,.13Z"/><path class="cls-56" d="M160.86,165.38h-.09l-.08,2.73a.16.16,0,0,0,.17.18l7.54.23-.07,2.37-9.89-.31c-.24,0-.35-.14-.35-.39l.25-8.36c0-.25.13-.37.37-.37l9.61.3a.34.34,0,0,1,.36.39l-.08,2.36-2.37.82h-.1l0-1.22c0-.09,0-.14-.12-.14l-5.07-.16c-.07,0-.11,0-.13.06a.21.21,0,0,0,0,.11l0,1.14,4.18.13-.06,1.86-3.5-.11Z"/><path class="cls-56" d="M177.62,165.21h-.1l0-1c0-.1,0-.15-.14-.15l-4.72-.15a.5.5,0,0,0-.36.1.51.51,0,0,0-.1.32v.23a.46.46,0,0,0,.07.34.76.76,0,0,0,.33.12l5.53,1a4.13,4.13,0,0,1,.89.26,1.79,1.79,0,0,1,.59.44,1.49,1.49,0,0,1,.32.64,4,4,0,0,1,.07.89l0,.73a3.25,3.25,0,0,1-.17,1,1.65,1.65,0,0,1-.46.71,2,2,0,0,1-.83.42,4.2,4.2,0,0,1-1.24.11l-8-.24.07-2.37,7.13.22a.58.58,0,0,0,.43-.1.7.7,0,0,0,.12-.42V168a.59.59,0,0,0-.07-.34.53.53,0,0,0-.31-.12l-5.34-.86a4.48,4.48,0,0,1-.92-.25,1.88,1.88,0,0,1-.62-.42,1.54,1.54,0,0,1-.34-.63,2.86,2.86,0,0,1-.08-.87l0-.63a2.12,2.12,0,0,1,.56-1.52,2.22,2.22,0,0,1,1.73-.49l8,.24a.35.35,0,0,1,.37.41L180,164.4Z"/><path class="cls-56" d="M181,171.28l.27-9.12,2.53.08-.27,9.12Z"/><path class="cls-56" d="M192.91,167.74c0-.14,0-.28,0-.42s0-.28,0-.39v-.11l2.51.08-.14,4.47c0,.23-.11.35-.31.34l-6.74-.21a4.79,4.79,0,0,1-1.68-.31,2.74,2.74,0,0,1-1.11-.76,2.85,2.85,0,0,1-.6-1.16,5.87,5.87,0,0,1-.15-1.5l.06-1.88a5.6,5.6,0,0,1,.24-1.49,2.68,2.68,0,0,1,1.81-1.81,4.88,4.88,0,0,1,1.71-.21l6.69.21c.24,0,.35.14.35.39l-.06,2-2.38.81H193l0-.87c0-.09,0-.13-.1-.13l-4.28-.13a2.32,2.32,0,0,0-.62,0,.85.85,0,0,0-.42.22,1.08,1.08,0,0,0-.25.45,3,3,0,0,0-.09.69l-.05,1.6a1.65,1.65,0,0,0,.27,1.16,1.34,1.34,0,0,0,1,.36l4.23.13a.12.12,0,0,0,.14-.14Z"/><path class="cls-56" d="M200.73,162.76a.71.71,0,0,1,.39.1.79.79,0,0,1,.21.28l3.2,6.66a.27.27,0,0,0,.22.16h.14a.17.17,0,0,0,.2-.19l.21-6.87,2.29.07-.26,8.76c0,.24-.12.36-.35.35l-3.64-.11a.73.73,0,0,1-.38-.09.64.64,0,0,1-.23-.29l-3.32-6.65a.27.27,0,0,0-.23-.16h-.12c-.14,0-.2.06-.21.19l-.2,6.86-2.3-.08.26-8.74q0-.37.36-.36Z"/><path class="cls-57" d="M192.87,117.19c-.78,9.48-3.61,16.09-6.63,20.54-4.16,6.12-8.66,8.21-8.66,8.21a51.93,51.93,0,0,1-11.76-7.23,61.28,61.28,0,0,1-19.21-29.06c6,14.83,14.86,23.81,21.56,28.87a43,43,0,0,0,9.41,5.63V139.4a28.88,28.88,0,0,1-3.1-1.38c-11.8-6.07-18-18.71-20.9-26.89l0,0a58.78,58.78,0,0,1-2.18-7.53h2.14l-.7,1.53,0,0c.34,1.55.73,3,1.17,4.45a.36.36,0,0,0,0,.11c6.6,21.23,23.58,28.07,23.58,28.07,11.8-8.88,11.57-23,11.57-23v-1.94l2.21.68Z"/><path class="cls-58" d="M262.88,168.71s-3.21,10.69-.18,27.3c0,0,1.51-21.06,2.65-22.89s4.32-1,4.32-1A74.27,74.27,0,0,0,262.88,168.71Z"/><path class="cls-59" d="M231.75,226.8c-2.8-2.5-6.16-6.67-9.51-13.5-6.7-13.65-8.62-22.76-8.93-24.35l1.59-2.5,2.13-21,2-1.21a86,86,0,0,0,12.51-20.08,5.45,5.45,0,0,1,.27.87h0c1.09,4.37,3.33,20.71,5.41,26.54a13.33,13.33,0,0,0,4.86,6.69s-12.31,18.62-12.91,31.9C228.63,222.25,231.27,226.19,231.75,226.8Z"/><path class="cls-60" d="M158.66,265.63s-22.19-3.71-31.25-9.67a0,0,0,0,1,0,0,7,7,0,0,0,.11-1.51c-.19-5.1-4.51-9.61-5.11-12.51.1.28.75,1.81,3.9,4.56a67,67,0,0,0,9.52,6.71l.35.2a177.69,177.69,0,0,0,15.89,8.38l.07,0c3.58,1.72,5.9,2.85,6.52,3.81Z"/><path class="cls-61" d="M206.13,247.61c-.12.88-2.08,2.81-2.64,4.91,0,0-8.14,8.78-38.27,6.08.2-.86,6.53.39,21.21-2.61C200.66,253.09,205.82,247.93,206.13,247.61Z"/><path class="cls-62" d="M211.14,128.7l-19.26,6.36-5.64,2.67h-8.66l-3.1.26-1.64.12-4.67.38-2.35.19-23.1-8.52-4.13-1.52-19-7,1.73-.69c12.75-5.15,25.26-11.4,25.26-11.4l4.8-6h2.14a73.82,73.82,0,0,0,4-11.39l1.27-5.82c.09-.57.13-.87.13-.87l6.8,3.66,22.93,18.7c0,1.27,0,2.41.09,3.38l.33,2.36c.06-.46.08-.73.08-.73l2.21.68,1.51,3.67s2.56,4.06,12.7,8.6A61.64,61.64,0,0,1,211.14,128.7Z"/><path class="cls-63" d="M196.47,110.78A30.83,30.83,0,0,1,177.58,108c-9.91-4.89-18.24-19.32-18.75-22.92s3.79-13,3.79-20.35-3.53-20,2.4-26.79,33.22-7.86,42.07.9c0,0,2.74,7,2.74,11a29.43,29.43,0,0,1-.42,4c-.08.6-.19,1.24-.29,1.91-.79,4.8-1.88,10.66-1.37,13.23a13.14,13.14,0,0,0,.79,2.51h0c1.09,2.57,2.71,4.62,3,6.84C211.92,81.17,208.1,101.77,196.47,110.78Z"/><path class="cls-64" d="M162.55,62.61s-2.45-6.27-8.61-6.37c0,0-3.6,1.45-4.17,4.25,0,0,1.33,10.14,2.84,14.88s7.08,4,7.08,4A24.39,24.39,0,0,0,162.55,62.61Z"/><path class="cls-65" d="M186.22,83.26s2.05-.17,2.93.51,4.11,3.86,8.18,4.73,6.81-2.66,7.67-2.84,1.83,1.07,1.83,1.07a3.47,3.47,0,0,0-2.5-2.11s-.86,3.33-6.76,2.19S189.15,83,189.15,83l-.3-.55A15,15,0,0,0,186.22,83.26Z"/><path class="cls-66" d="M177.5,52.07l.08-.65s5.89-10.54,17.55-10.83,14.28,7.16,14.28,7.16l2.16-3.34-4.92-10.19-34.24-.58-8.33,6.86L163,57.29l3.71,22.16,9,4.9,2.55-2.3c-1-7.42-6.36-14.2-6.36-14.2l3.95-2.8s10.13,5,16,3.51c0,0,4.41-13.11,4.16-22.82C196,45.74,181,48,177.5,52.07Z"/><path class="cls-67" d="M177,52.85s.57-3.8,6.85-5.32c7-1.69,12.69-3.12,12.69-3.12s-1.24,4.16-3.57,5.72c0,0-7.41-.27-11.16.6S177,52.85,177,52.85Z"/><path class="cls-67" d="M209.41,47.75s-3.55,2.79-6,9.46c0,0,2.32-3.09,4.45-3a1.24,1.24,0,0,1,1.23,1.5A14.2,14.2,0,0,0,209.41,47.75Z"/><path class="cls-68" d="M179.33,63.58s.38-8,8-10a16.5,16.5,0,0,1,3,7.73S186.34,60.49,179.33,63.58Z"/><path class="cls-69" d="M201.31,66.77s.62-6.38,4.21-8.74c0,0,2.46,1.87,2.2,7.21C207.72,65.24,205.57,64.45,201.31,66.77Z"/><path class="cls-70" d="M179.33,63.58s2.49,3.13,9.47,3.74a11.31,11.31,0,0,0,1.21-6.1S183.59,60.59,179.33,63.58Z"/><path class="cls-70" d="M201.31,66.77v.93s1.07,2.29,4.93,2.68a11.12,11.12,0,0,0,1.34-5.17S205.13,64.58,201.31,66.77Z"/><path class="cls-71" d="M186.79,61.05a8.94,8.94,0,0,0-1.61,5.66,26.68,26.68,0,0,0,3.62.61,9.76,9.76,0,0,0,1.21-6.1A9.44,9.44,0,0,0,186.79,61.05Z"/><path class="cls-71" d="M205,65.32s-1,1.09-1.2,4.45a7.51,7.51,0,0,0,2.47.61,9.44,9.44,0,0,0,1.34-5.17A4.32,4.32,0,0,0,205,65.32Z"/><path class="cls-67" d="M186.22,67s-.64-4.34,1.79-6l2,.26a8.85,8.85,0,0,1-1.21,6.1S186.83,67.09,186.22,67Z"/><path class="cls-67" d="M205.85,65.12a18.72,18.72,0,0,0-1.33,4.93,5.48,5.48,0,0,0,1.72.33,8.57,8.57,0,0,0,1.34-5.17A3.93,3.93,0,0,0,205.85,65.12Z"/><path class="cls-72" d="M179.33,63.58s4.64-2.75,12.55-1.18l-1.47-1.13A13,13,0,0,0,179.33,63.58Z"/><path class="cls-72" d="M201.31,66.77a12.35,12.35,0,0,1,8.06-1l-1.79-1.35S204.67,64,201.31,66.77Z"/><path class="cls-11" d="M184.35,63.58a2.72,2.72,0,0,1,2.4.89A2.16,2.16,0,0,1,184.35,63.58Z"/><path class="cls-11" d="M203,67.32s2-.39,2.67.53C205.68,67.85,204.62,68.59,203,67.32Z"/><path class="cls-73" d="M179.8,64.05a18,18,0,0,0,9.38,4.51l.15-2.15-.53.91S183.25,67,179.8,64.05Z"/><path class="cls-73" d="M201.31,67.7s.64,2.36,5.34,3.42L206.5,70l-.26.41S202.9,69.94,201.31,67.7Z"/><path class="cls-74" d="M191.88,77.11a16.33,16.33,0,0,1,5,0c3.22.38,6.84,1.28,8.82,0,0,0-2.63,2.68-4.91,3.09S195,78.57,195,78.57l-1.51,0A4.14,4.14,0,0,1,191.88,77.11Z"/><path class="cls-75" d="M193.73,78.59a2.37,2.37,0,0,1,1.45-.39c.67.13,1.34,1.11,1.34,1.11A6.55,6.55,0,0,0,193.73,78.59Z"/><path class="cls-76" d="M205.68,77.11c.84-.84-3.52-8.75-5.6-9s-4,8.87-4,8.87,2.89.42,5.71.8S205.68,77.11,205.68,77.11Z"/><path class="cls-77" d="M208.79,52.19c-1.18-.15-5.35,5-5.35,5s-2.65,8.37-2.13,10.84,7,3.81,7,3.81l.27-.44h0a13.14,13.14,0,0,1-.79-2.51c-.51-2.57.58-8.43,1.37-13.23a10.05,10.05,0,0,0,.29-1.91C209.44,53,209.33,52.25,208.79,52.19Z"/><path class="cls-78" d="M208.6,86.18c-1.33-2.83-.51-4.31-12.06-5.85-16.35-2.19-17.75,2.9-20.53,2.12a2.67,2.67,0,0,1-.33-.12c-3-1.19-10.1-8.3-10.28-17.87-.19-10,6.35-17,6.35-17-2.37-2-3.32-7.91-.76-10.43s6.92-1.93,17.62-.78,10.71.49,10.71.49c3.4.89,5.35,4.14,5.9,5.18.11.21.16.33.16.33L206.71,41a18.06,18.06,0,0,1,2.94,11.11s5.87-12.18,5.2-13.9A46.13,46.13,0,0,0,210,30.08h0s-1-9.27-3.79-9.27-15,2.79-15,2.79a17.87,17.87,0,0,0,1.14-6.85l-.05.05c-4,3.62-7.83,4-13.31,6.61a13.88,13.88,0,0,0-5.13,3.79l-.37.45-.39.48c-.38.49-.77,1-1.24,1.5l-.06.06,0,0a15.72,15.72,0,0,1-1.59,1.52c-3.6,3-11.52,5-12.47,8.14s1.2,7.47,2.34,11.91a24.66,24.66,0,0,1,.61,8.37,16.7,16.7,0,0,1,2.52,12.21c-1.11,6.49-3.54,7.55-3.54,7.55a11.35,11.35,0,0,0-.9,6.93c3.5,14.19,18,22.64,18,22.64,12.88,4.89,21.35,2.76,21.35,2.76h0c9.37-6.23,12.58-26.84,12.72-27.8C210.69,84.18,209,86.94,208.6,86.18Zm-5.78,13.14c-2.27-.38-2.75-6.25-3.5-7s-4.87-.45-4.87-.45-3.79,4.39-5.3,4.51-9.6-3.22-7.85-8.24,7.85-5.67,7.85-5.67a14.68,14.68,0,0,0,7.89,3c4.74.32,6.45-.57,7-.83s3.62,1.16,3.54,5.54C207.54,93.23,205.1,99.71,202.82,99.32Z"/><path class="cls-79" d="M202.23,69.82s4.09,5.17,3.7,7.11c-.43,2.13-5.16,3.27-5.16,3.27s3.79-1.34,4.57-3.27A25.8,25.8,0,0,0,202.23,69.82Z"/><path class="cls-80" d="M209.65,52.09A18.06,18.06,0,0,0,206.71,41,30.08,30.08,0,0,0,210,30.07h0a37.92,37.92,0,0,1,1.54,7.23l3.28.88C215.52,39.91,209.65,52.09,209.65,52.09Z"/><path class="cls-81" d="M205.22,41.91c-.55-1-2.5-4.29-5.9-5.18,0,0,0,.68-10.71-.49S173.55,34.51,171,37s-1.61,8.4.76,10.43c0,0-6.54,7-6.35,17,.18,9.57,7.27,16.68,10.28,17.87l-.14,1.06s.53,21.92,5.76,23.66,16.06.84,17.07,1.87-.14,2.66-.24,2.81h0s-8.47,2.13-21.35-2.76c0,0-14.48-8.45-18-22.64a11.35,11.35,0,0,1,.9-6.93s2.43-1.06,3.54-7.55a16.7,16.7,0,0,0-2.52-12.21,24.66,24.66,0,0,0-.61-8.37c-1.14-4.44-3.29-8.76-2.34-11.91a13.45,13.45,0,0,0,10-2.25s1.06-1.5,5.75-2.27S197.09,36,197.09,36a16.07,16.07,0,0,0-5.87-2.66c-3.76-1-16.6.16-18,.27,1.47-.26,16-2.81,17.69-2.3S199,34.8,199,34.8c-.57-2.95-6.21-10-6.21-10A87.35,87.35,0,0,0,179.61,26a16.9,16.9,0,0,0-7.7,3.61l1.24-1.5.39-.48.37-.45,1.82-.32,9.14-3.76c3.07-1.67,7-5.81,7.48-6.32l.05-.05a17.87,17.87,0,0,1-1.14,6.85c7.72-1,10.33-.48,10.33-.48C205.1,28.18,205.22,41.91,205.22,41.91Z"/><path class="cls-82" d="M176.77,109a47.58,47.58,0,0,1,11.88-.85c7.14.29,11.24.32,9.47,3.61C198.12,111.74,189.15,113.81,176.77,109Z"/><path class="cls-83" d="M201.59,23.11s4.35-1.73,6.06-1.44a3.43,3.43,0,0,0-1.39-1.12c-.71-.19-15,3-15,3S200.17,22.53,201.59,23.11Z"/><path class="cls-84" d="M192.78,24.75s-.34,4.82-1.85,6.57l-17.69,2.3-5.19-.93a13,13,0,0,0,4.22-3.5C174.48,26.56,186,24,192.78,24.75Z"/><path class="cls-85" d="M210,30.07a41.29,41.29,0,0,1,1.55,7.24l3.28.88A24,24,0,0,0,210,30.07Z"/><path class="cls-86" d="M161.82,71.12S160.58,65,157.53,62A7.07,7.07,0,0,0,151,60S152,71.26,153,74s2.51,3.47,2.51,3.47A8.7,8.7,0,0,1,153,71.86c-.28-3.74-.38-9,.43-9.63s4.06,1.82,4.06,1.82a11.21,11.21,0,0,0-1.65,4.61c-.61,3.33,1.66,5.74,2.51,5.69s0-3.84.1-4.94S160.52,68.56,161.82,71.12Z"/><path class="cls-87" d="M158.78,63.55a7.65,7.65,0,0,0-3,6.81c.36,4.57,2.92,4.37,2.93,3.41s-.49-3.43-.23-4.83,2.48-.76,2.48-.76A34,34,0,0,0,158.78,63.55Z"/><path class="cls-88" d="M210.85,83.93s-4.13,19.24-12.73,27.81C198.12,111.74,207.92,107.82,210.85,83.93Z"/><path class="cls-88" d="M206.26,20.55s2.18,1.73,2.6,7.75S206.71,41,206.71,41a24.43,24.43,0,0,0,3.6-10.46C210.62,25,208,21.24,206.26,20.55Z"/><path class="cls-89" d="M179.83,33.14a50,50,0,0,0,10.58,2.26l6.68.61s-2.22-2.2-7-2.87A47.25,47.25,0,0,0,179.83,33.14Z"/><path class="cls-90" d="M204.23,84.35s2.41,0,3.36,3.09a26.23,26.23,0,0,1,1,4.59l.86-3.39s-1.12-4.29-2.28-5.26c-.83-.69-2.27-1.4-3-1.23Z"/><path class="cls-91" d="M197.71,81.26l.41,3.67a12.62,12.62,0,0,0,4.89-.58l.35-2.22A26.48,26.48,0,0,0,197.71,81.26Z"/><path class="cls-88" d="M211.14,128.7s17.23,12.83,19.47,17.24,3.14,18.25,6.16,24.24c0,0-2.07-9.79-3.52-17.48s-1.1-7.79-1.9-9.67S217.67,132,211.14,128.7Z"/><path class="cls-88" d="M208.06,200.11s-8.31,36.24-7.93,38.69,5.75,7.44,6,8.81c0,0-4.11,5.61-3.92,6.85s7.2,9.1,7,11.53c-.05.71-4.6,8.35-4.6,8.35s5.14-7.51,5.39-8.71-6.29-11.24-6.48-12.26c-.5-2.65,3.26-4.59,3.39-6.33s-5.1-6-5.14-8.82S208.06,200.11,208.06,200.11Z"/><path class="cls-88" d="M209.74,286.5s17.95,41.43,24.07,82.86C233.81,369.36,232.79,328.93,209.74,286.5Z"/><path class="cls-76" d="M95.93,120.38s-4.64-1-6.57-5.14-.67-10.11-.67-10.11a105.31,105.31,0,0,0,5.45,9.54C96,117.09,96.44,119.86,95.93,120.38Z"/><path class="cls-92" d="M252.73,99.93l2.52,93.6c.1,3.71,2.44,6.65,5.3,6.65h124c2.88,0,5.24-3,5.31-6.73l1.73-94.69c.07-3.89-2.34-7.09-5.34-7.06L258,92.79C255,92.82,252.62,96.05,252.73,99.93Z"/><path class="cls-93" d="M384.52,200.43h-124c-3,0-5.39-3-5.49-6.9l-2.53-93.59a8.39,8.39,0,0,1,1.53-5.2,4.94,4.94,0,0,1,3.93-2.2l128.23-1.1a5,5,0,0,1,4,2.14,8.44,8.44,0,0,1,1.58,5.19L390,193.45C390,197.37,387.54,200.43,384.52,200.43ZM386.26,92h0L258,93.05a4.61,4.61,0,0,0-3.65,2,7.81,7.81,0,0,0-1.42,4.83l2.53,93.6c.1,3.59,2.34,6.4,5.1,6.4h124c2.75,0,5-2.9,5.11-6.48l1.73-94.69a7.68,7.68,0,0,0-1.46-4.81A4.59,4.59,0,0,0,386.26,92Z"/><path class="cls-94" d="M252.91,104.7h138.5l.23-4.94c.19-4.36-2.49-8-5.85-8L257.61,93.08c-2.68,0-4.82,2.89-4.77,6.37Z"/><polygon class="cls-95" points="259.88 112.25 259.88 166.41 302.27 166.41 302.27 111.97 259.88 112.25"/><rect class="cls-96" x="343.24" y="115.88" width="18.44" height="23.98"/><rect class="cls-97" x="365" y="115.88" width="18.44" height="23.98"/><rect class="cls-98" x="321.12" y="115.88" width="18.44" height="23.98"/><rect class="cls-99" x="336.28" y="153.85" width="47.16" height="5.75"/><rect class="cls-99" x="324.49" y="162.59" width="58.95" height="1.78"/><rect class="cls-99" x="325.04" y="142.93" width="11.28" height="1.78"/><rect class="cls-99" x="346.82" y="142.93" width="11.28" height="1.78"/><rect class="cls-99" x="368.58" y="142.93" width="11.28" height="1.78"/><rect class="cls-99" x="321.12" y="165.48" width="18.96" height="1.78"/><rect class="cls-99" x="324.49" y="168.34" width="58.95" height="1.78"/><rect class="cls-99" x="321.12" y="171.19" width="62.32" height="1.78"/><rect class="cls-99" x="321.12" y="174.05" width="62.32" height="1.78"/><rect class="cls-99" x="324.49" y="185.6" width="58.95" height="1.78"/><rect class="cls-99" x="321.12" y="188.45" width="62.32" height="1.78"/><rect class="cls-99" x="321.12" y="191.31" width="62.32" height="1.78"/><rect class="cls-99" x="321.12" y="176.91" width="59.81" height="1.78"/><rect class="cls-99" x="324.49" y="179.76" width="58.95" height="1.78"/><rect class="cls-99" x="321.12" y="182.62" width="50.49" height="1.78"/><g class="cls-100"><path class="cls-101" d="M271.75,155.55c-6.65,0-12.06-7-12.06-15.68s5.41-15.69,12.06-15.69,12.06,7,12.06,15.69S278.4,155.55,271.75,155.55Zm0-30.35c-6.21,0-11.27,6.58-11.27,14.67s5.06,14.66,11.27,14.66S283,148,283,139.87,278,125.2,271.75,125.2Z"/></g><ellipse class="cls-11" cx="271.75" cy="139.87" rx="6.55" ry="8.52"/><g class="cls-100"><path class="cls-101" d="M302.27,127.65c-6.65,0-12.06-7-12.06-15.68s5.41-15.69,12.06-15.69,12.06,7,12.06,15.69S308.92,127.65,302.27,127.65Zm0-30.35C296.05,97.3,291,103.88,291,112s5.06,14.66,11.28,14.66,11.28-6.58,11.28-14.66S308.49,97.3,302.27,97.3Z"/></g><ellipse class="cls-11" cx="302.27" cy="111.97" rx="6.17" ry="8.02"/><g class="cls-100"><polygon class="cls-11" points="257.76 97.35 258.65 95.61 263.41 101.04 262.68 102.37 257.76 97.35"/><polygon class="cls-11" points="263.53 97.35 262.65 95.61 257.89 101.04 258.62 102.37 263.53 97.35"/></g><rect class="cls-11" x="345.38" y="96.79" width="42.68" height="2.78"/><polygon class="cls-102" points="72.37 55.87 72.37 79.95 100.62 80.2 101 55.1 72.37 55.87"/><polygon class="cls-103" points="101 55.1 102.85 58.26 101.93 80.18 100.62 80.2 101 55.1"/><polygon class="cls-11" points="77.41 64 80.02 60.14 94.13 72.21 91.97 75.15 77.41 64"/><polygon class="cls-11" points="94.5 64 91.89 60.14 77.78 72.21 79.94 75.15 94.5 64"/><path class="cls-104" d="M152.91,339.74H56.22a8,8,0,0,1-7.92-7.89L46.5,251a8,8,0,0,1,7.91-8.26H155.08A8,8,0,0,1,163,251l-2.18,80.86A8,8,0,0,1,152.91,339.74Z"/><path class="cls-105" d="M152.91,340H56.22a8.29,8.29,0,0,1-8.17-8.13L46.25,251a8.34,8.34,0,0,1,2.32-6,8,8,0,0,1,5.84-2.51H155.08a8,8,0,0,1,5.86,2.52,8.37,8.37,0,0,1,2.31,6l-2.18,80.85A8.19,8.19,0,0,1,152.91,340Zm-98.5-97a7.51,7.51,0,0,0-5.48,2.35A7.81,7.81,0,0,0,46.75,251l1.8,80.85a7.79,7.79,0,0,0,7.67,7.65h96.69a7.7,7.7,0,0,0,7.66-7.61L162.75,251a7.87,7.87,0,0,0-2.17-5.66,7.54,7.54,0,0,0-5.5-2.37Z"/><rect class="cls-11" x="72.56" y="259.27" width="50.85" height="2.22"/><rect class="cls-11" x="72.56" y="264.67" width="25.42" height="2.22"/><rect class="cls-11" x="72.56" y="269.18" width="25.42" height="2.22"/><rect class="cls-11" x="100.84" y="269.18" width="20.23" height="2.22"/><rect class="cls-11" x="72.56" y="273.69" width="40.99" height="2.22"/><rect class="cls-11" x="72.56" y="278.2" width="14.59" height="2.22"/><rect class="cls-11" x="90.15" y="291.72" width="25.23" height="2.22"/><rect class="cls-11" x="72.56" y="282.7" width="45.73" height="2.22"/><rect class="cls-11" x="72.56" y="287.21" width="35.18" height="2.22"/><rect class="cls-11" x="72.56" y="291.72" width="16.55" height="2.22"/><rect class="cls-11" x="72.56" y="296.23" width="25.42" height="2.22"/><rect class="cls-11" x="72.56" y="300.73" width="7.29" height="2.22"/><rect class="cls-11" x="82.85" y="300.73" width="26.46" height="2.22"/><rect class="cls-11" x="90.15" y="305.11" width="25.23" height="2.22"/><rect class="cls-11" x="72.56" y="305.11" width="16.55" height="2.22"/><rect class="cls-11" x="72.56" y="309.61" width="25.42" height="2.22"/><rect class="cls-11" x="72.56" y="314.12" width="7.29" height="2.22"/><rect class="cls-11" x="82.85" y="314.12" width="26.46" height="2.22"/><path class="cls-106" d="M326.61,75.52A4.47,4.47,0,1,1,322.14,71,4.51,4.51,0,0,1,326.61,75.52Z"/><path class="cls-107" d="M11.12,179a5.62,5.62,0,0,1-5.56,5.67,5.67,5.67,0,0,1,0-11.34A5.62,5.62,0,0,1,11.12,179Z"/><ellipse class="cls-108" cx="335.27" cy="75.52" rx="4.47" ry="4.56"/><ellipse class="cls-109" cx="132.84" cy="104.61" rx="3.16" ry="3.22"/><ellipse class="cls-110" cx="323.96" cy="243.18" rx="3.16" ry="3.22"/><ellipse class="cls-111" cx="15.98" cy="278.9" rx="2.82" ry="2.88"/><path class="cls-112" d="M64.13,250.62H15.33a7.36,7.36,0,0,1-7.28-7.18L7,210.72A7.36,7.36,0,0,1,14.25,203H65.11a7.36,7.36,0,0,1,7.28,7.66l-1,32.72A7.35,7.35,0,0,1,64.13,250.62Z"/><path class="cls-113" d="M64.13,250.87H15.33a7.58,7.58,0,0,1-7.53-7.42L6.72,210.73a7.71,7.71,0,0,1,2.11-5.6,7.42,7.42,0,0,1,5.42-2.34H65.11a7.41,7.41,0,0,1,5.41,2.33,7.73,7.73,0,0,1,2.12,5.58l-1,32.73A7.56,7.56,0,0,1,64.13,250.87ZM14.25,203.3a7,7,0,0,0-5.06,2.18,7.16,7.16,0,0,0-2,5.23L8.3,243.44a7.08,7.08,0,0,0,7,6.93h48.8a7.07,7.07,0,0,0,7-7l1-32.72a7.15,7.15,0,0,0-2-5.21,6.9,6.9,0,0,0-5-2.18Z"/><polygon class="cls-11" points="28.34 214.8 16.31 229.02 28.56 239.63 28.56 234.15 21.48 227.9 28.06 220.31 28.34 214.8"/><polygon class="cls-11" points="49.49 215.44 61.52 229.66 49.27 240.26 49.27 234.79 56.36 228.53 48.47 220.02 49.49 215.44"/><polygon class="cls-11" points="30.96 239.63 41.45 216.08 46.37 216.08 34.5 239.63 30.96 239.63"/><path class="cls-114" d="M338.73,314.68H277.68a9.19,9.19,0,0,1-9.1-9l-1.36-40.93a9.22,9.22,0,0,1,9.11-9.61H340a9.22,9.22,0,0,1,9.11,9.58l-1.23,40.93A9.2,9.2,0,0,1,338.73,314.68Z"/><path class="cls-113" d="M338.73,314.93H277.68a9.41,9.41,0,0,1-9.35-9.22L267,264.78a9.61,9.61,0,0,1,2.63-7,9.19,9.19,0,0,1,6.73-2.91H340a9.21,9.21,0,0,1,6.72,2.9,9.59,9.59,0,0,1,2.64,6.93l-1.23,40.94A9.41,9.41,0,0,1,338.73,314.93Zm-62.4-59.51a8.72,8.72,0,0,0-6.37,2.75,9.06,9.06,0,0,0-2.49,6.59l1.36,40.94a8.91,8.91,0,0,0,8.85,8.73h61.05a8.91,8.91,0,0,0,8.86-8.76l1.23-40.94a9.09,9.09,0,0,0-2.5-6.57,8.69,8.69,0,0,0-6.36-2.74Z"/><rect class="cls-99" x="279.46" y="261.75" width="55.91" height="33.86"/><polygon class="cls-11" points="302.46 270.15 302.46 287.21 316.75 277.9 302.46 270.15"/><rect class="cls-99" x="279.46" y="301.85" width="55.91" height="3.1"/><rect class="cls-11" x="279.46" y="301.85" width="14.47" height="3.1"/><path class="cls-115" d="M254.64,252.68l-2.92,8.51C253.33,256.48,255.65,253.43,254.64,252.68Zm-2.92,8.51-2.92,8.51C249.53,269.47,250.1,265.89,251.72,261.19Zm2.92-8.51-2.92,8.51C253.33,256.48,255.65,253.43,254.64,252.68Zm-2.92,8.51-2.92,8.51C249.53,269.47,250.1,265.89,251.72,261.19Zm8.42,7.37L263,270.2l3.06-8.51-3.28-.56c.06-.32.12-.64.16-.95a22.08,22.08,0,0,0,.27-4.24l3.43-2.2-1.56-7.5-3.29,3.21a9.52,9.52,0,0,0-1.68-2.5,7.66,7.66,0,0,0-.57-.57l2-4.73-5.34-1.77h0l-1.29,4.77a8.79,8.79,0,0,0-3.62.86l-.59-4.51-5.89,4.55,1.36,4a22.65,22.65,0,0,0-2.87,4.26l-2.84-1.63-3,8.52,3.27.56a23.41,23.41,0,0,0-.43,5.19l-3.43,2.19,1.56,7.5,3.29-3.2a9.43,9.43,0,0,0,2.25,3.05l-2,4.74,5.26,2.09.82-3,.55-2.06a9,9,0,0,0,3.63-.86l.58,4.5,5.89-4.54-1.36-4a23.12,23.12,0,0,0,2.32-3.26C259.78,269.24,260,268.9,260.14,268.56Zm-8.42-7.37c-1.62,4.7,0,9.55-2.92,8.51s-4-5.71-2.39-10.4,5.3-7.67,8.23-6.62S253.33,256.48,251.72,261.19Zm2.92-8.51-2.92,8.51C253.33,256.48,255.65,253.43,254.64,252.68Zm-2.92,8.51-2.92,8.51C249.53,269.47,250.1,265.89,251.72,261.19Z"/><path class="cls-116" d="M263,270.2l3.06-8.51-3.12-1.51-.51-.24.33-4.69,3.46-1.72-1.14-7.29-7.55-2.5,1.39,3.38,2.63-5.47-5.34-1.77-2.2-.73-5.27-2.1-1,3.67-4.58-2.22L237.26,243l1.79,4.91-5.51,15.57-2.72,10.1,5.23.59-1.7,4,5.27,2.1,7.54,2.5L246,280.34l-.76-1.48,2.79.93,4.76,1.58,5.89-4.54L255,272.45l4.6-2.88Zm-16.57-10.9c1.62-4.71,5.3-7.67,8.23-6.62l-2.92,8.51-2.92,8.51C245.87,268.65,244.8,264,246.41,259.3Z"/><path class="cls-117" d="M255.43,267.69l3.06-8.52-3.28-.55a23.49,23.49,0,0,0,.44-5.19l3.43-2.19-1.57-7.5-3.28,3.2a9.47,9.47,0,0,0-2.25-3.06l2-4.73-5.27-2.1-1.36,5.09a8.8,8.8,0,0,0-3.63.86l-.58-4.5L237.26,243l1.36,4a23.61,23.61,0,0,0-2.88,4.27l-2.83-1.63-3.06,8.51,3.28.56a23.44,23.44,0,0,0-.44,5.19l-3.43,2.19,1.56,7.5,3.29-3.2a9.47,9.47,0,0,0,2.25,3.06l-2,4.73,5.27,2.1,1.36-5.09a8.8,8.8,0,0,0,3.63-.86l.58,4.5,5.89-4.54-1.36-4a23.61,23.61,0,0,0,2.88-4.27Zm-14.18-.5c-2.93-1.05-4-5.71-2.38-10.4s5.29-7.67,8.22-6.62,4,5.7,2.38,10.4S244.18,268.23,241.25,267.19Z"/><polygon class="cls-118" points="266.62 253.74 259.08 251.24 255.65 253.43 263.19 255.94 266.62 253.74"/><polygon class="cls-119" points="258.63 276.83 251.08 274.32 249.72 270.33 257.27 272.83 258.63 276.83"/><polygon class="cls-118" points="251.98 243.88 256.12 245.1 257.51 243.74 260.26 244.65 261.54 241.65 253.99 239.15 251.98 243.88"/><path class="cls-118" d="M241,275.22l4,1.68-.33-2.54A7,7,0,0,1,241,275.22Z"/><path class="cls-118" d="M241.59,252.16l6.66,3.58a10.32,10.32,0,0,1,1.71-1.85S248.22,246.41,241.59,252.16Z"/><polygon class="cls-120" points="126.42 0 132.84 13.1 128.56 15.09 122.56 3.05 126.42 0"/><polygon class="cls-121" points="283.75 79.94 277.77 83.64 275.38 79.01 281.91 75.11 283.75 79.94"/><polygon class="cls-122" points="287.05 50.78 285.61 16.46 329.68 16.46 327.86 50.68 287.05 50.78"/><polygon class="cls-123" points="285.61 16.46 284.29 18.49 285.61 50.78 287.05 50.78 285.61 16.46"/><polygon class="cls-11" points="300.24 23.32 293.32 22.56 294.27 46.08 300.24 45.48 300.24 43.05 296.78 43.13 296.39 25 300.24 25.11 300.24 23.32"/><polygon class="cls-11" points="314.4 23.32 321.32 22.56 320.37 46.08 314.4 45.48 314.4 43.05 317.86 43.13 318.25 25 314.4 25.11 314.4 23.32"/><polygon class="cls-124" points="48.68 40.58 49.66 17.18 19.62 17.18 20.86 40.51 48.68 40.58"/><polygon class="cls-125" points="49.66 17.18 50.56 18.57 49.66 40.58 48.68 40.58 49.66 17.18"/><path class="cls-11" d="M38.09,21.89A19.34,19.34,0,0,1,42,22c.58.27-.16,5.74-.16,5.74L43.13,29,41.9,30.22s.07,5.55-.71,6-3.42,0-3.42,0V34.85a7.64,7.64,0,0,0,2.52-.16c.35-.3.32-5.14.32-5.14l.58-.65-.58-.7s.11-3.46,0-4.4c0-.64-2.56-.67-2.56-.67Z"/><path class="cls-11" d="M30.54,21.89a19.23,19.23,0,0,0-3.87.15c-.58.27.15,5.74.15,5.74L25.51,29l1.22,1.21s-.06,5.55.71,6,3.43,0,3.43,0V34.85a7.63,7.63,0,0,1-2.52-.16c-.36-.3-.32-5.14-.32-5.14l-.59-.65.59-.7s-.11-3.46-.05-4.4c.05-.64,2.56-.67,2.56-.67Z"/><path class="cls-93" d="M258,47.22,250.6,27.58l19.09,4.06Zm-6.57-18.95,6.72,17.92L268.81,32Z"/><polygon class="cls-93" points="310.73 325.75 310.32 325.45 316.8 316.46 317.2 316.76 310.73 325.75"/><polygon class="cls-93" points="250.02 242.81 243.07 233.99 243.46 233.67 250.41 242.49 250.02 242.81"/><polygon class="cls-93" points="35.69 304.71 21.82 294.46 22.12 294.05 35.98 304.3 35.69 304.71"/><polygon class="cls-93" points="23.91 306.48 23.51 306.17 33.89 292.28 34.29 292.59 23.91 306.48"/><polygon class="cls-93" points="13.31 154.32 4.34 149.51 4.57 149.06 13.55 153.87 13.31 154.32"/><polygon class="cls-93" points="358.15 30.95 357.78 30.61 368.15 18.55 368.52 18.89 358.15 30.95"/><polygon class="cls-93" points="160.88 69.85 156.24 60.35 156.69 60.12 161.33 69.62 160.88 69.85"/><polygon class="cls-93" points="83.2 230.57 82.88 230.18 94.8 220.01 95.12 220.41 83.2 230.57"/></g></g></g></svg>
