<svg xmlns="http://www.w3.org/2000/svg" viewBox="0 0 165 165"><defs><style>.cls-1{fill:none;}.cls-2{fill:#b5b5b5;}.cls-3{fill:#f3be00;}.cls-4{fill:#004ca0;}.cls-5{fill:#f3f3f5;}.cls-6{fill:#005eb1;}.cls-7{fill:#2b2e37;}.cls-8{fill:#3193da;}</style></defs><g id="Layer_2" data-name="Layer 2"><g id="OBJECTS"><rect class="cls-1" width="165" height="165"/><ellipse class="cls-2" cx="82.5" cy="111.55" rx="70" ry="2.54"/><path class="cls-3" d="M97.88,52.9l5.21.13a2.28,2.28,0,0,1,2.19,1.84L108.05,69a5.27,5.27,0,0,0,5.17,4.25h0a5.25,5.25,0,0,0,5-3.5l5.42-15.23a2.2,2.2,0,0,1,2.8-1.34l14.83,5.25a4.52,4.52,0,0,1,2.82,3l.63,2.21v-4a2.69,2.69,0,0,0-1.75-2.52l-15.69-5.93a4.25,4.25,0,0,0-5.53,2.61l-5.29,15.58a3.32,3.32,0,0,1-3.14,2.24h0A3.32,3.32,0,0,1,110,69l-3-14.55a4,4,0,0,0-3.91-3.19H98.49a6.74,6.74,0,0,0-5,2.27h0A13.59,13.59,0,0,1,97.88,52.9Z"/><path class="cls-3" d="M113.38,90.25,98.61,92.54a57.78,57.78,0,0,1-8.51.68l-18.56.1c-1.82,0-3.63-.06-5.44-.22L39.91,90.76a13.81,13.81,0,0,1-4.63-1.27L27.6,85.82a7,7,0,0,1-3.66-4.32,10.07,10.07,0,0,0-1.48.9,7.1,7.1,0,0,0,3.81,4.69l8.42,4.06a13.52,13.52,0,0,0,4.62,1.26L65.5,94.75c1.81.16,3.63.24,5.45.23l18.55-.1A59.31,59.31,0,0,0,98,94.2l14.76-2.29a4,4,0,0,1,4,1.81l3.67,6.27,1.22-.2-4.29-7.73A4,4,0,0,0,113.38,90.25Z"/><path class="cls-4" d="M112.78,91.91,98,94.2a59.31,59.31,0,0,1-8.52.68L71,95c-1.82,0-3.64-.07-5.45-.23L39.31,92.41a13.52,13.52,0,0,1-4.62-1.26l-8.42-4.06a7.1,7.1,0,0,1-3.81-4.69,11.16,11.16,0,0,0-3.33,3.85l-2.32,4.43,1.68,4.74,63.19,10.83L120.43,100l-3.67-6.27A4,4,0,0,0,112.78,91.91Z"/><path class="cls-4" d="M145.3,76.07a9.62,9.62,0,0,1-.63-3.44V68.45a3,3,0,0,0-.69,1.72l-.4,5.8a3.66,3.66,0,0,1-2,3l-9.78,5.11a7.89,7.89,0,0,0-3.66,4l-4.56,11.38,25.75-4.16.28-3.81a15.44,15.44,0,0,0-1-6.63Z"/><path class="cls-3" d="M131.84,84.09,141.62,79a3.66,3.66,0,0,0,2-3l.4-5.8a3,3,0,0,1,.69-1.72V67l-.16.1a3,3,0,0,0-1.42,2.36l-.4,5.8a3.68,3.68,0,0,1-2,3l-9.79,5.11a7.89,7.89,0,0,0-3.65,4l-5.14,12.34,1.47-.24,4.56-11.38A7.89,7.89,0,0,1,131.84,84.09Z"/><path class="cls-5" d="M130.94,83.36l9.79-5.11a3.68,3.68,0,0,0,2-3l.4-5.8a3,3,0,0,1,1.42-2.36l.16-.1V63.62L144,61.41a4.52,4.52,0,0,0-2.82-3l-14.83-5.25a2.2,2.2,0,0,0-2.8,1.34l-5.42,15.23a5.25,5.25,0,0,1-5,3.5h0A5.27,5.27,0,0,1,108.05,69l-2.77-14.11A2.28,2.28,0,0,0,103.09,53l-5.21-.13a13.59,13.59,0,0,0-4.44.62l-2.52,2.84a13.44,13.44,0,0,1-2.84,2.43L68.35,71.37a42,42,0,0,1-17.71,6.3l-23,2.7a10.85,10.85,0,0,0-3.73,1.13,7,7,0,0,0,3.66,4.32l7.68,3.67a13.81,13.81,0,0,0,4.63,1.27L66.1,93.1c1.81.16,3.62.23,5.44.22l18.56-.1a57.78,57.78,0,0,0,8.51-.68l14.77-2.29a4,4,0,0,1,4,1.81l4.29,7.73.5-.08,5.14-12.34A7.89,7.89,0,0,1,130.94,83.36Z"/><path class="cls-3" d="M116,99.28s-3.44-11.37-5.79-14.1h-1.67a39.22,39.22,0,0,1,5.67,14.31Z"/><path class="cls-3" d="M93,85.18c3,4.66,4.31,12.65,4.84,16.32l2.32-.29a46.75,46.75,0,0,0-5.09-16Z"/><path class="cls-6" d="M108.51,85.18H95.08a46.75,46.75,0,0,1,5.09,16l14-1.72A39.22,39.22,0,0,0,108.51,85.18Z"/><path class="cls-3" d="M49.89,92.06c2.56,4.31,5.42,10.11,5.42,10.11l1.5-.09q-2.33-5.13-5.12-10Z"/><path class="cls-3" d="M67.28,101.41a75.33,75.33,0,0,0-4.49-9.35H61.35q2.26,4.72,4.54,9.44Z"/><path class="cls-6" d="M61.35,92.06H51.69q2.79,4.89,5.12,10l9.08-.58Q63.62,96.78,61.35,92.06Z"/><path class="cls-5" d="M113.26,99.31h0a42.88,42.88,0,0,1-13.24,2.1H56.34a102.35,102.35,0,0,1-34.5-6,6.87,6.87,0,0,0,2.82,5.48h0a35.69,35.69,0,0,0,14.67,6.25l6.85,1.22a35.53,35.53,0,0,0,6.26.55h31.8a20,20,0,0,0,6.65-1.13l7.49-2.62a4.76,4.76,0,0,1,3,0l9,2.86a19.84,19.84,0,0,0,6.07.94h12.44a20,20,0,0,0,9.11-2.18l5.57-2.83a4.78,4.78,0,0,1,3.95-.18l4.6,1.84a4.7,4.7,0,0,0-.13-.63l-2.14-7.72H126.5A43.07,43.07,0,0,0,113.26,99.31Z"/><path class="cls-3" d="M21.84,95.42a102.35,102.35,0,0,0,34.5,6H100a42.88,42.88,0,0,0,13.24-2.1h0a43.07,43.07,0,0,1,13.24-2.09h23.4l-.53-1.91H124.69a41.13,41.13,0,0,0-12.7,2h0a41.18,41.18,0,0,1-12.7,2H57.39a98.26,98.26,0,0,1-35.55-6.66v2.75Z"/><path class="cls-7" d="M152.17,105.57l-4.6-1.84a4.78,4.78,0,0,0-3.95.18l-5.57,2.83a20,20,0,0,1-9.11,2.18H116.5a19.84,19.84,0,0,1-6.07-.94l-9-2.86a4.76,4.76,0,0,0-3,0l-7.49,2.62a20,20,0,0,1-6.65,1.13H52.44a35.53,35.53,0,0,1-6.26-.55l-6.85-1.22a35.69,35.69,0,0,1-14.67-6.25h0a6.87,6.87,0,0,1-2.82-5.48V92.67l-.73-.28-4.3-1.71a2,2,0,0,0-2.56,1.14l-.21.57-.91,2.49a5.8,5.8,0,0,0,3.08,7.31l3.72,1.67A88.39,88.39,0,0,0,56,111.55h91A5.21,5.21,0,0,0,152.17,105.57Z"/><path class="cls-8" d="M54.38,77.43A4.65,4.65,0,0,0,50.51,76l-9.68,1.12a4.65,4.65,0,0,0-3.35,2.06c3.26,2,7.51,8.15,10.82,13.6A3.17,3.17,0,0,0,51,94.35H64.53a1,1,0,0,0,.89-1.57C62.14,87.25,57.73,80.89,54.38,77.43Z"/><path class="cls-8" d="M88.5,59.06c5.49,3.69,18.72,16.63,24,26.5a1.5,1.5,0,0,1-1.32,2.2H94.05a3.14,3.14,0,0,1-2.52-1.27C88.86,82.9,80.84,72.62,73.38,68.16h0a4.07,4.07,0,0,1,1.88-3.42l9-5.72a3.86,3.86,0,0,1,3.37-.38h0A4.48,4.48,0,0,1,88.5,59.06Z"/><path class="cls-4" d="M130.31,64.22A3.57,3.57,0,0,1,127.69,63a8.59,8.59,0,0,1-1.36-2.37l-.26-.58a7,7,0,0,0-2.49,5.35v.19h6.73Z"/><path class="cls-4" d="M130.31,67.41V66.06h-6.7a7,7,0,0,0,2.74,4.9,8.52,8.52,0,0,1,1.34-2.32A3.64,3.64,0,0,1,130.31,67.41Z"/><path class="cls-4" d="M128.05,62.67a3.2,3.2,0,0,0,2.26,1.07V58.41a7,7,0,0,0-3.85,1.33c.11.21.21.44.31.68A8.42,8.42,0,0,0,128.05,62.67Z"/><path class="cls-4" d="M133.42,63a3.58,3.58,0,0,1-2.62,1.23v1.36h6.73v-.19A7,7,0,0,0,135,60l-.26.58A8.59,8.59,0,0,1,133.42,63Z"/><path class="cls-4" d="M133.06,62.67a8.42,8.42,0,0,0,1.28-2.25c.1-.24.2-.47.31-.68a7,7,0,0,0-3.85-1.33v5.33A3.2,3.2,0,0,0,133.06,62.67Z"/><path class="cls-4" d="M137.5,66.06h-6.7v1.35a3.66,3.66,0,0,1,2.62,1.23A8.52,8.52,0,0,1,134.76,71,7,7,0,0,0,137.5,66.06Z"/><path class="cls-4" d="M133.06,69a3.12,3.12,0,0,0-2.26-1.07v4.46a7,7,0,0,0,3.55-1.12v0A8.37,8.37,0,0,0,133.06,69Z"/><path class="cls-4" d="M128.05,69a8.37,8.37,0,0,0-1.28,2.24v0a7,7,0,0,0,3.55,1.12V67.9A3.12,3.12,0,0,0,128.05,69Z"/><path class="cls-8" d="M128,106.08H112.24l1.86-1.51a15.82,15.82,0,0,1,10-3.52h15.72l-1.87,1.5A15.81,15.81,0,0,1,128,106.08Z"/></g></g></svg>