<svg xmlns="http://www.w3.org/2000/svg" viewBox="0 0 165 165"><defs><style>.cls-1{fill:none;}.cls-2{fill:#80cbc4;}.cls-2,.cls-4,.cls-5{fill-rule:evenodd;}.cls-3{fill:#013668;}.cls-4{fill:#fcfcfc;}.cls-5{fill:#fac23c;}</style></defs><g id="Layer_2" data-name="Layer 2"><g id="OBJECTS"><rect class="cls-1" width="165" height="165"/><path class="cls-2" d="M92.14,83.74a3.88,3.88,0,0,0-1.93-1,4.46,4.46,0,0,0-2.11.12,4.41,4.41,0,0,0-.78.32A3.75,3.75,0,0,0,86,82a3.67,3.67,0,0,0-3-.22V76c0-.74-.13-4.22-3.81-4.07h-.09c-.76,0-3.68.3-3.68,4.15V88.7l-1.65-2.08a3.35,3.35,0,0,0-3.21-1.25,4.06,4.06,0,0,0-2.78,1.81,3.55,3.55,0,0,0-.13,3.65h0a1,1,0,0,0,.15.24l7,10.91c.42.83,4.32,7.75,14.27,5.72h0l.13,0c.76-.21,8.93-2.68,8.74-13.15h0v-7a1.12,1.12,0,0,0,0-.32,3.88,3.88,0,0,0-1.39-2.44,3.26,3.26,0,0,0-1.38-.63,3.66,3.66,0,0,0-1.4,0,4,4,0,0,0-1,.3A4.35,4.35,0,0,0,92.14,83.74Z"/><path class="cls-3" d="M77.38,100.73c.41.76,3.36,5.66,11,4.14h0s6.79-1.65,6.62-10.31h0v0h0V87.67a1.07,1.07,0,0,0-.28-.6.48.48,0,0,0-.18-.07.91.91,0,0,0-.33,0,2,2,0,0,0-1.18.74l-1.15-.89,1.15.89a1.46,1.46,0,0,1-2.6-1,1.2,1.2,0,0,0-.32-.89.92.92,0,0,0-.47-.24,1.51,1.51,0,0,0-.7,0,1.7,1.7,0,0,0-1,.91l-1.31-.63,1.31.63a1.45,1.45,0,0,1-2.76-.78,1.23,1.23,0,0,0-.52-1.18.83.83,0,0,0-.34-.1,1,1,0,0,0-.35.06c-.33.15-.61.57-.64,1.32l-1.45-.06,1.45.06a1.45,1.45,0,0,1-1.45,1.4h-.31a1.47,1.47,0,0,1-1.46-1.46V76.06s0-.1,0-.15c0-.22,0-1.1-.82-1.06h-.21c-.15,0-.73.12-.73,1.25V91.23c.06.65,0,2.67-2.4,2.22l.17-.94h0l-.17.94a1.42,1.42,0,0,1-1-.64l-3.47-4.39a.54.54,0,0,0-.51-.17,1.12,1.12,0,0,0-.44.17.84.84,0,0,0-.31.31.78.78,0,0,0,0,.76l7,11h0a1.15,1.15,0,0,1,.12.25Zm11.37,5.55L89,107.7c-10,2-13.85-4.89-14.27-5.72l-7-10.91a1,1,0,0,1-.15-.24h0a3.55,3.55,0,0,1,.13-3.65,4.06,4.06,0,0,1,2.78-1.81,3.35,3.35,0,0,1,3.21,1.25l1.65,2.08V76.1c0-3.85,2.92-4.14,3.68-4.15h.09C82.88,71.8,83,75.28,83,76V81.8A3.67,3.67,0,0,1,86,82a3.75,3.75,0,0,1,1.3,1.15,4.41,4.41,0,0,1,.78-.32,4.46,4.46,0,0,1,2.11-.12,3.88,3.88,0,0,1,1.93,1,4.35,4.35,0,0,1,.57.7,4,4,0,0,1,1-.3,3.66,3.66,0,0,1,1.4,0,3.26,3.26,0,0,1,1.38.63,3.88,3.88,0,0,1,1.39,2.44,1.12,1.12,0,0,1,0,.32v7h0c.19,10.47-8,12.94-8.74,13.15l-.13,0Z"/><path class="cls-3" d="M67.28,68.55A1.45,1.45,0,1,0,69.79,70a9.95,9.95,0,0,1,13.6-3.64,1.46,1.46,0,0,0,1.46-2.52,12.85,12.85,0,0,0-17.57,4.71Z"/><path class="cls-3" d="M76.78,67A1.45,1.45,0,0,0,78,69.62l6.71-3.21h0a1.45,1.45,0,0,0,.69-1.94l-.06-.12-3.16-6.59A1.45,1.45,0,0,0,79.6,59l2.59,5.41Z"/><path class="cls-3" d="M51.22,13.28h62.56a9.36,9.36,0,0,1,9.33,9.33V142.39a9.36,9.36,0,0,1-9.33,9.33H51.22a9.36,9.36,0,0,1-9.33-9.33V22.61a9.36,9.36,0,0,1,9.33-9.33Zm62.56,2.91H51.22a6.44,6.44,0,0,0-6.41,6.42V142.39a6.44,6.44,0,0,0,6.41,6.42h62.56a6.44,6.44,0,0,0,6.41-6.42V22.61a6.44,6.44,0,0,0-6.41-6.42Z"/><path class="cls-3" d="M43.35,29.3a1.46,1.46,0,0,0,0,2.92h78.3a1.46,1.46,0,0,0,0-2.92Z"/><path class="cls-3" d="M43.35,132.78a1.46,1.46,0,1,0,0,2.92h78.3a1.46,1.46,0,0,0,0-2.92Z"/><path class="cls-3" d="M70.55,21.29a1.46,1.46,0,1,0,0,2.91h23.9a1.46,1.46,0,1,0,0-2.91Z"/><path class="cls-3" d="M76.87,140.8a1.46,1.46,0,1,0,0,2.91H88.13a1.46,1.46,0,1,0,0-2.91Z"/><path class="cls-3" d="M82.5,48.15A34.35,34.35,0,1,1,58.21,58.21,34.29,34.29,0,0,1,82.5,48.15Zm22.23,12.12a31.46,31.46,0,1,0,9.2,22.23A31.37,31.37,0,0,0,104.73,60.27Z"/><path class="cls-2" d="M44.81,29.3h75.38V22.61a6.44,6.44,0,0,0-6.41-6.42H51.22a6.44,6.44,0,0,0-6.41,6.42V29.3Zm49.64-8a1.46,1.46,0,1,1,0,2.91H70.55a1.46,1.46,0,1,1,0-2.91Z"/><path class="cls-4" d="M120.19,32.22H44.81V132.78h75.38V32.22ZM82.5,48.15A34.35,34.35,0,1,1,58.21,58.21,34.29,34.29,0,0,1,82.5,48.15Z"/><path class="cls-5" d="M104.73,60.27a31.46,31.46,0,1,0,9.2,22.23,31.37,31.37,0,0,0-9.2-22.23Zm-19.29,4.2a1.45,1.45,0,0,1-.69,1.94h0l-.08,0L78,69.62A1.45,1.45,0,0,1,76.78,67l3.69-1.76A9.95,9.95,0,0,0,69.79,70a1.45,1.45,0,1,1-2.51-1.45,12.87,12.87,0,0,1,14-6.13L79.6,59a1.45,1.45,0,0,1,2.62-1.25l3.16,6.59.06.12Zm11,20.3a3.88,3.88,0,0,1,1.39,2.44,1.12,1.12,0,0,1,0,.32v7h0c.19,10.47-8,12.94-8.74,13.15l-.13,0h0c-10,2-13.85-4.89-14.27-5.72l-7-10.91a1,1,0,0,1-.15-.24h0a3.55,3.55,0,0,1,.13-3.65,4.06,4.06,0,0,1,2.78-1.81,3.35,3.35,0,0,1,3.21,1.25l1.65,2.08V76.1c0-3.85,2.92-4.14,3.68-4.15h.09C82.88,71.8,83,75.28,83,76V81.8A3.67,3.67,0,0,1,86,82a3.75,3.75,0,0,1,1.3,1.15,4.41,4.41,0,0,1,.78-.32,4.46,4.46,0,0,1,2.11-.12,3.88,3.88,0,0,1,1.93,1,4.35,4.35,0,0,1,.57.7,4,4,0,0,1,1-.3,3.66,3.66,0,0,1,1.4,0A3.26,3.26,0,0,1,96.49,84.77Z"/><path class="cls-2" d="M120.19,135.7H44.81v6.69a6.44,6.44,0,0,0,6.41,6.42h62.56a6.44,6.44,0,0,0,6.41-6.42V135.7Zm-32.06,5.1a1.46,1.46,0,1,1,0,2.91H76.87a1.46,1.46,0,1,1,0-2.91Z"/></g></g></svg>