<svg class="icon" xmlns="http://www.w3.org/2000/svg" viewBox="0 0 147.2 147.56"><defs><style>.cls-1,.cls-2{fill:#06D755;}.cls-2{fill-rule:evenodd;}</style></defs><g id="Layer_2" data-name="Layer 2"><g id="Layer_1-2" data-name="Layer 1"><path class="cls-1" d="M0,147.56l10.58-39.47a73,73,0,1,1,29.1,28.85Zm41.65-25.42,2.5,1.49a59.3,59.3,0,1,0-20.29-20.1L25.39,106l-5.9,22Z"/><path class="cls-2" d="M101.43,83c-3-1.8-6.9-3.8-10.44-2.35-2.71,1.11-4.44,5.35-6.19,7.52a2.62,2.62,0,0,1-3.37.73A47.36,47.36,0,0,1,57.84,68.71c-1-1.46-.78-2.61.37-3.95,1.69-2,3.82-4.27,4.28-7s-.8-5.84-1.91-8.24c-1.43-3.06-3-7.43-6.08-9.16-2.83-1.6-6.54-.7-9,1.34a18.38,18.38,0,0,0-6.37,14.55,21,21,0,0,0,.57,4.62,38.41,38.41,0,0,0,4.43,10.21,81.94,81.94,0,0,0,4.63,7A71.41,71.41,0,0,0,68.77,96.78a60.56,60.56,0,0,0,12.51,6c4.9,1.62,9.26,3.3,14.56,2.3,5.54-1.06,11-4.49,13.2-9.83a8.49,8.49,0,0,0,.61-5C108.9,86.74,104.22,84.69,101.43,83Z"/></g></g></svg>
