<svg xmlns="http://www.w3.org/2000/svg" xmlns:xlink="http://www.w3.org/1999/xlink" viewBox="0 0 200 200"><defs><style>.cls-1{fill:url(#linear-gradient);}.cls-2{fill:#3a3d4c;}.cls-3{fill:url(#linear-gradient-2);}.cls-4{fill:url(#linear-gradient-3);}.cls-5{fill:url(#linear-gradient-4);}.cls-6{fill:url(#linear-gradient-5);}.cls-7{fill:url(#linear-gradient-6);}.cls-8{fill:url(#linear-gradient-7);}.cls-9{fill:url(#linear-gradient-8);}.cls-10{fill:url(#linear-gradient-9);}.cls-11{fill:url(#linear-gradient-10);}.cls-12{fill:url(#linear-gradient-11);}.cls-13{fill:url(#linear-gradient-12);}.cls-14{fill:url(#linear-gradient-13);}.cls-15{fill:none;stroke:#3a3d4c;stroke-linecap:round;stroke-linejoin:round;stroke-width:0.91px;}</style><linearGradient id="linear-gradient" x1="160.58" y1="203.42" x2="42.33" y2="1.54" gradientUnits="userSpaceOnUse"><stop offset="0" stop-color="#121623"/><stop offset="0.99" stop-color="#272935"/></linearGradient><linearGradient id="linear-gradient-2" x1="17.05" y1="108.11" x2="21.4" y2="169.72" gradientUnits="userSpaceOnUse"><stop offset="0.01" stop-color="#0fd"/><stop offset="1" stop-color="#5a6ff0"/></linearGradient><linearGradient id="linear-gradient-3" x1="31.64" y1="88.99" x2="37.48" y2="171.72" xlink:href="#linear-gradient-2"/><linearGradient id="linear-gradient-4" x1="46.05" y1="64.88" x2="53.77" y2="174.24" xlink:href="#linear-gradient-2"/><linearGradient id="linear-gradient-5" x1="67.34" y1="184.45" x2="62.74" y2="31.48" gradientUnits="userSpaceOnUse"><stop offset="0" stop-color="#c31fe6"/><stop offset="0.99" stop-color="#fbfefe"/></linearGradient><linearGradient id="linear-gradient-6" x1="76.85" y1="75.02" x2="83.78" y2="173.18" xlink:href="#linear-gradient-2"/><linearGradient id="linear-gradient-7" x1="91.54" y1="58.42" x2="99.77" y2="174.91" xlink:href="#linear-gradient-2"/><linearGradient id="linear-gradient-8" x1="107.09" y1="64.88" x2="114.82" y2="174.24" xlink:href="#linear-gradient-2"/><linearGradient id="linear-gradient-9" x1="118.83" y1="178.31" x2="131.5" y2="88.06" xlink:href="#linear-gradient-5"/><linearGradient id="linear-gradient-10" x1="138.23" y1="84.08" x2="144.46" y2="172.23" xlink:href="#linear-gradient-2"/><linearGradient id="linear-gradient-11" x1="152.58" y1="58.42" x2="160.81" y2="174.91" xlink:href="#linear-gradient-2"/><linearGradient id="linear-gradient-12" x1="168.85" y1="84.08" x2="175.08" y2="172.23" xlink:href="#linear-gradient-2"/><linearGradient id="linear-gradient-13" x1="183.24" y1="164.15" x2="190.88" y2="79.08" xlink:href="#linear-gradient-5"/></defs><g id="Layer_2"><g id="OBJECTS"><rect class="cls-1" width="200" height="200"/><rect class="cls-2" x="59.97" y="46.83" width="10.21" height="116.7"/><rect class="cls-2" x="44.66" y="46.83" width="10.21" height="116.7"/><rect class="cls-2" x="29.35" y="46.83" width="10.21" height="116.7"/><rect class="cls-2" x="14.04" y="46.83" width="10.21" height="116.7"/><rect class="cls-3" x="14.04" y="111.91" width="10.21" height="51.62"/><rect class="cls-4" x="29.35" y="93.97" width="10.21" height="69.55"/><rect class="cls-5" x="44.66" y="71.35" width="10.21" height="92.18"/><rect class="cls-6" x="59.97" y="54.52" width="10.21" height="109.01"/><rect class="cls-2" x="121.01" y="46.83" width="10.21" height="116.7"/><rect class="cls-2" x="105.7" y="46.83" width="10.21" height="116.7"/><rect class="cls-2" x="90.39" y="46.83" width="10.21" height="116.7"/><rect class="cls-2" x="75.08" y="46.83" width="10.21" height="116.7"/><rect class="cls-7" x="75.08" y="80.87" width="10.21" height="82.66"/><rect class="cls-8" x="90.39" y="65.29" width="10.21" height="98.24"/><rect class="cls-9" x="105.7" y="71.35" width="10.21" height="92.18"/><rect class="cls-10" x="121.01" y="89.36" width="10.21" height="74.16"/><rect class="cls-2" x="182.05" y="46.83" width="10.21" height="116.7"/><rect class="cls-2" x="166.74" y="46.83" width="10.21" height="116.7"/><rect class="cls-2" x="151.43" y="46.83" width="10.21" height="116.7"/><rect class="cls-2" x="136.12" y="46.83" width="10.21" height="116.7"/><rect class="cls-11" x="136.12" y="89.36" width="10.21" height="74.16"/><rect class="cls-12" x="151.43" y="65.29" width="10.21" height="98.24"/><rect class="cls-13" x="166.74" y="89.36" width="10.21" height="74.16"/><rect class="cls-14" x="182.05" y="77.58" width="10.21" height="85.95"/><polyline class="cls-15" points="7.74 27.02 7.74 172.98 187.55 172.98"/><path class="cls-2" d="M21.27,173c0,1.84-1,3.33-2.13,3.33S17,174.82,17,173s1-3.33,2.13-3.33S21.27,171.14,21.27,173Z"/><path class="cls-2" d="M36.58,173c0,1.84-1,3.33-2.13,3.33s-2.13-1.49-2.13-3.33,1-3.33,2.13-3.33S36.58,171.14,36.58,173Z"/><path class="cls-2" d="M51.89,173c0,1.84-1,3.33-2.13,3.33s-2.13-1.49-2.13-3.33,1-3.33,2.13-3.33S51.89,171.14,51.89,173Z"/><path class="cls-2" d="M67.2,173c0,1.84-1,3.33-2.13,3.33S63,174.82,63,173s.95-3.33,2.12-3.33S67.2,171.14,67.2,173Z"/><path class="cls-2" d="M82.51,173c0,1.84-1,3.33-2.13,3.33s-2.12-1.49-2.12-3.33.95-3.33,2.12-3.33S82.51,171.14,82.51,173Z"/><path class="cls-2" d="M97.82,173c0,1.84-.95,3.33-2.13,3.33s-2.12-1.49-2.12-3.33,1-3.33,2.12-3.33S97.82,171.14,97.82,173Z"/><path class="cls-2" d="M113.13,173c0,1.84-.95,3.33-2.13,3.33s-2.12-1.49-2.12-3.33,1-3.33,2.12-3.33S113.13,171.14,113.13,173Z"/><path class="cls-2" d="M128.44,173c0,1.84-1,3.33-2.13,3.33s-2.12-1.49-2.12-3.33,1-3.33,2.12-3.33S128.44,171.14,128.44,173Z"/><path class="cls-2" d="M143.75,173c0,1.84-.95,3.33-2.13,3.33s-2.12-1.49-2.12-3.33.95-3.33,2.12-3.33S143.75,171.14,143.75,173Z"/><path class="cls-2" d="M159.06,173c0,1.84-.95,3.33-2.13,3.33s-2.12-1.49-2.12-3.33.95-3.33,2.12-3.33S159.06,171.14,159.06,173Z"/><path class="cls-2" d="M174.37,173c0,1.84-1,3.33-2.13,3.33s-2.12-1.49-2.12-3.33.95-3.33,2.12-3.33S174.37,171.14,174.37,173Z"/><path class="cls-2" d="M189.68,173c0,1.84-1,3.33-2.13,3.33s-2.12-1.49-2.12-3.33.95-3.33,2.12-3.33S189.68,171.14,189.68,173Z"/></g></g></svg>
