<svg xmlns="http://www.w3.org/2000/svg" xmlns:xlink="http://www.w3.org/1999/xlink" viewBox="0 0 165 165"><defs><style>.cls-1{fill:url(#linear-gradient);}.cls-2,.cls-4{fill:none;stroke-linecap:round;stroke-linejoin:round;}.cls-2{stroke:#3a3d4c;stroke-width:0.91px;}.cls-3{fill:url(#linear-gradient-2);}.cls-4{stroke-width:2.74px;stroke:url(#linear-gradient-3);}</style><linearGradient id="linear-gradient" x1="132.48" y1="167.82" x2="34.92" y2="1.27" gradientUnits="userSpaceOnUse"><stop offset="0" stop-color="#121623"/><stop offset="0.99" stop-color="#272935"/></linearGradient><linearGradient id="linear-gradient-2" x1="82.48" y1="158.81" x2="82.48" y2="28.93" gradientUnits="userSpaceOnUse"><stop offset="0.01" stop-color="#0fd" stop-opacity="0"/><stop offset="0.14" stop-color="#01fddd" stop-opacity="0.02"/><stop offset="0.27" stop-color="#06f6de" stop-opacity="0.06"/><stop offset="0.4" stop-color="#0deae0" stop-opacity="0.15"/><stop offset="0.52" stop-color="#17dae2" stop-opacity="0.26"/><stop offset="0.65" stop-color="#24c5e5" stop-opacity="0.4"/><stop offset="0.77" stop-color="#35abe8" stop-opacity="0.58"/><stop offset="0.89" stop-color="#478dec" stop-opacity="0.79"/><stop offset="1" stop-color="#5a6ff0"/></linearGradient><linearGradient id="linear-gradient-3" x1="8.92" y1="85.27" x2="156.04" y2="85.27" gradientUnits="userSpaceOnUse"><stop offset="0.01" stop-color="#0fd"/><stop offset="1" stop-color="#5a6ff0"/></linearGradient></defs><g id="Layer_2" ><g id="OBJECTS"><rect class="cls-1" width="165" height="165"/><line class="cls-2" x1="5.26" y1="127.21" x2="159.23" y2="127.21"/><line class="cls-2" x1="5.26" y1="92.18" x2="159.23" y2="92.18"/><line class="cls-2" x1="5.26" y1="57.15" x2="159.23" y2="57.15"/><line class="cls-2" x1="5.26" y1="22.12" x2="159.23" y2="22.12"/><polyline class="cls-2" points="5.26 8.76 5.26 158.81 159.23 158.81"/><path class="cls-3" d="M154.67,68.21c-28.85,0-31.21-39.28-46.64-39.28s-26.65,90.6-39.31,90.6S49.4,69.67,36.3,69.67s-26,71.93-26,71.93v17.21H154.67Z"/><path class="cls-4" d="M10.29,141.6s12.9-71.93,26-71.93,19.76,49.86,32.42,49.86S92.6,28.93,108,28.93s17.79,39.28,46.64,39.28"/></g></g></svg>
