<svg xmlns="http://www.w3.org/2000/svg" viewBox="0 0 408.76 409.44"><defs><style>.cls-1{fill:#2a3a3a;}.cls-2{fill:#ececf1;}</style></defs><g id="Layer_2"><g id="Layer_1-2"><path class="cls-1" d="M188.48,0H219.6c.22.88.93.76,1.57.78A149.16,149.16,0,0,1,254,6.06q67.59,17.69,110.9,72.58a202.47,202.47,0,0,1,41.6,95.14c.81,5.12.62,10.39,2.28,15.38v33.52c-1.09.31-.73,1.24-.81,2a217.35,217.35,0,0,1-6.3,33.86A201.11,201.11,0,0,1,357.89,339a206.62,206.62,0,0,1-61.35,47.41c-14.07,7.17-28.9,12.15-44,16.5-.08-1.59-.23-3.18-.23-4.77q0-38.31,0-76.62a39.62,39.62,0,0,0-7.77-24.14c-1.81-2.45-3.54-5-5.43-7.37-1.54-2-1.06-2.47,1.28-2.81a109.56,109.56,0,0,0,12-2.4c21.78-5.63,41.41-15.06,55.26-33.57,17.47-23.34,23-49.33,15.49-77.68-3.14-11.89-9.32-22.41-16.18-32.52a7.9,7.9,0,0,1-1.3-7.32c4.54-16,3-31.7-2.26-47.24-.47-1.38-1-2.17-2.49-1.81-5.12,1.27-10.49.91-15.57,2.74-11.29,4.07-21.51,10.14-31.75,16.22a9.43,9.43,0,0,1-7.87,1.21,156.71,156.71,0,0,0-29.71-5,158.51,158.51,0,0,0-51.36,4.85,12.22,12.22,0,0,1-10.15-1.41C140.36,95,126.61,85.68,109.3,84.9c-2.45-.11-3.14.32-3.87,2.39-5.41,15.46-6.61,31.08-2,47,.59,2,.75,3.76-.7,5.58-11.55,14.45-17.53,31.07-19,49.4-2.49,31.4,7.81,57.49,32.79,77.12C131.57,278.19,149.33,284,168,287.1c3.63.61,3,1.58,1.33,3.71-4.54,5.75-9.41,11.65-10.22,19.07-.72,6.71-4.35,8.6-10,9-.79.06-1.58.2-2.37.23-9.68.46-17.3-3.25-22.77-11.28-4.19-6.14-8-12.56-13.68-17.55-8.61-7.6-18.21-12.79-30.1-12.63-1.92,0-2.45.43-2.21,2.48.71,5.93,1.27,11.9,1.58,17.87.14,2.74.94,3.64,3.83,4,4.3.53,7.73,3.28,10.9,6.22,3.66,3.39,6.09,7.68,8.81,11.77,6.19,9.32,14.15,16.47,24.86,20.28,9.52,3.38,19.21,3.7,29.4,1.55v60.43A14,14,0,0,1,155,402c-47.61-12.77-86.6-38.46-115.66-78.37-35-48.12-46.73-101.88-34.87-160C21.69,79.35,90,15.3,175,2.19,179.52,1.5,184.17,1.76,188.48,0Z"/><path class="cls-2" d="M157.36,402.28V341.85c-10.19,2.15-19.88,1.83-29.4-1.55-10.71-3.81-18.67-11-24.86-20.28-2.72-4.09-5.15-8.38-8.81-11.77-3.17-2.94-6.6-5.69-10.9-6.22-2.89-.36-3.69-1.26-3.83-4-.31-6-.87-11.94-1.58-17.87-.24-2.05.29-2.45,2.21-2.48,11.89-.16,21.49,5,30.1,12.63,5.65,5,9.49,11.41,13.68,17.55,5.47,8,13.09,11.74,22.77,11.28.79,0,1.58-.17,2.37-.23,5.65-.43,9.28-2.32,10-9,.81-7.42,5.68-13.32,10.22-19.07,1.68-2.13,2.3-3.1-1.33-3.71-18.67-3.12-36.43-8.91-51.51-20.76-25-19.63-35.28-45.72-32.79-77.12,1.46-18.33,7.44-34.95,19-49.4,1.45-1.82,1.29-3.56.7-5.58-4.57-15.87-3.37-31.49,2-46.95.73-2.07,1.42-2.5,3.87-2.39,17.31.78,31.06,10.11,45.22,18.41a12.22,12.22,0,0,0,10.15,1.41A158.51,158.51,0,0,1,216,99.87a156.71,156.71,0,0,1,29.71,5,9.43,9.43,0,0,0,7.87-1.21c10.24-6.08,20.46-12.15,31.75-16.22,5.08-1.83,10.45-1.47,15.57-2.74,1.46-.36,2,.43,2.49,1.81,5.29,15.54,6.8,31.28,2.26,47.24a7.9,7.9,0,0,0,1.3,7.32c6.86,10.11,13,20.63,16.18,32.52,7.48,28.35,2,54.34-15.49,77.68-13.85,18.51-33.48,27.94-55.26,33.57a109.56,109.56,0,0,1-12,2.4c-2.34.34-2.82.86-1.28,2.81,1.89,2.39,3.62,4.92,5.43,7.37a39.62,39.62,0,0,1,7.77,24.14q.06,38.31,0,76.62c0,1.59.15,3.18.23,4.77a18.47,18.47,0,0,0-2.37.26,191.1,191.1,0,0,1-48.76,5.45c-1.17,0-2.42-.21-3.36.79h-4.79a1.9,1.9,0,0,0-2.38-1.56c-3.36.34-6.62-.44-9.88-.89C173,405.9,165,404.87,157.36,402.28Z"/></g></g></svg>
