<svg xmlns="http://www.w3.org/2000/svg" viewBox="0 0 243.13 243.13"><defs><style>.cls-1{fill:#fff;}</style></defs><g id="Layer_2"><g id="Layer_1-2"><path class="cls-1" d="M194.46,243.13H48.67A48.73,48.73,0,0,1,0,194.46V48.67A48.73,48.73,0,0,1,48.67,0H194.46a48.73,48.73,0,0,1,48.67,48.67V194.46A48.72,48.72,0,0,1,194.46,243.13ZM48.67,14A34.74,34.74,0,0,0,14,48.67V194.46a34.74,34.74,0,0,0,34.7,34.7H194.46a34.74,34.74,0,0,0,34.7-34.7V48.67A34.74,34.74,0,0,0,194.46,14Z"/><path class="cls-1" d="M121.07,183.85a62.78,62.78,0,1,1,62.78-62.78A62.85,62.85,0,0,1,121.07,183.85Zm0-111.59a48.81,48.81,0,1,0,48.81,48.81A48.87,48.87,0,0,0,121.07,72.26Z"/><circle class="cls-1" cx="190.81" cy="50.33" r="14.5"/></g></g></svg>
