<svg xmlns="http://www.w3.org/2000/svg" viewBox="0 0 160.18 133.63"><defs><style>.cls-1{isolation:isolate;}.cls-2{fill:#4d4093;mix-blend-mode:multiply;}</style></defs><g class="cls-1"><g id="Layer_2"><g id="Layer_1-2" ><path class="cls-2" d="M160.18,0c-.55,1.15-1.12,2.31-1.72,3.49-5.46,10.72-8.19,16.08-13.07,20.73-10.33,9.82-26.24,15-39.33,14.85a74.33,74.33,0,0,0-14.61,1c-5.58,1-9.06,2.26-11.34,3.59a11.88,11.88,0,0,0-3.69,3.18,14.57,14.57,0,0,0-2.62,5.94,17.87,17.87,0,0,0-6.18,2.26c-5.9,3.55-7.83,9.58-8.43,11.47a22.58,22.58,0,0,0-1.07,6.06,57.07,57.07,0,0,1,11.41-4.82c1.57-.47,3.07-.84,4.56-1.13,6.11-1.19,12.17-1.07,23.12-.89,4.22.07,12.58.21,24.59.36a108.38,108.38,0,0,1-5,11.47c-3.83,7.49-6.19,12.11-11,16.74a38.17,38.17,0,0,1-17,9.86c-4.35,1.11-9.12,1.14-18.66,1.2-2.39,0-4.48,0-6.19-.06L59.58,122l-3,11.6H0L35,0Z"/></g></g></g></svg>
