<svg xmlns="http://www.w3.org/2000/svg" viewBox="0 0 117.78 116.44"><defs><style>.cls-1{fill:#424242;}</style></defs><g id="Layer_2" ><g id="Layer_1-2" ><path class="cls-1" d="M59.57,0Q58,0,56.36.09A58.21,58.21,0,0,1,24.52,104.7,58.22,58.22,0,1,0,59.57,0Z"/><path class="cls-1" d="M31,22.92l4.43,13.62a3.17,3.17,0,0,0,3,2.2H52.75a3.17,3.17,0,0,1,1.86,5.74L43,52.89a3.18,3.18,0,0,0-1.16,3.55L46.3,70.06a3.18,3.18,0,0,1-4.89,3.55L29.83,65.19a3.2,3.2,0,0,0-3.73,0L14.51,73.61a3.17,3.17,0,0,1-4.88-3.55l4.42-13.62a3.18,3.18,0,0,0-1.15-3.55L1.31,44.48a3.18,3.18,0,0,1,1.87-5.74H17.5a3.18,3.18,0,0,0,3-2.2l4.42-13.62A3.18,3.18,0,0,1,31,22.92Z"/></g></g></svg>
